M48
;GenerationSoftware,Autodesk,EAGLE,9.6.2*%
;CreationDate,2021-12-15T02:20:45Z*%
FMAT,2
ICI,OFF
METRIC,TZ,000.000
T7C0.305
T6C0.800
T5C0.889
T4C1.016
T3C1.118
T2C2.000
T1C3.175
%
G90
M71
T1
X3810Y46990
X72390Y46990
X72390Y3810
X3810Y3810
T2
X59944Y41910
X16256Y41910
X59944Y19050
X16256Y19050
T3
X62230Y26670
X62230Y29210
X62230Y31750
X62230Y34290
X62230Y36830
X62230Y39370
X69850Y39370
X69850Y36830
X69850Y34290
X69850Y31750
X69850Y29210
X69850Y26670
X62230Y24130
X69850Y24130
X69850Y21590
X69850Y19050
X62230Y19050
X62230Y21590
T4
X34036Y19050
X36576Y19050
X39116Y19050
X41656Y19050
T5
X19880Y11710
X40200Y11710
X42740Y14250
X42740Y11710
X45280Y14250
X45280Y11710
X47820Y14250
X47820Y11710
X50360Y14250
X50360Y11710
X52900Y14250
X52900Y11710
X40200Y14250
X17780Y5080
X20320Y5080
X22860Y5080
X9720Y39650
X9720Y37110
X12260Y39650
X12260Y37110
X14800Y39650
X14800Y37110
X17340Y39650
X17340Y37110
X19880Y39650
X19880Y37110
X22420Y39650
X22420Y37110
X24960Y39650
X24960Y37110
X27500Y39650
X27500Y37110
X30040Y39650
X30040Y37110
X32580Y39650
X32580Y37110
X35120Y39650
X35120Y37110
X37660Y39650
X37660Y37110
X40200Y39650
X40200Y37110
X42740Y39650
X42740Y37110
X45280Y39650
X45280Y37110
X47820Y39650
X47820Y37110
X50360Y39650
X50360Y37110
X52900Y39650
X52900Y37110
X9720Y14250
X9720Y11710
X12260Y14250
X12260Y11710
X14800Y14250
X14800Y11710
X17340Y14250
X17340Y11710
X19880Y14250
X22420Y14250
X22420Y11710
X24960Y14250
X24960Y11710
X27500Y14250
X27500Y11710
X30040Y14250
X30040Y11710
X32580Y14250
X32580Y11710
X35120Y14250
X35120Y11710
X37660Y14250
X37660Y11710
T6
X62230Y4370
X62230Y10870
T7
X59690Y11430
X57150Y8890
X57150Y6350
X63500Y8890
X63500Y6350
X66040Y13970
X66040Y11430
X65405Y2286
X60960Y5080
X67945Y5080
X65405Y15240
X70485Y15240
X33909Y15875
X34925Y15875
X59690Y13970
M30