G04 EAGLE Gerber RS-274X export*
G75*
%MOMM*%
%FSLAX34Y34*%
%LPD*%
%INCopper Layer 2*%
%IPPOS*%
%AMOC8*
5,1,8,0,0,1.08239X$1,22.5*%
G01*
%ADD10C,1.422400*%
%ADD11C,1.120000*%
%ADD12C,1.244600*%
%ADD13C,1.564638*%
%ADD14C,4.191000*%
%ADD15C,0.609600*%

G36*
X758308Y2556D02*
X758308Y2556D01*
X758427Y2563D01*
X758465Y2576D01*
X758506Y2581D01*
X758616Y2624D01*
X758729Y2661D01*
X758764Y2683D01*
X758801Y2698D01*
X758897Y2767D01*
X758998Y2831D01*
X759026Y2861D01*
X759059Y2884D01*
X759135Y2976D01*
X759216Y3063D01*
X759236Y3098D01*
X759261Y3129D01*
X759312Y3237D01*
X759370Y3341D01*
X759380Y3381D01*
X759397Y3417D01*
X759419Y3534D01*
X759449Y3649D01*
X759453Y3709D01*
X759457Y3729D01*
X759455Y3750D01*
X759459Y3810D01*
X759459Y504190D01*
X759444Y504308D01*
X759437Y504427D01*
X759424Y504465D01*
X759419Y504506D01*
X759376Y504616D01*
X759339Y504729D01*
X759317Y504764D01*
X759302Y504801D01*
X759233Y504897D01*
X759169Y504998D01*
X759139Y505026D01*
X759116Y505059D01*
X759024Y505135D01*
X758937Y505216D01*
X758902Y505236D01*
X758871Y505261D01*
X758763Y505312D01*
X758659Y505370D01*
X758619Y505380D01*
X758583Y505397D01*
X758466Y505419D01*
X758351Y505449D01*
X758291Y505453D01*
X758271Y505457D01*
X758250Y505455D01*
X758190Y505459D01*
X3810Y505459D01*
X3692Y505444D01*
X3573Y505437D01*
X3535Y505424D01*
X3494Y505419D01*
X3384Y505376D01*
X3271Y505339D01*
X3236Y505317D01*
X3199Y505302D01*
X3103Y505233D01*
X3002Y505169D01*
X2974Y505139D01*
X2941Y505116D01*
X2865Y505024D01*
X2784Y504937D01*
X2764Y504902D01*
X2739Y504871D01*
X2688Y504763D01*
X2630Y504659D01*
X2620Y504619D01*
X2603Y504583D01*
X2581Y504466D01*
X2551Y504351D01*
X2547Y504291D01*
X2543Y504271D01*
X2545Y504250D01*
X2541Y504190D01*
X2541Y3810D01*
X2556Y3692D01*
X2563Y3573D01*
X2576Y3535D01*
X2581Y3494D01*
X2624Y3384D01*
X2661Y3271D01*
X2683Y3236D01*
X2698Y3199D01*
X2767Y3103D01*
X2831Y3002D01*
X2861Y2974D01*
X2884Y2941D01*
X2976Y2865D01*
X3063Y2784D01*
X3098Y2764D01*
X3129Y2739D01*
X3237Y2688D01*
X3341Y2630D01*
X3381Y2620D01*
X3417Y2603D01*
X3534Y2581D01*
X3649Y2551D01*
X3709Y2547D01*
X3729Y2543D01*
X3750Y2545D01*
X3810Y2541D01*
X758190Y2541D01*
X758308Y2556D01*
G37*
%LPC*%
G36*
X719226Y446404D02*
X719226Y446404D01*
X710591Y449981D01*
X703981Y456591D01*
X700404Y465226D01*
X700404Y474574D01*
X703981Y483209D01*
X710591Y489819D01*
X719226Y493396D01*
X728574Y493396D01*
X737209Y489819D01*
X743819Y483209D01*
X747396Y474574D01*
X747396Y465226D01*
X743819Y456591D01*
X737209Y449981D01*
X728574Y446404D01*
X719226Y446404D01*
G37*
%LPD*%
%LPC*%
G36*
X33426Y446404D02*
X33426Y446404D01*
X24791Y449981D01*
X18181Y456591D01*
X14604Y465226D01*
X14604Y474574D01*
X18181Y483209D01*
X24791Y489819D01*
X33426Y493396D01*
X42774Y493396D01*
X51409Y489819D01*
X58019Y483209D01*
X61596Y474574D01*
X61596Y465226D01*
X58019Y456591D01*
X51409Y449981D01*
X42774Y446404D01*
X33426Y446404D01*
G37*
%LPD*%
%LPC*%
G36*
X719226Y14604D02*
X719226Y14604D01*
X710591Y18181D01*
X703981Y24791D01*
X700404Y33426D01*
X700404Y42774D01*
X703981Y51409D01*
X710591Y58019D01*
X719226Y61596D01*
X728574Y61596D01*
X737209Y58019D01*
X743819Y51409D01*
X747396Y42774D01*
X747396Y33426D01*
X743819Y24791D01*
X737209Y18181D01*
X728574Y14604D01*
X719226Y14604D01*
G37*
%LPD*%
%LPC*%
G36*
X33426Y14604D02*
X33426Y14604D01*
X24791Y18181D01*
X18181Y24791D01*
X14604Y33426D01*
X14604Y42774D01*
X18181Y51409D01*
X24791Y58019D01*
X33426Y61596D01*
X42774Y61596D01*
X51409Y58019D01*
X58019Y51409D01*
X61596Y42774D01*
X61596Y33426D01*
X58019Y24791D01*
X51409Y18181D01*
X42774Y14604D01*
X33426Y14604D01*
G37*
%LPD*%
%LPC*%
G36*
X596945Y177959D02*
X596945Y177959D01*
X592336Y179868D01*
X588808Y183396D01*
X586899Y188005D01*
X586899Y192995D01*
X588808Y197604D01*
X592336Y201132D01*
X596945Y203041D01*
X601935Y203041D01*
X606544Y201132D01*
X610072Y197604D01*
X610875Y195663D01*
X610944Y195542D01*
X611009Y195419D01*
X611023Y195404D01*
X611033Y195387D01*
X611130Y195287D01*
X611223Y195184D01*
X611240Y195173D01*
X611254Y195158D01*
X611373Y195086D01*
X611489Y195009D01*
X611508Y195003D01*
X611525Y194992D01*
X611658Y194951D01*
X611790Y194906D01*
X611810Y194904D01*
X611829Y194898D01*
X611969Y194892D01*
X612107Y194881D01*
X612127Y194884D01*
X612147Y194883D01*
X612284Y194911D01*
X612420Y194935D01*
X612439Y194943D01*
X612458Y194948D01*
X612584Y195009D01*
X612710Y195066D01*
X612726Y195078D01*
X612744Y195087D01*
X612850Y195177D01*
X612959Y195264D01*
X612971Y195280D01*
X612986Y195294D01*
X613066Y195407D01*
X613150Y195518D01*
X613162Y195544D01*
X613169Y195554D01*
X613176Y195573D01*
X613221Y195663D01*
X613514Y196371D01*
X616429Y199286D01*
X620238Y200864D01*
X624362Y200864D01*
X628171Y199286D01*
X631086Y196371D01*
X632664Y192562D01*
X632664Y188438D01*
X631086Y184629D01*
X628171Y181714D01*
X624362Y180136D01*
X620238Y180136D01*
X616429Y181714D01*
X613514Y184629D01*
X613221Y185337D01*
X613152Y185458D01*
X613087Y185581D01*
X613073Y185596D01*
X613063Y185613D01*
X612967Y185713D01*
X612873Y185816D01*
X612856Y185827D01*
X612842Y185842D01*
X612723Y185914D01*
X612607Y185991D01*
X612588Y185997D01*
X612571Y186008D01*
X612438Y186049D01*
X612306Y186094D01*
X612286Y186096D01*
X612267Y186102D01*
X612128Y186108D01*
X611989Y186119D01*
X611969Y186116D01*
X611949Y186117D01*
X611813Y186089D01*
X611676Y186065D01*
X611658Y186057D01*
X611638Y186052D01*
X611513Y185991D01*
X611386Y185934D01*
X611370Y185922D01*
X611352Y185913D01*
X611246Y185823D01*
X611138Y185736D01*
X611125Y185720D01*
X611110Y185706D01*
X611030Y185593D01*
X610946Y185482D01*
X610934Y185456D01*
X610927Y185446D01*
X610920Y185427D01*
X610875Y185337D01*
X610072Y183396D01*
X606544Y179868D01*
X601935Y177959D01*
X596945Y177959D01*
G37*
%LPD*%
%LPC*%
G36*
X596945Y406559D02*
X596945Y406559D01*
X592336Y408468D01*
X588808Y411996D01*
X586899Y416605D01*
X586899Y421595D01*
X588808Y426204D01*
X592336Y429732D01*
X596945Y431641D01*
X601935Y431641D01*
X606544Y429732D01*
X610072Y426204D01*
X611981Y421595D01*
X611981Y416605D01*
X610072Y411996D01*
X606544Y408468D01*
X601935Y406559D01*
X596945Y406559D01*
G37*
%LPD*%
%LPC*%
G36*
X160065Y406559D02*
X160065Y406559D01*
X155456Y408468D01*
X151928Y411996D01*
X150019Y416605D01*
X150019Y421595D01*
X151928Y426204D01*
X155456Y429732D01*
X160065Y431641D01*
X165055Y431641D01*
X169664Y429732D01*
X173192Y426204D01*
X175101Y421595D01*
X175101Y416605D01*
X173192Y411996D01*
X169664Y408468D01*
X165055Y406559D01*
X160065Y406559D01*
G37*
%LPD*%
%LPC*%
G36*
X160065Y177959D02*
X160065Y177959D01*
X155456Y179868D01*
X151928Y183396D01*
X150019Y188005D01*
X150019Y192995D01*
X151928Y197604D01*
X155456Y201132D01*
X160065Y203041D01*
X165055Y203041D01*
X169664Y201132D01*
X173192Y197604D01*
X175101Y192995D01*
X175101Y188005D01*
X173192Y183396D01*
X169664Y179868D01*
X165055Y177959D01*
X160065Y177959D01*
G37*
%LPD*%
%LPC*%
G36*
X696438Y180136D02*
X696438Y180136D01*
X692629Y181714D01*
X689714Y184629D01*
X688136Y188438D01*
X688136Y192562D01*
X689714Y196371D01*
X692629Y199286D01*
X696438Y200864D01*
X700562Y200864D01*
X704371Y199286D01*
X707286Y196371D01*
X708864Y192562D01*
X708864Y188438D01*
X707286Y184629D01*
X704371Y181714D01*
X700562Y180136D01*
X696438Y180136D01*
G37*
%LPD*%
%LPC*%
G36*
X696438Y332536D02*
X696438Y332536D01*
X692629Y334114D01*
X689714Y337029D01*
X688136Y340838D01*
X688136Y344962D01*
X689714Y348771D01*
X692629Y351686D01*
X696438Y353264D01*
X700562Y353264D01*
X704371Y351686D01*
X707286Y348771D01*
X708864Y344962D01*
X708864Y340838D01*
X707286Y337029D01*
X704371Y334114D01*
X700562Y332536D01*
X696438Y332536D01*
G37*
%LPD*%
%LPC*%
G36*
X620238Y332536D02*
X620238Y332536D01*
X616429Y334114D01*
X613514Y337029D01*
X611936Y340838D01*
X611936Y344962D01*
X613514Y348771D01*
X616429Y351686D01*
X620238Y353264D01*
X624362Y353264D01*
X628171Y351686D01*
X631086Y348771D01*
X632664Y344962D01*
X632664Y340838D01*
X631086Y337029D01*
X628171Y334114D01*
X624362Y332536D01*
X620238Y332536D01*
G37*
%LPD*%
%LPC*%
G36*
X696438Y307136D02*
X696438Y307136D01*
X692629Y308714D01*
X689714Y311629D01*
X688136Y315438D01*
X688136Y319562D01*
X689714Y323371D01*
X692629Y326286D01*
X696438Y327864D01*
X700562Y327864D01*
X704371Y326286D01*
X707286Y323371D01*
X708864Y319562D01*
X708864Y315438D01*
X707286Y311629D01*
X704371Y308714D01*
X700562Y307136D01*
X696438Y307136D01*
G37*
%LPD*%
%LPC*%
G36*
X620238Y307136D02*
X620238Y307136D01*
X616429Y308714D01*
X613514Y311629D01*
X611936Y315438D01*
X611936Y319562D01*
X613514Y323371D01*
X616429Y326286D01*
X620238Y327864D01*
X624362Y327864D01*
X628171Y326286D01*
X631086Y323371D01*
X632664Y319562D01*
X632664Y315438D01*
X631086Y311629D01*
X628171Y308714D01*
X624362Y307136D01*
X620238Y307136D01*
G37*
%LPD*%
%LPC*%
G36*
X696438Y281736D02*
X696438Y281736D01*
X692629Y283314D01*
X689714Y286229D01*
X688136Y290038D01*
X688136Y294162D01*
X689714Y297971D01*
X692629Y300886D01*
X696438Y302464D01*
X700562Y302464D01*
X704371Y300886D01*
X707286Y297971D01*
X708864Y294162D01*
X708864Y290038D01*
X707286Y286229D01*
X704371Y283314D01*
X700562Y281736D01*
X696438Y281736D01*
G37*
%LPD*%
%LPC*%
G36*
X620238Y281736D02*
X620238Y281736D01*
X616429Y283314D01*
X613514Y286229D01*
X611936Y290038D01*
X611936Y294162D01*
X613514Y297971D01*
X616429Y300886D01*
X620238Y302464D01*
X624362Y302464D01*
X628171Y300886D01*
X631086Y297971D01*
X632664Y294162D01*
X632664Y290038D01*
X631086Y286229D01*
X628171Y283314D01*
X624362Y281736D01*
X620238Y281736D01*
G37*
%LPD*%
%LPC*%
G36*
X696438Y256336D02*
X696438Y256336D01*
X692629Y257914D01*
X689714Y260829D01*
X688136Y264638D01*
X688136Y268762D01*
X689714Y272571D01*
X692629Y275486D01*
X696438Y277064D01*
X700562Y277064D01*
X704371Y275486D01*
X707286Y272571D01*
X708864Y268762D01*
X708864Y264638D01*
X707286Y260829D01*
X704371Y257914D01*
X700562Y256336D01*
X696438Y256336D01*
G37*
%LPD*%
%LPC*%
G36*
X620238Y256336D02*
X620238Y256336D01*
X616429Y257914D01*
X613514Y260829D01*
X611936Y264638D01*
X611936Y268762D01*
X613514Y272571D01*
X616429Y275486D01*
X620238Y277064D01*
X624362Y277064D01*
X628171Y275486D01*
X631086Y272571D01*
X632664Y268762D01*
X632664Y264638D01*
X631086Y260829D01*
X628171Y257914D01*
X624362Y256336D01*
X620238Y256336D01*
G37*
%LPD*%
%LPC*%
G36*
X696438Y230936D02*
X696438Y230936D01*
X692629Y232514D01*
X689714Y235429D01*
X688136Y239238D01*
X688136Y243362D01*
X689714Y247171D01*
X692629Y250086D01*
X696438Y251664D01*
X700562Y251664D01*
X704371Y250086D01*
X707286Y247171D01*
X708864Y243362D01*
X708864Y239238D01*
X707286Y235429D01*
X704371Y232514D01*
X700562Y230936D01*
X696438Y230936D01*
G37*
%LPD*%
%LPC*%
G36*
X620238Y230936D02*
X620238Y230936D01*
X616429Y232514D01*
X613514Y235429D01*
X611936Y239238D01*
X611936Y243362D01*
X613514Y247171D01*
X616429Y250086D01*
X620238Y251664D01*
X624362Y251664D01*
X628171Y250086D01*
X631086Y247171D01*
X632664Y243362D01*
X632664Y239238D01*
X631086Y235429D01*
X628171Y232514D01*
X624362Y230936D01*
X620238Y230936D01*
G37*
%LPD*%
%LPC*%
G36*
X696438Y205536D02*
X696438Y205536D01*
X692629Y207114D01*
X689714Y210029D01*
X688136Y213838D01*
X688136Y217962D01*
X689714Y221771D01*
X692629Y224686D01*
X696438Y226264D01*
X700562Y226264D01*
X704371Y224686D01*
X707286Y221771D01*
X708864Y217962D01*
X708864Y213838D01*
X707286Y210029D01*
X704371Y207114D01*
X700562Y205536D01*
X696438Y205536D01*
G37*
%LPD*%
%LPC*%
G36*
X620238Y205536D02*
X620238Y205536D01*
X616429Y207114D01*
X613514Y210029D01*
X611936Y213838D01*
X611936Y217962D01*
X613514Y221771D01*
X616429Y224686D01*
X620238Y226264D01*
X624362Y226264D01*
X628171Y224686D01*
X631086Y221771D01*
X632664Y217962D01*
X632664Y213838D01*
X631086Y210029D01*
X628171Y207114D01*
X624362Y205536D01*
X620238Y205536D01*
G37*
%LPD*%
%LPC*%
G36*
X696438Y383336D02*
X696438Y383336D01*
X692629Y384914D01*
X689714Y387829D01*
X688136Y391638D01*
X688136Y395762D01*
X689714Y399571D01*
X692629Y402486D01*
X696438Y404064D01*
X700562Y404064D01*
X704371Y402486D01*
X707286Y399571D01*
X708864Y395762D01*
X708864Y391638D01*
X707286Y387829D01*
X704371Y384914D01*
X700562Y383336D01*
X696438Y383336D01*
G37*
%LPD*%
%LPC*%
G36*
X696438Y357936D02*
X696438Y357936D01*
X692629Y359514D01*
X689714Y362429D01*
X688136Y366238D01*
X688136Y370362D01*
X689714Y374171D01*
X692629Y377086D01*
X696438Y378664D01*
X700562Y378664D01*
X704371Y377086D01*
X707286Y374171D01*
X708864Y370362D01*
X708864Y366238D01*
X707286Y362429D01*
X704371Y359514D01*
X700562Y357936D01*
X696438Y357936D01*
G37*
%LPD*%
%LPC*%
G36*
X620238Y357936D02*
X620238Y357936D01*
X616429Y359514D01*
X613514Y362429D01*
X611936Y366238D01*
X611936Y370362D01*
X613514Y374171D01*
X616429Y377086D01*
X620238Y378664D01*
X624362Y378664D01*
X628171Y377086D01*
X631086Y374171D01*
X632664Y370362D01*
X632664Y366238D01*
X631086Y362429D01*
X628171Y359514D01*
X624362Y357936D01*
X620238Y357936D01*
G37*
%LPD*%
%LPC*%
G36*
X620681Y35559D02*
X620681Y35559D01*
X617689Y36799D01*
X615399Y39089D01*
X614159Y42081D01*
X614159Y44740D01*
X614153Y44789D01*
X614155Y44839D01*
X614133Y44946D01*
X614119Y45055D01*
X614101Y45102D01*
X614091Y45150D01*
X614043Y45249D01*
X614002Y45351D01*
X613973Y45391D01*
X613951Y45436D01*
X613880Y45519D01*
X613816Y45608D01*
X613777Y45640D01*
X613745Y45678D01*
X613655Y45741D01*
X613571Y45811D01*
X613526Y45832D01*
X613485Y45861D01*
X613382Y45900D01*
X613283Y45947D01*
X613234Y45956D01*
X613188Y45974D01*
X613078Y45986D01*
X612971Y46006D01*
X612921Y46003D01*
X612872Y46009D01*
X612763Y45994D01*
X612653Y45987D01*
X612606Y45971D01*
X612557Y45964D01*
X612404Y45912D01*
X610712Y45211D01*
X608488Y45211D01*
X606434Y46062D01*
X604862Y47634D01*
X604011Y49688D01*
X604011Y51912D01*
X604862Y53966D01*
X606434Y55538D01*
X608488Y56389D01*
X610712Y56389D01*
X612766Y55538D01*
X614338Y53966D01*
X615189Y51912D01*
X615189Y51166D01*
X615206Y51027D01*
X615219Y50889D01*
X615226Y50870D01*
X615229Y50850D01*
X615280Y50721D01*
X615327Y50590D01*
X615338Y50573D01*
X615346Y50554D01*
X615427Y50442D01*
X615505Y50327D01*
X615521Y50314D01*
X615532Y50297D01*
X615640Y50208D01*
X615744Y50116D01*
X615762Y50107D01*
X615777Y50094D01*
X615903Y50035D01*
X616027Y49972D01*
X616047Y49967D01*
X616065Y49959D01*
X616201Y49933D01*
X616337Y49902D01*
X616358Y49903D01*
X616377Y49899D01*
X616516Y49908D01*
X616655Y49912D01*
X616675Y49917D01*
X616695Y49919D01*
X616827Y49962D01*
X616961Y50000D01*
X616978Y50011D01*
X616997Y50017D01*
X617115Y50091D01*
X617235Y50162D01*
X617256Y50180D01*
X617266Y50187D01*
X617280Y50202D01*
X617356Y50268D01*
X617689Y50601D01*
X620681Y51841D01*
X623919Y51841D01*
X626911Y50601D01*
X629201Y48311D01*
X630441Y45319D01*
X630441Y42081D01*
X629201Y39089D01*
X626911Y36799D01*
X623919Y35559D01*
X620681Y35559D01*
G37*
%LPD*%
%LPC*%
G36*
X414640Y180847D02*
X414640Y180847D01*
X411092Y182317D01*
X408377Y185032D01*
X406907Y188580D01*
X406907Y192420D01*
X408377Y195968D01*
X411092Y198683D01*
X414640Y200153D01*
X418480Y200153D01*
X422028Y198683D01*
X424743Y195968D01*
X426213Y192420D01*
X426213Y188580D01*
X424743Y185032D01*
X422028Y182317D01*
X418480Y180847D01*
X414640Y180847D01*
G37*
%LPD*%
%LPC*%
G36*
X338440Y180847D02*
X338440Y180847D01*
X334892Y182317D01*
X332177Y185032D01*
X330707Y188580D01*
X330707Y192420D01*
X332177Y195968D01*
X334892Y198683D01*
X338440Y200153D01*
X342280Y200153D01*
X345828Y198683D01*
X348543Y195968D01*
X350013Y192420D01*
X350013Y188580D01*
X348543Y185032D01*
X345828Y182317D01*
X342280Y180847D01*
X338440Y180847D01*
G37*
%LPD*%
%LPC*%
G36*
X363840Y180847D02*
X363840Y180847D01*
X360292Y182317D01*
X357577Y185032D01*
X356107Y188580D01*
X356107Y192420D01*
X357577Y195968D01*
X360292Y198683D01*
X363840Y200153D01*
X367680Y200153D01*
X371228Y198683D01*
X373943Y195968D01*
X375413Y192420D01*
X375413Y188580D01*
X373943Y185032D01*
X371228Y182317D01*
X367680Y180847D01*
X363840Y180847D01*
G37*
%LPD*%
%LPC*%
G36*
X351197Y144288D02*
X351197Y144288D01*
X351173Y144321D01*
X351081Y144397D01*
X350994Y144479D01*
X350959Y144498D01*
X350928Y144524D01*
X350820Y144575D01*
X350716Y144632D01*
X350677Y144642D01*
X350640Y144659D01*
X350523Y144682D01*
X350408Y144712D01*
X350348Y144715D01*
X350328Y144719D01*
X350307Y144718D01*
X350247Y144722D01*
X342707Y144722D01*
X342773Y145056D01*
X343434Y146651D01*
X344393Y148087D01*
X345613Y149307D01*
X347049Y150266D01*
X348257Y150767D01*
X348378Y150836D01*
X348501Y150901D01*
X348516Y150914D01*
X348533Y150924D01*
X348633Y151021D01*
X348736Y151115D01*
X348747Y151132D01*
X348762Y151146D01*
X348834Y151264D01*
X348911Y151380D01*
X348917Y151399D01*
X348928Y151417D01*
X348969Y151550D01*
X349014Y151681D01*
X349016Y151701D01*
X349022Y151721D01*
X349028Y151860D01*
X349039Y151998D01*
X349036Y152018D01*
X349037Y152038D01*
X349009Y152175D01*
X348985Y152312D01*
X348977Y152330D01*
X348973Y152350D01*
X348911Y152475D01*
X348854Y152602D01*
X348842Y152617D01*
X348833Y152636D01*
X348742Y152741D01*
X348656Y152850D01*
X348640Y152862D01*
X348626Y152878D01*
X348513Y152958D01*
X348402Y153041D01*
X348376Y153054D01*
X348366Y153061D01*
X348347Y153068D01*
X348257Y153112D01*
X346084Y154012D01*
X345067Y155029D01*
X344973Y155102D01*
X344884Y155181D01*
X344848Y155199D01*
X344816Y155224D01*
X344707Y155271D01*
X344601Y155325D01*
X344562Y155334D01*
X344524Y155350D01*
X344407Y155369D01*
X344291Y155395D01*
X344250Y155394D01*
X344210Y155400D01*
X344092Y155389D01*
X343973Y155385D01*
X343934Y155374D01*
X343894Y155370D01*
X343782Y155330D01*
X343667Y155297D01*
X343632Y155276D01*
X343594Y155263D01*
X343496Y155196D01*
X343393Y155135D01*
X343348Y155096D01*
X343331Y155084D01*
X343318Y155069D01*
X343272Y155029D01*
X342256Y154012D01*
X340202Y153161D01*
X337978Y153161D01*
X335924Y154012D01*
X334352Y155584D01*
X333501Y157638D01*
X333501Y159862D01*
X334352Y161916D01*
X335924Y163488D01*
X337978Y164339D01*
X340202Y164339D01*
X342256Y163488D01*
X343272Y162471D01*
X343366Y162398D01*
X343456Y162319D01*
X343492Y162301D01*
X343524Y162276D01*
X343633Y162229D01*
X343739Y162175D01*
X343778Y162166D01*
X343816Y162150D01*
X343933Y162131D01*
X344049Y162105D01*
X344090Y162106D01*
X344130Y162100D01*
X344248Y162111D01*
X344367Y162115D01*
X344406Y162126D01*
X344446Y162130D01*
X344559Y162170D01*
X344673Y162203D01*
X344707Y162224D01*
X344746Y162237D01*
X344844Y162304D01*
X344947Y162365D01*
X344992Y162405D01*
X345009Y162416D01*
X345022Y162431D01*
X345067Y162471D01*
X346084Y163488D01*
X348138Y164339D01*
X350362Y164339D01*
X352416Y163488D01*
X353988Y161916D01*
X354839Y159862D01*
X354839Y157638D01*
X353988Y155584D01*
X352416Y154012D01*
X351676Y153706D01*
X351615Y153671D01*
X351550Y153645D01*
X351478Y153593D01*
X351400Y153548D01*
X351350Y153500D01*
X351293Y153459D01*
X351236Y153389D01*
X351171Y153327D01*
X351135Y153267D01*
X351090Y153214D01*
X351052Y153132D01*
X351005Y153056D01*
X350984Y152989D01*
X350955Y152926D01*
X350938Y152838D01*
X350911Y152752D01*
X350908Y152682D01*
X350895Y152613D01*
X350900Y152524D01*
X350896Y152434D01*
X350910Y152366D01*
X350915Y152296D01*
X350942Y152211D01*
X350960Y152123D01*
X350991Y152060D01*
X351013Y151994D01*
X351061Y151918D01*
X351100Y151837D01*
X351145Y151784D01*
X351183Y151725D01*
X351248Y151663D01*
X351306Y151595D01*
X351363Y151555D01*
X351414Y151507D01*
X351493Y151463D01*
X351567Y151412D01*
X351632Y151387D01*
X351693Y151353D01*
X351780Y151331D01*
X351864Y151299D01*
X351925Y151292D01*
X351941Y151288D01*
X351964Y151283D01*
X352001Y151274D01*
X352017Y151273D01*
X353756Y150927D01*
X355351Y150266D01*
X356787Y149307D01*
X358007Y148087D01*
X358966Y146651D01*
X359627Y145056D01*
X359693Y144722D01*
X352153Y144722D01*
X352034Y144707D01*
X351916Y144699D01*
X351877Y144687D01*
X351837Y144682D01*
X351726Y144638D01*
X351613Y144601D01*
X351579Y144580D01*
X351541Y144565D01*
X351445Y144495D01*
X351345Y144431D01*
X351317Y144402D01*
X351284Y144378D01*
X351208Y144286D01*
X351204Y144282D01*
X351197Y144288D01*
G37*
%LPD*%
%LPC*%
G36*
X527257Y387736D02*
X527257Y387736D01*
X524036Y389070D01*
X521570Y391536D01*
X520236Y394757D01*
X520236Y398243D01*
X521570Y401464D01*
X524036Y403930D01*
X527257Y405264D01*
X530743Y405264D01*
X533964Y403930D01*
X536430Y401464D01*
X537764Y398243D01*
X537764Y394757D01*
X536430Y391536D01*
X533964Y389070D01*
X530743Y387736D01*
X527257Y387736D01*
G37*
%LPD*%
%LPC*%
G36*
X501857Y387736D02*
X501857Y387736D01*
X498636Y389070D01*
X496170Y391536D01*
X494836Y394757D01*
X494836Y398243D01*
X496170Y401464D01*
X498636Y403930D01*
X501857Y405264D01*
X505343Y405264D01*
X508564Y403930D01*
X511030Y401464D01*
X512364Y398243D01*
X512364Y394757D01*
X511030Y391536D01*
X508564Y389070D01*
X505343Y387736D01*
X501857Y387736D01*
G37*
%LPD*%
%LPC*%
G36*
X476457Y387736D02*
X476457Y387736D01*
X473236Y389070D01*
X470770Y391536D01*
X469436Y394757D01*
X469436Y398243D01*
X470770Y401464D01*
X473236Y403930D01*
X476457Y405264D01*
X479943Y405264D01*
X483164Y403930D01*
X485630Y401464D01*
X486964Y398243D01*
X486964Y394757D01*
X485630Y391536D01*
X483164Y389070D01*
X479943Y387736D01*
X476457Y387736D01*
G37*
%LPD*%
%LPC*%
G36*
X451057Y387736D02*
X451057Y387736D01*
X447836Y389070D01*
X445370Y391536D01*
X444036Y394757D01*
X444036Y398243D01*
X445370Y401464D01*
X447836Y403930D01*
X451057Y405264D01*
X454543Y405264D01*
X457764Y403930D01*
X460230Y401464D01*
X461564Y398243D01*
X461564Y394757D01*
X460230Y391536D01*
X457764Y389070D01*
X454543Y387736D01*
X451057Y387736D01*
G37*
%LPD*%
%LPC*%
G36*
X425657Y387736D02*
X425657Y387736D01*
X422436Y389070D01*
X419970Y391536D01*
X418636Y394757D01*
X418636Y398243D01*
X419970Y401464D01*
X422436Y403930D01*
X425657Y405264D01*
X429143Y405264D01*
X432364Y403930D01*
X434830Y401464D01*
X436164Y398243D01*
X436164Y394757D01*
X434830Y391536D01*
X432364Y389070D01*
X429143Y387736D01*
X425657Y387736D01*
G37*
%LPD*%
%LPC*%
G36*
X400257Y387736D02*
X400257Y387736D01*
X397036Y389070D01*
X394570Y391536D01*
X393236Y394757D01*
X393236Y398243D01*
X394570Y401464D01*
X397036Y403930D01*
X400257Y405264D01*
X403743Y405264D01*
X406964Y403930D01*
X409430Y401464D01*
X410764Y398243D01*
X410764Y394757D01*
X409430Y391536D01*
X406964Y389070D01*
X403743Y387736D01*
X400257Y387736D01*
G37*
%LPD*%
%LPC*%
G36*
X374857Y387736D02*
X374857Y387736D01*
X371636Y389070D01*
X369170Y391536D01*
X367836Y394757D01*
X367836Y398243D01*
X369170Y401464D01*
X371636Y403930D01*
X374857Y405264D01*
X378343Y405264D01*
X381564Y403930D01*
X384030Y401464D01*
X385364Y398243D01*
X385364Y394757D01*
X384030Y391536D01*
X381564Y389070D01*
X378343Y387736D01*
X374857Y387736D01*
G37*
%LPD*%
%LPC*%
G36*
X349457Y387736D02*
X349457Y387736D01*
X346236Y389070D01*
X343770Y391536D01*
X342436Y394757D01*
X342436Y398243D01*
X343770Y401464D01*
X346236Y403930D01*
X349457Y405264D01*
X352943Y405264D01*
X356164Y403930D01*
X358630Y401464D01*
X359964Y398243D01*
X359964Y394757D01*
X358630Y391536D01*
X356164Y389070D01*
X352943Y387736D01*
X349457Y387736D01*
G37*
%LPD*%
%LPC*%
G36*
X324057Y387736D02*
X324057Y387736D01*
X320836Y389070D01*
X318370Y391536D01*
X317036Y394757D01*
X317036Y398243D01*
X318370Y401464D01*
X320836Y403930D01*
X324057Y405264D01*
X327543Y405264D01*
X330764Y403930D01*
X333230Y401464D01*
X334564Y398243D01*
X334564Y394757D01*
X333230Y391536D01*
X330764Y389070D01*
X327543Y387736D01*
X324057Y387736D01*
G37*
%LPD*%
%LPC*%
G36*
X298657Y387736D02*
X298657Y387736D01*
X295436Y389070D01*
X292970Y391536D01*
X291636Y394757D01*
X291636Y398243D01*
X292970Y401464D01*
X295436Y403930D01*
X298657Y405264D01*
X302143Y405264D01*
X305364Y403930D01*
X307830Y401464D01*
X309164Y398243D01*
X309164Y394757D01*
X307830Y391536D01*
X305364Y389070D01*
X302143Y387736D01*
X298657Y387736D01*
G37*
%LPD*%
%LPC*%
G36*
X273257Y387736D02*
X273257Y387736D01*
X270036Y389070D01*
X267570Y391536D01*
X266236Y394757D01*
X266236Y398243D01*
X267570Y401464D01*
X270036Y403930D01*
X273257Y405264D01*
X276743Y405264D01*
X279964Y403930D01*
X282430Y401464D01*
X283764Y398243D01*
X283764Y394757D01*
X282430Y391536D01*
X279964Y389070D01*
X276743Y387736D01*
X273257Y387736D01*
G37*
%LPD*%
%LPC*%
G36*
X247857Y387736D02*
X247857Y387736D01*
X244636Y389070D01*
X242170Y391536D01*
X240836Y394757D01*
X240836Y398243D01*
X242170Y401464D01*
X244636Y403930D01*
X247857Y405264D01*
X251343Y405264D01*
X254564Y403930D01*
X257030Y401464D01*
X258364Y398243D01*
X258364Y394757D01*
X257030Y391536D01*
X254564Y389070D01*
X251343Y387736D01*
X247857Y387736D01*
G37*
%LPD*%
%LPC*%
G36*
X222457Y387736D02*
X222457Y387736D01*
X219236Y389070D01*
X216770Y391536D01*
X215436Y394757D01*
X215436Y398243D01*
X216770Y401464D01*
X219236Y403930D01*
X222457Y405264D01*
X225943Y405264D01*
X229164Y403930D01*
X231630Y401464D01*
X232964Y398243D01*
X232964Y394757D01*
X231630Y391536D01*
X229164Y389070D01*
X225943Y387736D01*
X222457Y387736D01*
G37*
%LPD*%
%LPC*%
G36*
X197057Y387736D02*
X197057Y387736D01*
X193836Y389070D01*
X191370Y391536D01*
X190036Y394757D01*
X190036Y398243D01*
X191370Y401464D01*
X193836Y403930D01*
X197057Y405264D01*
X200543Y405264D01*
X203764Y403930D01*
X206230Y401464D01*
X207564Y398243D01*
X207564Y394757D01*
X206230Y391536D01*
X203764Y389070D01*
X200543Y387736D01*
X197057Y387736D01*
G37*
%LPD*%
%LPC*%
G36*
X171657Y387736D02*
X171657Y387736D01*
X168436Y389070D01*
X165970Y391536D01*
X164636Y394757D01*
X164636Y398243D01*
X165970Y401464D01*
X168436Y403930D01*
X171657Y405264D01*
X175143Y405264D01*
X178364Y403930D01*
X180830Y401464D01*
X182164Y398243D01*
X182164Y394757D01*
X180830Y391536D01*
X178364Y389070D01*
X175143Y387736D01*
X171657Y387736D01*
G37*
%LPD*%
%LPC*%
G36*
X146257Y387736D02*
X146257Y387736D01*
X143036Y389070D01*
X140570Y391536D01*
X139236Y394757D01*
X139236Y398243D01*
X140570Y401464D01*
X143036Y403930D01*
X146257Y405264D01*
X149743Y405264D01*
X152964Y403930D01*
X155430Y401464D01*
X156764Y398243D01*
X156764Y394757D01*
X155430Y391536D01*
X152964Y389070D01*
X149743Y387736D01*
X146257Y387736D01*
G37*
%LPD*%
%LPC*%
G36*
X120857Y387736D02*
X120857Y387736D01*
X117636Y389070D01*
X115170Y391536D01*
X113836Y394757D01*
X113836Y398243D01*
X115170Y401464D01*
X117636Y403930D01*
X120857Y405264D01*
X124343Y405264D01*
X127564Y403930D01*
X130030Y401464D01*
X131364Y398243D01*
X131364Y394757D01*
X130030Y391536D01*
X127564Y389070D01*
X124343Y387736D01*
X120857Y387736D01*
G37*
%LPD*%
%LPC*%
G36*
X95457Y387736D02*
X95457Y387736D01*
X92236Y389070D01*
X89770Y391536D01*
X88436Y394757D01*
X88436Y398243D01*
X89770Y401464D01*
X92236Y403930D01*
X95457Y405264D01*
X98943Y405264D01*
X102164Y403930D01*
X104630Y401464D01*
X105964Y398243D01*
X105964Y394757D01*
X104630Y391536D01*
X102164Y389070D01*
X98943Y387736D01*
X95457Y387736D01*
G37*
%LPD*%
%LPC*%
G36*
X146257Y108336D02*
X146257Y108336D01*
X143036Y109670D01*
X140570Y112136D01*
X139236Y115357D01*
X139236Y118843D01*
X140570Y122064D01*
X143036Y124530D01*
X146257Y125864D01*
X149743Y125864D01*
X152964Y124530D01*
X155430Y122064D01*
X156764Y118843D01*
X156764Y115357D01*
X155430Y112136D01*
X152964Y109670D01*
X149743Y108336D01*
X146257Y108336D01*
G37*
%LPD*%
%LPC*%
G36*
X201457Y42036D02*
X201457Y42036D01*
X198236Y43370D01*
X195770Y45836D01*
X194436Y49057D01*
X194436Y52543D01*
X195770Y55764D01*
X198236Y58230D01*
X201457Y59564D01*
X204943Y59564D01*
X208164Y58230D01*
X210630Y55764D01*
X211964Y52543D01*
X211964Y49057D01*
X210630Y45836D01*
X208164Y43370D01*
X204943Y42036D01*
X201457Y42036D01*
G37*
%LPD*%
%LPC*%
G36*
X176057Y42036D02*
X176057Y42036D01*
X172836Y43370D01*
X170370Y45836D01*
X169036Y49057D01*
X169036Y52543D01*
X170370Y55764D01*
X172836Y58230D01*
X176057Y59564D01*
X179543Y59564D01*
X182764Y58230D01*
X185230Y55764D01*
X186564Y52543D01*
X186564Y49057D01*
X185230Y45836D01*
X182764Y43370D01*
X179543Y42036D01*
X176057Y42036D01*
G37*
%LPD*%
%LPC*%
G36*
X120857Y362336D02*
X120857Y362336D01*
X117636Y363670D01*
X115170Y366136D01*
X113836Y369357D01*
X113836Y372843D01*
X115170Y376064D01*
X117636Y378530D01*
X120857Y379864D01*
X124343Y379864D01*
X127564Y378530D01*
X130030Y376064D01*
X131364Y372843D01*
X131364Y369357D01*
X130030Y366136D01*
X127564Y363670D01*
X124343Y362336D01*
X120857Y362336D01*
G37*
%LPD*%
%LPC*%
G36*
X95457Y362336D02*
X95457Y362336D01*
X92236Y363670D01*
X89770Y366136D01*
X88436Y369357D01*
X88436Y372843D01*
X89770Y376064D01*
X92236Y378530D01*
X95457Y379864D01*
X98943Y379864D01*
X102164Y378530D01*
X104630Y376064D01*
X105964Y372843D01*
X105964Y369357D01*
X104630Y366136D01*
X102164Y363670D01*
X98943Y362336D01*
X95457Y362336D01*
G37*
%LPD*%
%LPC*%
G36*
X527257Y362336D02*
X527257Y362336D01*
X524036Y363670D01*
X521570Y366136D01*
X520236Y369357D01*
X520236Y372843D01*
X521570Y376064D01*
X524036Y378530D01*
X527257Y379864D01*
X530743Y379864D01*
X533964Y378530D01*
X536430Y376064D01*
X537764Y372843D01*
X537764Y369357D01*
X536430Y366136D01*
X533964Y363670D01*
X530743Y362336D01*
X527257Y362336D01*
G37*
%LPD*%
%LPC*%
G36*
X501857Y362336D02*
X501857Y362336D01*
X498636Y363670D01*
X496170Y366136D01*
X494836Y369357D01*
X494836Y372843D01*
X496170Y376064D01*
X498636Y378530D01*
X501857Y379864D01*
X505343Y379864D01*
X508564Y378530D01*
X511030Y376064D01*
X512364Y372843D01*
X512364Y369357D01*
X511030Y366136D01*
X508564Y363670D01*
X505343Y362336D01*
X501857Y362336D01*
G37*
%LPD*%
%LPC*%
G36*
X476457Y362336D02*
X476457Y362336D01*
X473236Y363670D01*
X470770Y366136D01*
X469436Y369357D01*
X469436Y372843D01*
X470770Y376064D01*
X473236Y378530D01*
X476457Y379864D01*
X479943Y379864D01*
X483164Y378530D01*
X485630Y376064D01*
X486964Y372843D01*
X486964Y369357D01*
X485630Y366136D01*
X483164Y363670D01*
X479943Y362336D01*
X476457Y362336D01*
G37*
%LPD*%
%LPC*%
G36*
X451057Y362336D02*
X451057Y362336D01*
X447836Y363670D01*
X445370Y366136D01*
X444036Y369357D01*
X444036Y372843D01*
X445370Y376064D01*
X447836Y378530D01*
X451057Y379864D01*
X454543Y379864D01*
X457764Y378530D01*
X460230Y376064D01*
X461564Y372843D01*
X461564Y369357D01*
X460230Y366136D01*
X457764Y363670D01*
X454543Y362336D01*
X451057Y362336D01*
G37*
%LPD*%
%LPC*%
G36*
X425657Y362336D02*
X425657Y362336D01*
X422436Y363670D01*
X419970Y366136D01*
X418636Y369357D01*
X418636Y372843D01*
X419970Y376064D01*
X422436Y378530D01*
X425657Y379864D01*
X429143Y379864D01*
X432364Y378530D01*
X434830Y376064D01*
X436164Y372843D01*
X436164Y369357D01*
X434830Y366136D01*
X432364Y363670D01*
X429143Y362336D01*
X425657Y362336D01*
G37*
%LPD*%
%LPC*%
G36*
X400257Y362336D02*
X400257Y362336D01*
X397036Y363670D01*
X394570Y366136D01*
X393236Y369357D01*
X393236Y372843D01*
X394570Y376064D01*
X397036Y378530D01*
X400257Y379864D01*
X403743Y379864D01*
X406964Y378530D01*
X409430Y376064D01*
X410764Y372843D01*
X410764Y369357D01*
X409430Y366136D01*
X406964Y363670D01*
X403743Y362336D01*
X400257Y362336D01*
G37*
%LPD*%
%LPC*%
G36*
X374857Y362336D02*
X374857Y362336D01*
X371636Y363670D01*
X369170Y366136D01*
X367836Y369357D01*
X367836Y372843D01*
X369170Y376064D01*
X371636Y378530D01*
X374857Y379864D01*
X378343Y379864D01*
X381564Y378530D01*
X384030Y376064D01*
X385364Y372843D01*
X385364Y369357D01*
X384030Y366136D01*
X381564Y363670D01*
X378343Y362336D01*
X374857Y362336D01*
G37*
%LPD*%
%LPC*%
G36*
X324057Y362336D02*
X324057Y362336D01*
X320836Y363670D01*
X318370Y366136D01*
X317036Y369357D01*
X317036Y372843D01*
X318370Y376064D01*
X320836Y378530D01*
X324057Y379864D01*
X327543Y379864D01*
X330764Y378530D01*
X333230Y376064D01*
X334564Y372843D01*
X334564Y369357D01*
X333230Y366136D01*
X330764Y363670D01*
X327543Y362336D01*
X324057Y362336D01*
G37*
%LPD*%
%LPC*%
G36*
X298657Y362336D02*
X298657Y362336D01*
X295436Y363670D01*
X292970Y366136D01*
X291636Y369357D01*
X291636Y372843D01*
X292970Y376064D01*
X295436Y378530D01*
X298657Y379864D01*
X302143Y379864D01*
X305364Y378530D01*
X307830Y376064D01*
X309164Y372843D01*
X309164Y369357D01*
X307830Y366136D01*
X305364Y363670D01*
X302143Y362336D01*
X298657Y362336D01*
G37*
%LPD*%
%LPC*%
G36*
X247857Y362336D02*
X247857Y362336D01*
X244636Y363670D01*
X242170Y366136D01*
X240836Y369357D01*
X240836Y372843D01*
X242170Y376064D01*
X244636Y378530D01*
X247857Y379864D01*
X251343Y379864D01*
X254564Y378530D01*
X257030Y376064D01*
X258364Y372843D01*
X258364Y369357D01*
X257030Y366136D01*
X254564Y363670D01*
X251343Y362336D01*
X247857Y362336D01*
G37*
%LPD*%
%LPC*%
G36*
X222457Y362336D02*
X222457Y362336D01*
X219236Y363670D01*
X216770Y366136D01*
X215436Y369357D01*
X215436Y372843D01*
X216770Y376064D01*
X219236Y378530D01*
X222457Y379864D01*
X225943Y379864D01*
X229164Y378530D01*
X231630Y376064D01*
X232964Y372843D01*
X232964Y369357D01*
X231630Y366136D01*
X229164Y363670D01*
X225943Y362336D01*
X222457Y362336D01*
G37*
%LPD*%
%LPC*%
G36*
X197057Y362336D02*
X197057Y362336D01*
X193836Y363670D01*
X191370Y366136D01*
X190036Y369357D01*
X190036Y372843D01*
X191370Y376064D01*
X193836Y378530D01*
X197057Y379864D01*
X200543Y379864D01*
X203764Y378530D01*
X206230Y376064D01*
X207564Y372843D01*
X207564Y369357D01*
X206230Y366136D01*
X203764Y363670D01*
X200543Y362336D01*
X197057Y362336D01*
G37*
%LPD*%
%LPC*%
G36*
X171657Y362336D02*
X171657Y362336D01*
X168436Y363670D01*
X165970Y366136D01*
X164636Y369357D01*
X164636Y372843D01*
X165970Y376064D01*
X168436Y378530D01*
X171657Y379864D01*
X175143Y379864D01*
X178364Y378530D01*
X180830Y376064D01*
X182164Y372843D01*
X182164Y369357D01*
X180830Y366136D01*
X178364Y363670D01*
X175143Y362336D01*
X171657Y362336D01*
G37*
%LPD*%
%LPC*%
G36*
X146257Y362336D02*
X146257Y362336D01*
X143036Y363670D01*
X140570Y366136D01*
X139236Y369357D01*
X139236Y372843D01*
X140570Y376064D01*
X143036Y378530D01*
X146257Y379864D01*
X149743Y379864D01*
X152964Y378530D01*
X155430Y376064D01*
X156764Y372843D01*
X156764Y369357D01*
X155430Y366136D01*
X152964Y363670D01*
X149743Y362336D01*
X146257Y362336D01*
G37*
%LPD*%
%LPC*%
G36*
X476457Y133736D02*
X476457Y133736D01*
X473236Y135070D01*
X470770Y137536D01*
X469436Y140757D01*
X469436Y144243D01*
X470770Y147464D01*
X473236Y149930D01*
X476457Y151264D01*
X479943Y151264D01*
X483164Y149930D01*
X485630Y147464D01*
X486964Y144243D01*
X486964Y140757D01*
X485630Y137536D01*
X483164Y135070D01*
X479943Y133736D01*
X476457Y133736D01*
G37*
%LPD*%
%LPC*%
G36*
X527257Y133736D02*
X527257Y133736D01*
X524036Y135070D01*
X521570Y137536D01*
X520236Y140757D01*
X520236Y144243D01*
X521570Y147464D01*
X524036Y149930D01*
X527257Y151264D01*
X530743Y151264D01*
X533964Y149930D01*
X536430Y147464D01*
X537764Y144243D01*
X537764Y140757D01*
X536430Y137536D01*
X533964Y135070D01*
X530743Y133736D01*
X527257Y133736D01*
G37*
%LPD*%
%LPC*%
G36*
X501857Y133736D02*
X501857Y133736D01*
X498636Y135070D01*
X496170Y137536D01*
X494836Y140757D01*
X494836Y144243D01*
X496170Y147464D01*
X498636Y149930D01*
X501857Y151264D01*
X505343Y151264D01*
X508564Y149930D01*
X511030Y147464D01*
X512364Y144243D01*
X512364Y140757D01*
X511030Y137536D01*
X508564Y135070D01*
X505343Y133736D01*
X501857Y133736D01*
G37*
%LPD*%
%LPC*%
G36*
X451057Y133736D02*
X451057Y133736D01*
X447836Y135070D01*
X445370Y137536D01*
X444036Y140757D01*
X444036Y144243D01*
X445370Y147464D01*
X447836Y149930D01*
X451057Y151264D01*
X454543Y151264D01*
X457764Y149930D01*
X460230Y147464D01*
X461564Y144243D01*
X461564Y140757D01*
X460230Y137536D01*
X457764Y135070D01*
X454543Y133736D01*
X451057Y133736D01*
G37*
%LPD*%
%LPC*%
G36*
X425657Y133736D02*
X425657Y133736D01*
X422436Y135070D01*
X419970Y137536D01*
X418636Y140757D01*
X418636Y144243D01*
X419970Y147464D01*
X422436Y149930D01*
X425657Y151264D01*
X429143Y151264D01*
X432364Y149930D01*
X434830Y147464D01*
X436164Y144243D01*
X436164Y140757D01*
X434830Y137536D01*
X432364Y135070D01*
X429143Y133736D01*
X425657Y133736D01*
G37*
%LPD*%
%LPC*%
G36*
X400257Y133736D02*
X400257Y133736D01*
X397036Y135070D01*
X394570Y137536D01*
X393236Y140757D01*
X393236Y144243D01*
X394570Y147464D01*
X397036Y149930D01*
X400257Y151264D01*
X403743Y151264D01*
X406964Y149930D01*
X409430Y147464D01*
X410764Y144243D01*
X410764Y140757D01*
X409430Y137536D01*
X406964Y135070D01*
X403743Y133736D01*
X400257Y133736D01*
G37*
%LPD*%
%LPC*%
G36*
X374857Y133736D02*
X374857Y133736D01*
X371636Y135070D01*
X369170Y137536D01*
X367836Y140757D01*
X367836Y144243D01*
X369170Y147464D01*
X371636Y149930D01*
X374857Y151264D01*
X378343Y151264D01*
X381564Y149930D01*
X384030Y147464D01*
X385364Y144243D01*
X385364Y140757D01*
X384030Y137536D01*
X381564Y135070D01*
X378343Y133736D01*
X374857Y133736D01*
G37*
%LPD*%
%LPC*%
G36*
X324057Y133736D02*
X324057Y133736D01*
X320836Y135070D01*
X318370Y137536D01*
X317036Y140757D01*
X317036Y144243D01*
X318370Y147464D01*
X320836Y149930D01*
X324057Y151264D01*
X327543Y151264D01*
X330764Y149930D01*
X333230Y147464D01*
X334564Y144243D01*
X334564Y140757D01*
X333230Y137536D01*
X330764Y135070D01*
X327543Y133736D01*
X324057Y133736D01*
G37*
%LPD*%
%LPC*%
G36*
X298657Y133736D02*
X298657Y133736D01*
X295436Y135070D01*
X292970Y137536D01*
X291636Y140757D01*
X291636Y144243D01*
X292970Y147464D01*
X295436Y149930D01*
X298657Y151264D01*
X302143Y151264D01*
X305364Y149930D01*
X307830Y147464D01*
X309164Y144243D01*
X309164Y140757D01*
X307830Y137536D01*
X305364Y135070D01*
X302143Y133736D01*
X298657Y133736D01*
G37*
%LPD*%
%LPC*%
G36*
X247857Y133736D02*
X247857Y133736D01*
X244636Y135070D01*
X242170Y137536D01*
X240836Y140757D01*
X240836Y144243D01*
X242170Y147464D01*
X244636Y149930D01*
X247857Y151264D01*
X251343Y151264D01*
X254564Y149930D01*
X257030Y147464D01*
X258364Y144243D01*
X258364Y140757D01*
X257030Y137536D01*
X254564Y135070D01*
X251343Y133736D01*
X247857Y133736D01*
G37*
%LPD*%
%LPC*%
G36*
X222457Y133736D02*
X222457Y133736D01*
X219236Y135070D01*
X216770Y137536D01*
X215436Y140757D01*
X215436Y144243D01*
X216770Y147464D01*
X219236Y149930D01*
X222457Y151264D01*
X225943Y151264D01*
X229164Y149930D01*
X231630Y147464D01*
X232964Y144243D01*
X232964Y140757D01*
X231630Y137536D01*
X229164Y135070D01*
X225943Y133736D01*
X222457Y133736D01*
G37*
%LPD*%
%LPC*%
G36*
X197057Y133736D02*
X197057Y133736D01*
X193836Y135070D01*
X191370Y137536D01*
X190036Y140757D01*
X190036Y144243D01*
X191370Y147464D01*
X193836Y149930D01*
X197057Y151264D01*
X200543Y151264D01*
X203764Y149930D01*
X206230Y147464D01*
X207564Y144243D01*
X207564Y140757D01*
X206230Y137536D01*
X203764Y135070D01*
X200543Y133736D01*
X197057Y133736D01*
G37*
%LPD*%
%LPC*%
G36*
X171657Y133736D02*
X171657Y133736D01*
X168436Y135070D01*
X165970Y137536D01*
X164636Y140757D01*
X164636Y144243D01*
X165970Y147464D01*
X168436Y149930D01*
X171657Y151264D01*
X175143Y151264D01*
X178364Y149930D01*
X180830Y147464D01*
X182164Y144243D01*
X182164Y140757D01*
X180830Y137536D01*
X178364Y135070D01*
X175143Y133736D01*
X171657Y133736D01*
G37*
%LPD*%
%LPC*%
G36*
X146257Y133736D02*
X146257Y133736D01*
X143036Y135070D01*
X140570Y137536D01*
X139236Y140757D01*
X139236Y144243D01*
X140570Y147464D01*
X143036Y149930D01*
X146257Y151264D01*
X149743Y151264D01*
X152964Y149930D01*
X155430Y147464D01*
X156764Y144243D01*
X156764Y140757D01*
X155430Y137536D01*
X152964Y135070D01*
X149743Y133736D01*
X146257Y133736D01*
G37*
%LPD*%
%LPC*%
G36*
X120857Y133736D02*
X120857Y133736D01*
X117636Y135070D01*
X115170Y137536D01*
X113836Y140757D01*
X113836Y144243D01*
X115170Y147464D01*
X117636Y149930D01*
X120857Y151264D01*
X124343Y151264D01*
X127564Y149930D01*
X130030Y147464D01*
X131364Y144243D01*
X131364Y140757D01*
X130030Y137536D01*
X127564Y135070D01*
X124343Y133736D01*
X120857Y133736D01*
G37*
%LPD*%
%LPC*%
G36*
X95457Y133736D02*
X95457Y133736D01*
X92236Y135070D01*
X89770Y137536D01*
X88436Y140757D01*
X88436Y144243D01*
X89770Y147464D01*
X92236Y149930D01*
X95457Y151264D01*
X98943Y151264D01*
X102164Y149930D01*
X104630Y147464D01*
X105964Y144243D01*
X105964Y140757D01*
X104630Y137536D01*
X102164Y135070D01*
X98943Y133736D01*
X95457Y133736D01*
G37*
%LPD*%
%LPC*%
G36*
X197057Y108336D02*
X197057Y108336D01*
X193836Y109670D01*
X191370Y112136D01*
X190036Y115357D01*
X190036Y118843D01*
X191370Y122064D01*
X193836Y124530D01*
X197057Y125864D01*
X200543Y125864D01*
X203764Y124530D01*
X206230Y122064D01*
X207564Y118843D01*
X207564Y115357D01*
X206230Y112136D01*
X203764Y109670D01*
X200543Y108336D01*
X197057Y108336D01*
G37*
%LPD*%
%LPC*%
G36*
X120857Y108336D02*
X120857Y108336D01*
X117636Y109670D01*
X115170Y112136D01*
X113836Y115357D01*
X113836Y118843D01*
X115170Y122064D01*
X117636Y124530D01*
X120857Y125864D01*
X124343Y125864D01*
X127564Y124530D01*
X130030Y122064D01*
X131364Y118843D01*
X131364Y115357D01*
X130030Y112136D01*
X127564Y109670D01*
X124343Y108336D01*
X120857Y108336D01*
G37*
%LPD*%
%LPC*%
G36*
X95457Y108336D02*
X95457Y108336D01*
X92236Y109670D01*
X89770Y112136D01*
X88436Y115357D01*
X88436Y118843D01*
X89770Y122064D01*
X92236Y124530D01*
X95457Y125864D01*
X98943Y125864D01*
X102164Y124530D01*
X104630Y122064D01*
X105964Y118843D01*
X105964Y115357D01*
X104630Y112136D01*
X102164Y109670D01*
X98943Y108336D01*
X95457Y108336D01*
G37*
%LPD*%
%LPC*%
G36*
X527257Y108336D02*
X527257Y108336D01*
X524036Y109670D01*
X521570Y112136D01*
X520236Y115357D01*
X520236Y118843D01*
X521570Y122064D01*
X524036Y124530D01*
X527257Y125864D01*
X530743Y125864D01*
X533964Y124530D01*
X536430Y122064D01*
X537764Y118843D01*
X537764Y115357D01*
X536430Y112136D01*
X533964Y109670D01*
X530743Y108336D01*
X527257Y108336D01*
G37*
%LPD*%
%LPC*%
G36*
X501857Y108336D02*
X501857Y108336D01*
X498636Y109670D01*
X496170Y112136D01*
X494836Y115357D01*
X494836Y118843D01*
X496170Y122064D01*
X498636Y124530D01*
X501857Y125864D01*
X505343Y125864D01*
X508564Y124530D01*
X511030Y122064D01*
X512364Y118843D01*
X512364Y115357D01*
X511030Y112136D01*
X508564Y109670D01*
X505343Y108336D01*
X501857Y108336D01*
G37*
%LPD*%
%LPC*%
G36*
X476457Y108336D02*
X476457Y108336D01*
X473236Y109670D01*
X470770Y112136D01*
X469436Y115357D01*
X469436Y118843D01*
X470770Y122064D01*
X473236Y124530D01*
X476457Y125864D01*
X479943Y125864D01*
X483164Y124530D01*
X485630Y122064D01*
X486964Y118843D01*
X486964Y115357D01*
X485630Y112136D01*
X483164Y109670D01*
X479943Y108336D01*
X476457Y108336D01*
G37*
%LPD*%
%LPC*%
G36*
X451057Y108336D02*
X451057Y108336D01*
X447836Y109670D01*
X445370Y112136D01*
X444036Y115357D01*
X444036Y118843D01*
X445370Y122064D01*
X447836Y124530D01*
X451057Y125864D01*
X454543Y125864D01*
X457764Y124530D01*
X460230Y122064D01*
X461564Y118843D01*
X461564Y115357D01*
X460230Y112136D01*
X457764Y109670D01*
X454543Y108336D01*
X451057Y108336D01*
G37*
%LPD*%
%LPC*%
G36*
X425657Y108336D02*
X425657Y108336D01*
X422436Y109670D01*
X419970Y112136D01*
X418636Y115357D01*
X418636Y118843D01*
X419970Y122064D01*
X422436Y124530D01*
X425657Y125864D01*
X429143Y125864D01*
X432364Y124530D01*
X434830Y122064D01*
X436164Y118843D01*
X436164Y115357D01*
X434830Y112136D01*
X432364Y109670D01*
X429143Y108336D01*
X425657Y108336D01*
G37*
%LPD*%
%LPC*%
G36*
X400257Y108336D02*
X400257Y108336D01*
X397036Y109670D01*
X394570Y112136D01*
X393236Y115357D01*
X393236Y118843D01*
X394570Y122064D01*
X397036Y124530D01*
X400257Y125864D01*
X403743Y125864D01*
X406964Y124530D01*
X409430Y122064D01*
X410764Y118843D01*
X410764Y115357D01*
X409430Y112136D01*
X406964Y109670D01*
X403743Y108336D01*
X400257Y108336D01*
G37*
%LPD*%
%LPC*%
G36*
X374857Y108336D02*
X374857Y108336D01*
X371636Y109670D01*
X369170Y112136D01*
X367836Y115357D01*
X367836Y118843D01*
X369170Y122064D01*
X371636Y124530D01*
X374857Y125864D01*
X378343Y125864D01*
X381564Y124530D01*
X384030Y122064D01*
X385364Y118843D01*
X385364Y115357D01*
X384030Y112136D01*
X381564Y109670D01*
X378343Y108336D01*
X374857Y108336D01*
G37*
%LPD*%
%LPC*%
G36*
X349457Y108336D02*
X349457Y108336D01*
X346236Y109670D01*
X343770Y112136D01*
X342436Y115357D01*
X342436Y118843D01*
X343770Y122064D01*
X346236Y124530D01*
X349457Y125864D01*
X352943Y125864D01*
X356164Y124530D01*
X358630Y122064D01*
X359964Y118843D01*
X359964Y115357D01*
X358630Y112136D01*
X356164Y109670D01*
X352943Y108336D01*
X349457Y108336D01*
G37*
%LPD*%
%LPC*%
G36*
X324057Y108336D02*
X324057Y108336D01*
X320836Y109670D01*
X318370Y112136D01*
X317036Y115357D01*
X317036Y118843D01*
X318370Y122064D01*
X320836Y124530D01*
X324057Y125864D01*
X327543Y125864D01*
X330764Y124530D01*
X333230Y122064D01*
X334564Y118843D01*
X334564Y115357D01*
X333230Y112136D01*
X330764Y109670D01*
X327543Y108336D01*
X324057Y108336D01*
G37*
%LPD*%
%LPC*%
G36*
X298657Y108336D02*
X298657Y108336D01*
X295436Y109670D01*
X292970Y112136D01*
X291636Y115357D01*
X291636Y118843D01*
X292970Y122064D01*
X295436Y124530D01*
X298657Y125864D01*
X302143Y125864D01*
X305364Y124530D01*
X307830Y122064D01*
X309164Y118843D01*
X309164Y115357D01*
X307830Y112136D01*
X305364Y109670D01*
X302143Y108336D01*
X298657Y108336D01*
G37*
%LPD*%
%LPC*%
G36*
X273257Y108336D02*
X273257Y108336D01*
X270036Y109670D01*
X267570Y112136D01*
X266236Y115357D01*
X266236Y118843D01*
X267570Y122064D01*
X270036Y124530D01*
X273257Y125864D01*
X276743Y125864D01*
X279964Y124530D01*
X282430Y122064D01*
X283764Y118843D01*
X283764Y115357D01*
X282430Y112136D01*
X279964Y109670D01*
X276743Y108336D01*
X273257Y108336D01*
G37*
%LPD*%
%LPC*%
G36*
X247857Y108336D02*
X247857Y108336D01*
X244636Y109670D01*
X242170Y112136D01*
X240836Y115357D01*
X240836Y118843D01*
X242170Y122064D01*
X244636Y124530D01*
X247857Y125864D01*
X251343Y125864D01*
X254564Y124530D01*
X257030Y122064D01*
X258364Y118843D01*
X258364Y115357D01*
X257030Y112136D01*
X254564Y109670D01*
X251343Y108336D01*
X247857Y108336D01*
G37*
%LPD*%
%LPC*%
G36*
X222457Y108336D02*
X222457Y108336D01*
X219236Y109670D01*
X216770Y112136D01*
X215436Y115357D01*
X215436Y118843D01*
X216770Y122064D01*
X219236Y124530D01*
X222457Y125864D01*
X225943Y125864D01*
X229164Y124530D01*
X231630Y122064D01*
X232964Y118843D01*
X232964Y115357D01*
X231630Y112136D01*
X229164Y109670D01*
X225943Y108336D01*
X222457Y108336D01*
G37*
%LPD*%
%LPC*%
G36*
X171657Y108336D02*
X171657Y108336D01*
X168436Y109670D01*
X165970Y112136D01*
X164636Y115357D01*
X164636Y118843D01*
X165970Y122064D01*
X168436Y124530D01*
X171657Y125864D01*
X175143Y125864D01*
X178364Y124530D01*
X180830Y122064D01*
X182164Y118843D01*
X182164Y115357D01*
X180830Y112136D01*
X178364Y109670D01*
X175143Y108336D01*
X171657Y108336D01*
G37*
%LPD*%
%LPC*%
G36*
X703738Y146811D02*
X703738Y146811D01*
X701684Y147662D01*
X700112Y149234D01*
X699261Y151288D01*
X699261Y153512D01*
X700112Y155566D01*
X701684Y157138D01*
X703738Y157989D01*
X705962Y157989D01*
X708016Y157138D01*
X709588Y155566D01*
X710439Y153512D01*
X710439Y151288D01*
X709588Y149234D01*
X708016Y147662D01*
X705962Y146811D01*
X703738Y146811D01*
G37*
%LPD*%
%LPC*%
G36*
X652938Y146811D02*
X652938Y146811D01*
X650884Y147662D01*
X649312Y149234D01*
X648461Y151288D01*
X648461Y153512D01*
X649312Y155566D01*
X650884Y157138D01*
X652938Y157989D01*
X655162Y157989D01*
X657216Y157138D01*
X658788Y155566D01*
X659639Y153512D01*
X659639Y151288D01*
X658788Y149234D01*
X657216Y147662D01*
X655162Y146811D01*
X652938Y146811D01*
G37*
%LPD*%
%LPC*%
G36*
X678338Y45211D02*
X678338Y45211D01*
X676284Y46062D01*
X674712Y47634D01*
X673861Y49688D01*
X673861Y51912D01*
X674712Y53966D01*
X676284Y55538D01*
X678338Y56389D01*
X680562Y56389D01*
X682616Y55538D01*
X684188Y53966D01*
X685039Y51912D01*
X685039Y49688D01*
X684188Y47634D01*
X682616Y46062D01*
X680562Y45211D01*
X678338Y45211D01*
G37*
%LPD*%
%LPC*%
G36*
X624839Y396239D02*
X624839Y396239D01*
X624839Y403772D01*
X626278Y403305D01*
X627732Y402564D01*
X629052Y401605D01*
X630205Y400452D01*
X631164Y399132D01*
X631905Y397678D01*
X632372Y396239D01*
X624839Y396239D01*
G37*
%LPD*%
%LPC*%
G36*
X612228Y396239D02*
X612228Y396239D01*
X612695Y397678D01*
X613436Y399132D01*
X614395Y400452D01*
X615548Y401605D01*
X616868Y402564D01*
X618322Y403305D01*
X619761Y403772D01*
X619761Y396239D01*
X612228Y396239D01*
G37*
%LPD*%
%LPC*%
G36*
X624839Y391161D02*
X624839Y391161D01*
X632372Y391161D01*
X631905Y389722D01*
X631164Y388268D01*
X630205Y386948D01*
X629052Y385795D01*
X627732Y384836D01*
X626278Y384095D01*
X624839Y383628D01*
X624839Y391161D01*
G37*
%LPD*%
%LPC*%
G36*
X618322Y384095D02*
X618322Y384095D01*
X616868Y384836D01*
X615548Y385795D01*
X614395Y386948D01*
X613436Y388268D01*
X612695Y389722D01*
X612228Y391161D01*
X619761Y391161D01*
X619761Y383628D01*
X618322Y384095D01*
G37*
%LPD*%
%LPC*%
G36*
X393699Y193039D02*
X393699Y193039D01*
X393699Y199824D01*
X394865Y199446D01*
X396219Y198756D01*
X397448Y197863D01*
X398523Y196788D01*
X399416Y195559D01*
X400106Y194205D01*
X400484Y193039D01*
X393699Y193039D01*
G37*
%LPD*%
%LPC*%
G36*
X381836Y193039D02*
X381836Y193039D01*
X382214Y194205D01*
X382904Y195559D01*
X383797Y196788D01*
X384872Y197863D01*
X386101Y198756D01*
X387455Y199446D01*
X388621Y199824D01*
X388621Y193039D01*
X381836Y193039D01*
G37*
%LPD*%
%LPC*%
G36*
X393699Y187961D02*
X393699Y187961D01*
X400484Y187961D01*
X400106Y186795D01*
X399416Y185441D01*
X398523Y184212D01*
X397448Y183137D01*
X396219Y182244D01*
X394865Y181554D01*
X393699Y181176D01*
X393699Y187961D01*
G37*
%LPD*%
%LPC*%
G36*
X387455Y181554D02*
X387455Y181554D01*
X386101Y182244D01*
X384872Y183137D01*
X383797Y184212D01*
X382904Y185441D01*
X382214Y186795D01*
X381836Y187961D01*
X388621Y187961D01*
X388621Y181176D01*
X387455Y181554D01*
G37*
%LPD*%
%LPC*%
G36*
X230822Y53022D02*
X230822Y53022D01*
X230822Y59293D01*
X231156Y59227D01*
X232751Y58566D01*
X234187Y57607D01*
X235407Y56387D01*
X236366Y54951D01*
X237027Y53356D01*
X237093Y53022D01*
X230822Y53022D01*
G37*
%LPD*%
%LPC*%
G36*
X353422Y373322D02*
X353422Y373322D01*
X353422Y379593D01*
X353756Y379527D01*
X355351Y378866D01*
X356787Y377907D01*
X358007Y376687D01*
X358966Y375251D01*
X359627Y373656D01*
X359693Y373322D01*
X353422Y373322D01*
G37*
%LPD*%
%LPC*%
G36*
X277222Y144722D02*
X277222Y144722D01*
X277222Y150993D01*
X277556Y150927D01*
X279151Y150266D01*
X280587Y149307D01*
X281807Y148087D01*
X282766Y146651D01*
X283427Y145056D01*
X283493Y144722D01*
X277222Y144722D01*
G37*
%LPD*%
%LPC*%
G36*
X277222Y373322D02*
X277222Y373322D01*
X277222Y379593D01*
X277556Y379527D01*
X279151Y378866D01*
X280587Y377907D01*
X281807Y376687D01*
X282766Y375251D01*
X283427Y373656D01*
X283493Y373322D01*
X277222Y373322D01*
G37*
%LPD*%
%LPC*%
G36*
X342707Y373322D02*
X342707Y373322D01*
X342773Y373656D01*
X343434Y375251D01*
X344393Y376687D01*
X345613Y377907D01*
X347049Y378866D01*
X348644Y379527D01*
X348978Y379593D01*
X348978Y373322D01*
X342707Y373322D01*
G37*
%LPD*%
%LPC*%
G36*
X266507Y373322D02*
X266507Y373322D01*
X266573Y373656D01*
X267234Y375251D01*
X268193Y376687D01*
X269413Y377907D01*
X270849Y378866D01*
X272444Y379527D01*
X272778Y379593D01*
X272778Y373322D01*
X266507Y373322D01*
G37*
%LPD*%
%LPC*%
G36*
X266507Y144722D02*
X266507Y144722D01*
X266573Y145056D01*
X267234Y146651D01*
X268193Y148087D01*
X269413Y149307D01*
X270849Y150266D01*
X272444Y150927D01*
X272778Y150993D01*
X272778Y144722D01*
X266507Y144722D01*
G37*
%LPD*%
%LPC*%
G36*
X353422Y140278D02*
X353422Y140278D01*
X359693Y140278D01*
X359627Y139944D01*
X358966Y138349D01*
X358007Y136913D01*
X356787Y135693D01*
X355351Y134734D01*
X353756Y134073D01*
X353422Y134007D01*
X353422Y140278D01*
G37*
%LPD*%
%LPC*%
G36*
X353422Y368878D02*
X353422Y368878D01*
X359693Y368878D01*
X359627Y368544D01*
X358966Y366949D01*
X358007Y365513D01*
X356787Y364293D01*
X355351Y363334D01*
X353756Y362673D01*
X353422Y362607D01*
X353422Y368878D01*
G37*
%LPD*%
%LPC*%
G36*
X220107Y53022D02*
X220107Y53022D01*
X220173Y53356D01*
X220834Y54951D01*
X221793Y56387D01*
X223013Y57607D01*
X224449Y58566D01*
X226044Y59227D01*
X226378Y59293D01*
X226378Y53022D01*
X220107Y53022D01*
G37*
%LPD*%
%LPC*%
G36*
X277222Y140278D02*
X277222Y140278D01*
X283493Y140278D01*
X283427Y139944D01*
X282766Y138349D01*
X281807Y136913D01*
X280587Y135693D01*
X279151Y134734D01*
X277556Y134073D01*
X277222Y134007D01*
X277222Y140278D01*
G37*
%LPD*%
%LPC*%
G36*
X277222Y368878D02*
X277222Y368878D01*
X283493Y368878D01*
X283427Y368544D01*
X282766Y366949D01*
X281807Y365513D01*
X280587Y364293D01*
X279151Y363334D01*
X277556Y362673D01*
X277222Y362607D01*
X277222Y368878D01*
G37*
%LPD*%
%LPC*%
G36*
X230822Y48578D02*
X230822Y48578D01*
X237093Y48578D01*
X237027Y48244D01*
X236366Y46649D01*
X235407Y45213D01*
X234187Y43993D01*
X232751Y43034D01*
X231156Y42373D01*
X230822Y42307D01*
X230822Y48578D01*
G37*
%LPD*%
%LPC*%
G36*
X348644Y362673D02*
X348644Y362673D01*
X347049Y363334D01*
X345613Y364293D01*
X344393Y365513D01*
X343434Y366949D01*
X342773Y368544D01*
X342707Y368878D01*
X348978Y368878D01*
X348978Y362607D01*
X348644Y362673D01*
G37*
%LPD*%
%LPC*%
G36*
X272444Y134073D02*
X272444Y134073D01*
X270849Y134734D01*
X269413Y135693D01*
X268193Y136913D01*
X267234Y138349D01*
X266573Y139944D01*
X266507Y140278D01*
X272778Y140278D01*
X272778Y134007D01*
X272444Y134073D01*
G37*
%LPD*%
%LPC*%
G36*
X348644Y134073D02*
X348644Y134073D01*
X347049Y134734D01*
X345613Y135693D01*
X344393Y136913D01*
X343434Y138349D01*
X342773Y139944D01*
X342707Y140278D01*
X348978Y140278D01*
X348978Y134007D01*
X348644Y134073D01*
G37*
%LPD*%
%LPC*%
G36*
X272444Y362673D02*
X272444Y362673D01*
X270849Y363334D01*
X269413Y364293D01*
X268193Y365513D01*
X267234Y366949D01*
X266573Y368544D01*
X266507Y368878D01*
X272778Y368878D01*
X272778Y362607D01*
X272444Y362673D01*
G37*
%LPD*%
%LPC*%
G36*
X226044Y42373D02*
X226044Y42373D01*
X224449Y43034D01*
X223013Y43993D01*
X221793Y45213D01*
X220834Y46649D01*
X220173Y48244D01*
X220107Y48578D01*
X226378Y48578D01*
X226378Y42307D01*
X226044Y42373D01*
G37*
%LPD*%
%LPC*%
G36*
X624299Y110699D02*
X624299Y110699D01*
X624299Y116603D01*
X624675Y116528D01*
X626156Y115914D01*
X627489Y115023D01*
X628623Y113889D01*
X629514Y112556D01*
X630128Y111075D01*
X630203Y110699D01*
X624299Y110699D01*
G37*
%LPD*%
%LPC*%
G36*
X614397Y110699D02*
X614397Y110699D01*
X614472Y111075D01*
X615086Y112556D01*
X615977Y113889D01*
X617111Y115023D01*
X618444Y115914D01*
X619925Y116528D01*
X620301Y116603D01*
X620301Y110699D01*
X614397Y110699D01*
G37*
%LPD*%
%LPC*%
G36*
X624299Y106701D02*
X624299Y106701D01*
X630203Y106701D01*
X630128Y106325D01*
X629514Y104844D01*
X628623Y103511D01*
X627489Y102377D01*
X626156Y101486D01*
X624675Y100872D01*
X624299Y100797D01*
X624299Y106701D01*
G37*
%LPD*%
%LPC*%
G36*
X619925Y100872D02*
X619925Y100872D01*
X618444Y101486D01*
X617111Y102377D01*
X615977Y103511D01*
X615086Y104844D01*
X614472Y106325D01*
X614397Y106701D01*
X620301Y106701D01*
X620301Y100797D01*
X619925Y100872D01*
G37*
%LPD*%
%LPC*%
G36*
X622299Y393699D02*
X622299Y393699D01*
X622299Y393701D01*
X622301Y393701D01*
X622301Y393699D01*
X622299Y393699D01*
G37*
%LPD*%
%LPC*%
G36*
X391159Y190499D02*
X391159Y190499D01*
X391159Y190501D01*
X391161Y190501D01*
X391161Y190499D01*
X391159Y190499D01*
G37*
%LPD*%
D10*
X340360Y190500D03*
X365760Y190500D03*
X391160Y190500D03*
X416560Y190500D03*
D11*
X622300Y108700D03*
X622300Y43700D03*
D12*
X177800Y50800D03*
X203200Y50800D03*
X228600Y50800D03*
D13*
X622300Y190500D03*
X622300Y215900D03*
X622300Y241300D03*
X622300Y266700D03*
X622300Y292100D03*
X622300Y317500D03*
X622300Y342900D03*
X622300Y368300D03*
X622300Y393700D03*
X698500Y393700D03*
X698500Y368300D03*
X698500Y342900D03*
X698500Y317500D03*
X698500Y292100D03*
X698500Y266700D03*
X698500Y241300D03*
X698500Y215900D03*
X698500Y190500D03*
D12*
X97200Y396500D03*
X97200Y371100D03*
X122600Y396500D03*
X122600Y371100D03*
X148000Y396500D03*
X148000Y371100D03*
X173400Y396500D03*
X173400Y371100D03*
X198800Y396500D03*
X198800Y371100D03*
X224200Y396500D03*
X224200Y371100D03*
X249600Y396500D03*
X249600Y371100D03*
X275000Y396500D03*
X275000Y371100D03*
X300400Y396500D03*
X300400Y371100D03*
X325800Y396500D03*
X325800Y371100D03*
X351200Y396500D03*
X351200Y371100D03*
X376600Y396500D03*
X376600Y371100D03*
X402000Y396500D03*
X402000Y371100D03*
X427400Y396500D03*
X427400Y371100D03*
X452800Y396500D03*
X452800Y371100D03*
X478200Y396500D03*
X478200Y371100D03*
X503600Y396500D03*
X503600Y371100D03*
X529000Y396500D03*
X529000Y371100D03*
X97200Y142500D03*
X97200Y117100D03*
X122600Y142500D03*
X122600Y117100D03*
X148000Y142500D03*
X148000Y117100D03*
X173400Y142500D03*
X173400Y117100D03*
X198800Y142500D03*
X198800Y117100D03*
X224200Y142500D03*
X224200Y117100D03*
X249600Y142500D03*
X249600Y117100D03*
X275000Y142500D03*
X275000Y117100D03*
X300400Y142500D03*
X300400Y117100D03*
X325800Y142500D03*
X325800Y117100D03*
X351200Y142500D03*
X351200Y117100D03*
X376600Y142500D03*
X376600Y117100D03*
X402000Y142500D03*
X402000Y117100D03*
X427400Y142500D03*
X427400Y117100D03*
X452800Y142500D03*
X452800Y117100D03*
X478200Y142500D03*
X478200Y117100D03*
X503600Y142500D03*
X503600Y117100D03*
X529000Y142500D03*
X529000Y117100D03*
D14*
X38100Y38100D03*
X723900Y38100D03*
X723900Y469900D03*
X38100Y469900D03*
D15*
X596900Y139700D03*
X596900Y114300D03*
X571500Y88900D03*
X571500Y63500D03*
X635000Y88900D03*
X635000Y63500D03*
X660400Y139700D03*
X660400Y114300D03*
X654050Y22860D03*
X609600Y50800D03*
X679450Y50800D03*
X654050Y152400D03*
X704850Y152400D03*
X339090Y158750D03*
X349250Y158750D03*
M02*
