G04 EAGLE Gerber RS-274X export*
G75*
%MOMM*%
%FSLAX34Y34*%
%LPD*%
%INTop Copper*%
%IPPOS*%
%AMOC8*
5,1,8,0,0,1.08239X$1,22.5*%
G01*
%ADD10C,1.778000*%
%ADD11C,1.120000*%
%ADD12R,1.651000X1.651000*%
%ADD13C,1.651000*%
%ADD14R,1.564638X1.564638*%
%ADD15C,1.564638*%
%ADD16R,1.524000X1.524000*%
%ADD17P,1.649562X8X22.500000*%
%ADD18R,0.609600X0.508000*%
%ADD19C,4.445000*%
%ADD20C,1.016000*%
%ADD21C,0.609600*%
%ADD22C,0.254000*%

G36*
X759444Y504308D02*
X759444Y504308D01*
X759437Y504427D01*
X759424Y504465D01*
X759419Y504506D01*
X759376Y504616D01*
X759339Y504729D01*
X759317Y504764D01*
X759302Y504801D01*
X759233Y504897D01*
X759169Y504998D01*
X759139Y505026D01*
X759116Y505059D01*
X759024Y505135D01*
X758937Y505216D01*
X758902Y505236D01*
X758871Y505261D01*
X758763Y505312D01*
X758659Y505370D01*
X758619Y505380D01*
X758583Y505397D01*
X758466Y505419D01*
X758351Y505449D01*
X758291Y505453D01*
X758271Y505457D01*
X758250Y505455D01*
X758190Y505459D01*
X3810Y505459D01*
X3692Y505444D01*
X3573Y505437D01*
X3535Y505424D01*
X3494Y505419D01*
X3384Y505376D01*
X3271Y505339D01*
X3236Y505317D01*
X3199Y505302D01*
X3103Y505233D01*
X3002Y505169D01*
X2974Y505139D01*
X2941Y505116D01*
X2865Y505024D01*
X2784Y504937D01*
X2764Y504902D01*
X2739Y504871D01*
X2688Y504763D01*
X2630Y504659D01*
X2620Y504619D01*
X2603Y504583D01*
X2581Y504466D01*
X2551Y504351D01*
X2547Y504291D01*
X2543Y504271D01*
X2545Y504250D01*
X2541Y504190D01*
X2541Y3810D01*
X2556Y3692D01*
X2563Y3573D01*
X2576Y3535D01*
X2581Y3494D01*
X2624Y3384D01*
X2661Y3271D01*
X2683Y3236D01*
X2698Y3199D01*
X2767Y3103D01*
X2831Y3002D01*
X2861Y2974D01*
X2884Y2941D01*
X2976Y2865D01*
X3063Y2784D01*
X3098Y2764D01*
X3129Y2739D01*
X3237Y2688D01*
X3341Y2630D01*
X3381Y2620D01*
X3417Y2603D01*
X3534Y2581D01*
X3649Y2551D01*
X3709Y2547D01*
X3729Y2543D01*
X3750Y2545D01*
X3810Y2541D01*
X758190Y2541D01*
X758308Y2556D01*
X758427Y2563D01*
X758465Y2576D01*
X758506Y2581D01*
X758616Y2624D01*
X758729Y2661D01*
X758764Y2683D01*
X758801Y2698D01*
X758897Y2767D01*
X758998Y2831D01*
X759026Y2861D01*
X759059Y2884D01*
X759135Y2976D01*
X759216Y3063D01*
X759236Y3098D01*
X759261Y3129D01*
X759312Y3237D01*
X759370Y3341D01*
X759380Y3381D01*
X759397Y3417D01*
X759419Y3534D01*
X759449Y3649D01*
X759453Y3709D01*
X759457Y3729D01*
X759455Y3750D01*
X759459Y3810D01*
X759459Y504190D01*
X759444Y504308D01*
G37*
%LPC*%
G36*
X76200Y430531D02*
X76200Y430531D01*
X76318Y430546D01*
X76437Y430553D01*
X76475Y430566D01*
X76516Y430571D01*
X76626Y430614D01*
X76739Y430651D01*
X76774Y430673D01*
X76811Y430688D01*
X76907Y430758D01*
X77008Y430821D01*
X77036Y430851D01*
X77069Y430874D01*
X77145Y430966D01*
X77226Y431053D01*
X77246Y431088D01*
X77271Y431119D01*
X77322Y431227D01*
X77380Y431331D01*
X77390Y431371D01*
X77407Y431407D01*
X77429Y431524D01*
X77459Y431639D01*
X77463Y431700D01*
X77467Y431720D01*
X77465Y431740D01*
X77469Y431800D01*
X77469Y494031D01*
X684531Y494031D01*
X684531Y431800D01*
X684546Y431682D01*
X684553Y431563D01*
X684566Y431525D01*
X684571Y431484D01*
X684614Y431374D01*
X684651Y431261D01*
X684673Y431226D01*
X684688Y431189D01*
X684758Y431093D01*
X684821Y430992D01*
X684851Y430964D01*
X684874Y430931D01*
X684966Y430856D01*
X685053Y430774D01*
X685088Y430754D01*
X685119Y430729D01*
X685227Y430678D01*
X685331Y430620D01*
X685371Y430610D01*
X685407Y430593D01*
X685524Y430571D01*
X685639Y430541D01*
X685700Y430537D01*
X685720Y430533D01*
X685740Y430535D01*
X685800Y430531D01*
X748031Y430531D01*
X748031Y77469D01*
X685800Y77469D01*
X685682Y77454D01*
X685563Y77447D01*
X685525Y77434D01*
X685484Y77429D01*
X685374Y77386D01*
X685261Y77349D01*
X685226Y77327D01*
X685189Y77312D01*
X685093Y77243D01*
X684992Y77179D01*
X684964Y77149D01*
X684931Y77126D01*
X684856Y77034D01*
X684774Y76947D01*
X684754Y76912D01*
X684729Y76881D01*
X684678Y76773D01*
X684620Y76669D01*
X684610Y76629D01*
X684593Y76593D01*
X684571Y76476D01*
X684541Y76361D01*
X684537Y76301D01*
X684533Y76281D01*
X684535Y76260D01*
X684531Y76200D01*
X684531Y53390D01*
X684532Y53381D01*
X684531Y53372D01*
X684552Y53223D01*
X684571Y53075D01*
X684574Y53066D01*
X684575Y53057D01*
X684627Y52905D01*
X685039Y51912D01*
X685039Y49688D01*
X684627Y48695D01*
X684625Y48686D01*
X684620Y48678D01*
X684612Y48645D01*
X684603Y48627D01*
X684592Y48566D01*
X684583Y48533D01*
X684543Y48388D01*
X684543Y48379D01*
X684541Y48370D01*
X684531Y48210D01*
X684531Y28919D01*
X684544Y28815D01*
X684548Y28709D01*
X684564Y28657D01*
X684571Y28604D01*
X684609Y28506D01*
X684640Y28404D01*
X684668Y28358D01*
X684688Y28308D01*
X684750Y28223D01*
X684804Y28132D01*
X684843Y28094D01*
X684874Y28051D01*
X684956Y27983D01*
X685031Y27909D01*
X685103Y27862D01*
X685119Y27848D01*
X685133Y27842D01*
X685165Y27820D01*
X685836Y27433D01*
X686309Y26960D01*
X686644Y26381D01*
X686817Y25734D01*
X686817Y24129D01*
X685800Y24129D01*
X685682Y24114D01*
X685563Y24107D01*
X685525Y24095D01*
X685484Y24090D01*
X685374Y24046D01*
X685261Y24009D01*
X685226Y23987D01*
X685189Y23973D01*
X685093Y23903D01*
X684992Y23839D01*
X684964Y23809D01*
X684931Y23786D01*
X684856Y23694D01*
X684774Y23607D01*
X684754Y23572D01*
X684729Y23541D01*
X684678Y23433D01*
X684620Y23329D01*
X684610Y23290D01*
X684593Y23253D01*
X684571Y23136D01*
X684541Y23021D01*
X684537Y22961D01*
X684533Y22941D01*
X684533Y22940D01*
X684535Y22920D01*
X684531Y22860D01*
X684546Y22742D01*
X684553Y22623D01*
X684566Y22584D01*
X684571Y22544D01*
X684614Y22434D01*
X684651Y22320D01*
X684673Y22286D01*
X684688Y22249D01*
X684758Y22152D01*
X684821Y22052D01*
X684851Y22024D01*
X684874Y21991D01*
X684966Y21915D01*
X685053Y21834D01*
X685088Y21814D01*
X685119Y21788D01*
X685227Y21738D01*
X685331Y21680D01*
X685371Y21670D01*
X685407Y21653D01*
X685524Y21631D01*
X685639Y21601D01*
X685700Y21597D01*
X685720Y21593D01*
X685740Y21594D01*
X685800Y21591D01*
X686817Y21591D01*
X686817Y19986D01*
X686644Y19339D01*
X686309Y18760D01*
X685836Y18287D01*
X685165Y17900D01*
X685081Y17836D01*
X684992Y17779D01*
X684955Y17740D01*
X684912Y17707D01*
X684846Y17625D01*
X684774Y17548D01*
X684748Y17500D01*
X684714Y17458D01*
X684671Y17362D01*
X684620Y17269D01*
X684607Y17217D01*
X684585Y17168D01*
X684567Y17063D01*
X684541Y16961D01*
X684536Y16876D01*
X684532Y16854D01*
X684533Y16839D01*
X684531Y16801D01*
X684531Y13969D01*
X77469Y13969D01*
X77469Y76200D01*
X77454Y76318D01*
X77447Y76437D01*
X77434Y76475D01*
X77429Y76516D01*
X77386Y76626D01*
X77349Y76739D01*
X77327Y76774D01*
X77312Y76811D01*
X77243Y76907D01*
X77179Y77008D01*
X77149Y77036D01*
X77126Y77069D01*
X77034Y77145D01*
X76947Y77226D01*
X76912Y77246D01*
X76881Y77271D01*
X76773Y77322D01*
X76669Y77380D01*
X76629Y77390D01*
X76593Y77407D01*
X76476Y77429D01*
X76361Y77459D01*
X76301Y77463D01*
X76281Y77467D01*
X76260Y77465D01*
X76200Y77469D01*
X13969Y77469D01*
X13969Y430531D01*
X76200Y430531D01*
G37*
%LPD*%
%LPC*%
G36*
X37357Y62866D02*
X37357Y62866D01*
X39491Y62866D01*
X42255Y62554D01*
X44967Y61935D01*
X47592Y61017D01*
X50099Y59810D01*
X52454Y58330D01*
X54629Y56595D01*
X56595Y54629D01*
X58330Y52454D01*
X59810Y50099D01*
X61017Y47592D01*
X61935Y44967D01*
X62184Y43875D01*
X40281Y40953D01*
X37357Y62866D01*
G37*
%LPD*%
%LPC*%
G36*
X40953Y35919D02*
X40953Y35919D01*
X62866Y38843D01*
X62866Y36709D01*
X62554Y33945D01*
X61935Y31233D01*
X61017Y28608D01*
X59810Y26101D01*
X58330Y23746D01*
X56595Y21571D01*
X54629Y19605D01*
X52454Y17870D01*
X50099Y16390D01*
X47592Y15183D01*
X44967Y14265D01*
X43875Y14016D01*
X40953Y35919D01*
G37*
%LPD*%
%LPC*%
G36*
X13334Y39491D02*
X13334Y39491D01*
X13646Y42255D01*
X14265Y44967D01*
X15183Y47592D01*
X16390Y50099D01*
X17870Y52454D01*
X19605Y54629D01*
X21571Y56595D01*
X23746Y58330D01*
X26101Y59810D01*
X28608Y61017D01*
X31233Y61935D01*
X32325Y62184D01*
X35247Y40281D01*
X13334Y37357D01*
X13334Y39491D01*
G37*
%LPD*%
%LPC*%
G36*
X36709Y13334D02*
X36709Y13334D01*
X33945Y13646D01*
X31233Y14265D01*
X28608Y15183D01*
X26101Y16390D01*
X23746Y17870D01*
X21571Y19605D01*
X19605Y21571D01*
X17870Y23746D01*
X16390Y26101D01*
X15183Y28608D01*
X14265Y31233D01*
X14016Y32325D01*
X35919Y35247D01*
X38843Y13334D01*
X36709Y13334D01*
G37*
%LPD*%
%LPC*%
G36*
X726439Y472439D02*
X726439Y472439D01*
X726439Y494536D01*
X728055Y494354D01*
X730767Y493735D01*
X733392Y492817D01*
X735899Y491610D01*
X738254Y490130D01*
X740429Y488395D01*
X742395Y486429D01*
X744130Y484254D01*
X745610Y481899D01*
X746817Y479392D01*
X747735Y476767D01*
X748354Y474055D01*
X748536Y472439D01*
X726439Y472439D01*
G37*
%LPD*%
%LPC*%
G36*
X40639Y472439D02*
X40639Y472439D01*
X40639Y494536D01*
X42255Y494354D01*
X44967Y493735D01*
X47592Y492817D01*
X50099Y491610D01*
X52454Y490130D01*
X54629Y488395D01*
X56595Y486429D01*
X58330Y484254D01*
X59810Y481899D01*
X61017Y479392D01*
X61935Y476767D01*
X62554Y474055D01*
X62736Y472439D01*
X40639Y472439D01*
G37*
%LPD*%
%LPC*%
G36*
X726439Y40639D02*
X726439Y40639D01*
X726439Y62736D01*
X728055Y62554D01*
X730767Y61935D01*
X733392Y61017D01*
X735899Y59810D01*
X738254Y58330D01*
X740429Y56595D01*
X742395Y54629D01*
X744130Y52454D01*
X745610Y50099D01*
X746817Y47592D01*
X747735Y44967D01*
X748354Y42255D01*
X748536Y40639D01*
X726439Y40639D01*
G37*
%LPD*%
%LPC*%
G36*
X13464Y472439D02*
X13464Y472439D01*
X13646Y474055D01*
X14265Y476767D01*
X15183Y479392D01*
X16390Y481899D01*
X17870Y484254D01*
X19605Y486429D01*
X21571Y488395D01*
X23746Y490130D01*
X26101Y491610D01*
X28608Y492817D01*
X31233Y493735D01*
X33945Y494354D01*
X35561Y494536D01*
X35561Y472439D01*
X13464Y472439D01*
G37*
%LPD*%
%LPC*%
G36*
X699264Y472439D02*
X699264Y472439D01*
X699446Y474055D01*
X700065Y476767D01*
X700983Y479392D01*
X702190Y481899D01*
X703670Y484254D01*
X705405Y486429D01*
X707371Y488395D01*
X709546Y490130D01*
X711901Y491610D01*
X714408Y492817D01*
X717033Y493735D01*
X719745Y494354D01*
X721361Y494536D01*
X721361Y472439D01*
X699264Y472439D01*
G37*
%LPD*%
%LPC*%
G36*
X726439Y467361D02*
X726439Y467361D01*
X748536Y467361D01*
X748354Y465745D01*
X747735Y463033D01*
X746817Y460408D01*
X745610Y457901D01*
X744130Y455546D01*
X742395Y453371D01*
X740429Y451405D01*
X738254Y449670D01*
X735899Y448190D01*
X733392Y446983D01*
X730767Y446065D01*
X728055Y445446D01*
X726439Y445264D01*
X726439Y467361D01*
G37*
%LPD*%
%LPC*%
G36*
X40639Y467361D02*
X40639Y467361D01*
X62736Y467361D01*
X62554Y465745D01*
X61935Y463033D01*
X61017Y460408D01*
X59810Y457901D01*
X58330Y455546D01*
X56595Y453371D01*
X54629Y451405D01*
X52454Y449670D01*
X50099Y448190D01*
X47592Y446983D01*
X44967Y446065D01*
X42255Y445446D01*
X40639Y445264D01*
X40639Y467361D01*
G37*
%LPD*%
%LPC*%
G36*
X699264Y40639D02*
X699264Y40639D01*
X699446Y42255D01*
X700065Y44967D01*
X700983Y47592D01*
X702190Y50099D01*
X703670Y52454D01*
X705405Y54629D01*
X707371Y56595D01*
X709546Y58330D01*
X711901Y59810D01*
X714408Y61017D01*
X717033Y61935D01*
X719745Y62554D01*
X721361Y62736D01*
X721361Y40639D01*
X699264Y40639D01*
G37*
%LPD*%
%LPC*%
G36*
X726439Y35561D02*
X726439Y35561D01*
X748536Y35561D01*
X748354Y33945D01*
X747735Y31233D01*
X746817Y28608D01*
X745610Y26101D01*
X744130Y23746D01*
X742395Y21571D01*
X740429Y19605D01*
X738254Y17870D01*
X735899Y16390D01*
X733392Y15183D01*
X730767Y14265D01*
X728055Y13646D01*
X726439Y13464D01*
X726439Y35561D01*
G37*
%LPD*%
%LPC*%
G36*
X33945Y445446D02*
X33945Y445446D01*
X31233Y446065D01*
X28608Y446983D01*
X26101Y448190D01*
X23746Y449670D01*
X21571Y451405D01*
X19605Y453371D01*
X17870Y455546D01*
X16390Y457901D01*
X15183Y460408D01*
X14265Y463033D01*
X13646Y465745D01*
X13464Y467361D01*
X35561Y467361D01*
X35561Y445264D01*
X33945Y445446D01*
G37*
%LPD*%
%LPC*%
G36*
X719745Y445446D02*
X719745Y445446D01*
X717033Y446065D01*
X714408Y446983D01*
X711901Y448190D01*
X709546Y449670D01*
X707371Y451405D01*
X705405Y453371D01*
X703670Y455546D01*
X702190Y457901D01*
X700983Y460408D01*
X700065Y463033D01*
X699446Y465745D01*
X699264Y467361D01*
X721361Y467361D01*
X721361Y445264D01*
X719745Y445446D01*
G37*
%LPD*%
%LPC*%
G36*
X719745Y13646D02*
X719745Y13646D01*
X717033Y14265D01*
X714408Y15183D01*
X711901Y16390D01*
X709546Y17870D01*
X707371Y19605D01*
X705405Y21571D01*
X703670Y23746D01*
X702190Y26101D01*
X700983Y28608D01*
X700065Y31233D01*
X699446Y33945D01*
X699264Y35561D01*
X721361Y35561D01*
X721361Y13464D01*
X719745Y13646D01*
G37*
%LPD*%
%LPC*%
G36*
X38099Y469899D02*
X38099Y469899D01*
X38099Y469901D01*
X38101Y469901D01*
X38101Y469899D01*
X38099Y469899D01*
G37*
%LPD*%
%LPC*%
G36*
X723899Y469899D02*
X723899Y469899D01*
X723899Y469901D01*
X723901Y469901D01*
X723901Y469899D01*
X723899Y469899D01*
G37*
%LPD*%
%LPC*%
G36*
X723899Y38099D02*
X723899Y38099D01*
X723899Y38101D01*
X723901Y38101D01*
X723901Y38099D01*
X723899Y38099D01*
G37*
%LPD*%
%LPC*%
G36*
X38099Y38101D02*
X38099Y38101D01*
X38101Y38101D01*
X38101Y38099D01*
X38099Y38099D01*
X38099Y38101D01*
G37*
%LPD*%
D10*
X340360Y190500D03*
X365760Y190500D03*
X391160Y190500D03*
X416560Y190500D03*
D11*
X622300Y108700D03*
X622300Y43700D03*
D12*
X177800Y50800D03*
D13*
X203200Y50800D03*
X228600Y50800D03*
D14*
X622300Y190500D03*
D15*
X622300Y215900D03*
X622300Y241300D03*
X622300Y266700D03*
X622300Y292100D03*
X622300Y317500D03*
X622300Y342900D03*
X622300Y368300D03*
X622300Y393700D03*
X698500Y393700D03*
X698500Y368300D03*
X698500Y342900D03*
X698500Y317500D03*
X698500Y292100D03*
X698500Y266700D03*
X698500Y241300D03*
X698500Y215900D03*
X698500Y190500D03*
D16*
X97200Y396500D03*
D17*
X97200Y371100D03*
X122600Y396500D03*
X122600Y371100D03*
X148000Y396500D03*
X148000Y371100D03*
X173400Y396500D03*
X173400Y371100D03*
X198800Y396500D03*
X198800Y371100D03*
X224200Y396500D03*
X224200Y371100D03*
X249600Y396500D03*
X249600Y371100D03*
X275000Y396500D03*
X275000Y371100D03*
X300400Y396500D03*
X300400Y371100D03*
X325800Y396500D03*
X325800Y371100D03*
X351200Y396500D03*
X351200Y371100D03*
X376600Y396500D03*
X376600Y371100D03*
X402000Y396500D03*
X402000Y371100D03*
X427400Y396500D03*
X427400Y371100D03*
X452800Y396500D03*
X452800Y371100D03*
X478200Y396500D03*
X478200Y371100D03*
X503600Y396500D03*
X503600Y371100D03*
X529000Y396500D03*
X529000Y371100D03*
D16*
X97200Y142500D03*
D17*
X97200Y117100D03*
X122600Y142500D03*
X122600Y117100D03*
X148000Y142500D03*
X148000Y117100D03*
X173400Y142500D03*
X173400Y117100D03*
X198800Y142500D03*
X198800Y117100D03*
X224200Y142500D03*
X224200Y117100D03*
X249600Y142500D03*
X249600Y117100D03*
X275000Y142500D03*
X275000Y117100D03*
X300400Y142500D03*
X300400Y117100D03*
X325800Y142500D03*
X325800Y117100D03*
X351200Y142500D03*
X351200Y117100D03*
X376600Y142500D03*
X376600Y117100D03*
X402000Y142500D03*
X402000Y117100D03*
X427400Y142500D03*
X427400Y117100D03*
X452800Y142500D03*
X452800Y117100D03*
X478200Y142500D03*
X478200Y117100D03*
X503600Y142500D03*
X503600Y117100D03*
X529000Y142500D03*
X529000Y117100D03*
D18*
X314452Y158750D03*
X325628Y158750D03*
X367792Y158750D03*
X378968Y158750D03*
D19*
X38100Y38100D03*
X723900Y38100D03*
X723900Y469900D03*
X38100Y469900D03*
D20*
X431800Y482600D03*
X431800Y50800D03*
X101600Y50800D03*
D18*
X670052Y22860D03*
X681228Y22860D03*
D21*
X596900Y139700D03*
X596900Y114300D03*
X571500Y88900D03*
X571500Y63500D03*
X635000Y88900D03*
X635000Y63500D03*
X660400Y139700D03*
X660400Y114300D03*
D22*
X654050Y22860D02*
X670052Y22860D01*
D21*
X654050Y22860D03*
X609600Y50800D03*
X679450Y50800D03*
X654050Y152400D03*
X704850Y152400D03*
D22*
X339090Y158750D02*
X325628Y158750D01*
D21*
X339090Y158750D03*
D22*
X349250Y158750D02*
X367792Y158750D01*
D21*
X349250Y158750D03*
D22*
X454660Y43700D02*
X622300Y43700D01*
X157158Y38422D02*
X81280Y114300D01*
X81280Y126580D01*
X97200Y142500D01*
X449382Y38422D02*
X454660Y43700D01*
X449382Y38422D02*
X157158Y38422D01*
X315722Y165862D02*
X315722Y167640D01*
X314452Y166370D02*
X314452Y158750D01*
X314452Y166370D02*
X315722Y167640D01*
X315722Y165862D02*
X340360Y190500D01*
X315722Y165862D02*
X303790Y153930D01*
X208036Y142500D02*
X198800Y142500D01*
X208036Y142500D02*
X219466Y153930D01*
X303790Y153930D01*
X365760Y190500D02*
X378968Y177292D01*
X378968Y175260D02*
X378968Y158750D01*
X378968Y175260D02*
X378968Y177292D01*
X388030Y147235D02*
X388030Y137766D01*
X381335Y131070D01*
X233436Y142500D02*
X224200Y142500D01*
X233436Y142500D02*
X244866Y131070D01*
X378968Y156297D02*
X378968Y158750D01*
X378968Y156297D02*
X388030Y147235D01*
X381335Y131070D02*
X244866Y131070D01*
X681228Y22860D02*
X696468Y38100D01*
X723900Y38100D01*
M02*
