G04 EAGLE Gerber RS-274X export*
G75*
%MOMM*%
%FSLAX34Y34*%
%LPD*%
%INSilkscreen Top*%
%IPPOS*%
%AMOC8*
5,1,8,0,0,1.08239X$1,22.5*%
G01*
%ADD10C,0.152400*%
%ADD11C,0.508000*%
%ADD12C,0.076200*%
%ADD13C,0.127000*%
%ADD14C,0.101600*%
%ADD15R,0.406400X0.711200*%


D10*
X158129Y330962D02*
X153162Y330962D01*
X153162Y342138D01*
X158129Y342138D01*
X156887Y337171D02*
X153162Y337171D01*
X163040Y342138D02*
X163040Y330962D01*
X169249Y330962D02*
X163040Y342138D01*
X169249Y342138D02*
X169249Y330962D01*
X179578Y337171D02*
X181441Y337171D01*
X181441Y330962D01*
X177715Y330962D01*
X177617Y330964D01*
X177520Y330970D01*
X177423Y330979D01*
X177326Y330993D01*
X177230Y331010D01*
X177135Y331031D01*
X177041Y331055D01*
X176947Y331084D01*
X176855Y331116D01*
X176764Y331151D01*
X176675Y331190D01*
X176587Y331233D01*
X176501Y331279D01*
X176417Y331328D01*
X176335Y331381D01*
X176255Y331436D01*
X176177Y331495D01*
X176102Y331557D01*
X176029Y331622D01*
X175959Y331690D01*
X175891Y331760D01*
X175826Y331833D01*
X175764Y331908D01*
X175705Y331986D01*
X175650Y332066D01*
X175597Y332148D01*
X175548Y332232D01*
X175502Y332318D01*
X175459Y332406D01*
X175420Y332495D01*
X175385Y332586D01*
X175353Y332678D01*
X175324Y332772D01*
X175300Y332866D01*
X175279Y332961D01*
X175262Y333057D01*
X175248Y333154D01*
X175239Y333251D01*
X175233Y333348D01*
X175231Y333446D01*
X175232Y333446D02*
X175232Y339654D01*
X175231Y339654D02*
X175233Y339752D01*
X175239Y339849D01*
X175248Y339946D01*
X175262Y340043D01*
X175279Y340139D01*
X175300Y340234D01*
X175324Y340328D01*
X175353Y340422D01*
X175385Y340514D01*
X175420Y340605D01*
X175459Y340694D01*
X175502Y340782D01*
X175548Y340868D01*
X175597Y340952D01*
X175650Y341034D01*
X175705Y341114D01*
X175764Y341192D01*
X175826Y341267D01*
X175891Y341340D01*
X175959Y341410D01*
X176029Y341478D01*
X176102Y341543D01*
X176177Y341605D01*
X176255Y341664D01*
X176335Y341719D01*
X176417Y341772D01*
X176501Y341821D01*
X176587Y341867D01*
X176675Y341910D01*
X176764Y341949D01*
X176855Y341984D01*
X176947Y342016D01*
X177041Y342045D01*
X177135Y342069D01*
X177230Y342090D01*
X177326Y342107D01*
X177423Y342121D01*
X177520Y342130D01*
X177617Y342136D01*
X177715Y342138D01*
X181441Y342138D01*
X187861Y342138D02*
X187861Y330962D01*
X186619Y330962D02*
X189103Y330962D01*
X189103Y342138D02*
X186619Y342138D01*
X199997Y330962D02*
X203101Y330962D01*
X203212Y330964D01*
X203322Y330970D01*
X203433Y330980D01*
X203543Y330994D01*
X203652Y331011D01*
X203761Y331033D01*
X203869Y331058D01*
X203975Y331088D01*
X204081Y331121D01*
X204186Y331158D01*
X204289Y331198D01*
X204390Y331243D01*
X204490Y331290D01*
X204589Y331342D01*
X204685Y331397D01*
X204779Y331455D01*
X204871Y331516D01*
X204961Y331581D01*
X205049Y331649D01*
X205134Y331720D01*
X205216Y331794D01*
X205296Y331871D01*
X205373Y331951D01*
X205447Y332033D01*
X205518Y332118D01*
X205586Y332206D01*
X205651Y332296D01*
X205712Y332388D01*
X205770Y332482D01*
X205825Y332578D01*
X205877Y332677D01*
X205924Y332777D01*
X205969Y332878D01*
X206009Y332981D01*
X206046Y333086D01*
X206079Y333192D01*
X206109Y333298D01*
X206134Y333406D01*
X206156Y333515D01*
X206173Y333624D01*
X206187Y333734D01*
X206197Y333845D01*
X206203Y333955D01*
X206205Y334066D01*
X206203Y334177D01*
X206197Y334287D01*
X206187Y334398D01*
X206173Y334508D01*
X206156Y334617D01*
X206134Y334726D01*
X206109Y334834D01*
X206079Y334940D01*
X206046Y335046D01*
X206009Y335151D01*
X205969Y335254D01*
X205924Y335355D01*
X205877Y335455D01*
X205825Y335554D01*
X205770Y335650D01*
X205712Y335744D01*
X205651Y335836D01*
X205586Y335926D01*
X205518Y336014D01*
X205447Y336099D01*
X205373Y336181D01*
X205296Y336261D01*
X205216Y336338D01*
X205134Y336412D01*
X205049Y336483D01*
X204961Y336551D01*
X204871Y336616D01*
X204779Y336677D01*
X204685Y336735D01*
X204589Y336790D01*
X204490Y336842D01*
X204390Y336889D01*
X204289Y336934D01*
X204186Y336974D01*
X204081Y337011D01*
X203975Y337044D01*
X203869Y337074D01*
X203761Y337099D01*
X203652Y337121D01*
X203543Y337138D01*
X203433Y337152D01*
X203322Y337162D01*
X203212Y337168D01*
X203101Y337170D01*
X203722Y342138D02*
X199997Y342138D01*
X203722Y342138D02*
X203821Y342136D01*
X203919Y342130D01*
X204018Y342120D01*
X204115Y342107D01*
X204213Y342089D01*
X204309Y342068D01*
X204405Y342042D01*
X204499Y342013D01*
X204592Y341981D01*
X204684Y341944D01*
X204774Y341904D01*
X204863Y341860D01*
X204950Y341813D01*
X205035Y341763D01*
X205117Y341709D01*
X205198Y341652D01*
X205276Y341592D01*
X205352Y341528D01*
X205425Y341462D01*
X205496Y341393D01*
X205564Y341321D01*
X205628Y341246D01*
X205690Y341169D01*
X205749Y341090D01*
X205804Y341008D01*
X205857Y340924D01*
X205905Y340839D01*
X205951Y340751D01*
X205993Y340661D01*
X206031Y340570D01*
X206065Y340478D01*
X206096Y340384D01*
X206123Y340289D01*
X206147Y340193D01*
X206166Y340096D01*
X206182Y339999D01*
X206194Y339901D01*
X206202Y339802D01*
X206206Y339703D01*
X206206Y339605D01*
X206202Y339506D01*
X206194Y339407D01*
X206182Y339309D01*
X206166Y339212D01*
X206147Y339115D01*
X206123Y339019D01*
X206096Y338924D01*
X206065Y338830D01*
X206031Y338738D01*
X205993Y338647D01*
X205951Y338557D01*
X205905Y338469D01*
X205857Y338384D01*
X205804Y338300D01*
X205749Y338218D01*
X205690Y338139D01*
X205628Y338062D01*
X205564Y337987D01*
X205496Y337915D01*
X205425Y337846D01*
X205352Y337780D01*
X205276Y337716D01*
X205198Y337656D01*
X205117Y337599D01*
X205035Y337545D01*
X204950Y337495D01*
X204863Y337448D01*
X204774Y337404D01*
X204684Y337364D01*
X204592Y337327D01*
X204499Y337295D01*
X204405Y337266D01*
X204309Y337240D01*
X204213Y337219D01*
X204115Y337201D01*
X204018Y337188D01*
X203919Y337178D01*
X203821Y337172D01*
X203722Y337170D01*
X203722Y337171D02*
X201238Y337171D01*
X211427Y336550D02*
X211430Y336770D01*
X211437Y336990D01*
X211451Y337209D01*
X211469Y337428D01*
X211493Y337647D01*
X211521Y337865D01*
X211555Y338082D01*
X211594Y338298D01*
X211639Y338514D01*
X211688Y338728D01*
X211743Y338941D01*
X211802Y339153D01*
X211867Y339363D01*
X211937Y339571D01*
X212011Y339778D01*
X212091Y339983D01*
X212175Y340186D01*
X212264Y340387D01*
X212358Y340586D01*
X212391Y340675D01*
X212427Y340763D01*
X212467Y340849D01*
X212510Y340934D01*
X212557Y341016D01*
X212608Y341097D01*
X212661Y341175D01*
X212718Y341251D01*
X212778Y341325D01*
X212841Y341396D01*
X212906Y341465D01*
X212975Y341531D01*
X213046Y341593D01*
X213120Y341653D01*
X213196Y341710D01*
X213274Y341764D01*
X213355Y341814D01*
X213437Y341861D01*
X213522Y341904D01*
X213608Y341944D01*
X213696Y341981D01*
X213785Y342013D01*
X213875Y342042D01*
X213967Y342068D01*
X214059Y342089D01*
X214153Y342107D01*
X214247Y342120D01*
X214341Y342130D01*
X214436Y342136D01*
X214531Y342138D01*
X214626Y342136D01*
X214721Y342130D01*
X214815Y342120D01*
X214909Y342107D01*
X215003Y342089D01*
X215095Y342068D01*
X215187Y342042D01*
X215277Y342013D01*
X215366Y341981D01*
X215454Y341944D01*
X215540Y341904D01*
X215625Y341861D01*
X215707Y341814D01*
X215788Y341764D01*
X215866Y341710D01*
X215942Y341653D01*
X216016Y341593D01*
X216087Y341531D01*
X216156Y341465D01*
X216221Y341396D01*
X216284Y341325D01*
X216344Y341251D01*
X216401Y341175D01*
X216454Y341097D01*
X216505Y341016D01*
X216552Y340933D01*
X216595Y340849D01*
X216635Y340763D01*
X216671Y340675D01*
X216704Y340586D01*
X216705Y340586D02*
X216799Y340387D01*
X216888Y340186D01*
X216972Y339983D01*
X217052Y339778D01*
X217126Y339571D01*
X217196Y339363D01*
X217261Y339153D01*
X217320Y338941D01*
X217375Y338728D01*
X217424Y338514D01*
X217469Y338298D01*
X217508Y338082D01*
X217542Y337865D01*
X217570Y337647D01*
X217594Y337428D01*
X217612Y337209D01*
X217626Y336990D01*
X217633Y336770D01*
X217636Y336550D01*
X211427Y336550D02*
X211430Y336330D01*
X211437Y336110D01*
X211451Y335891D01*
X211469Y335672D01*
X211493Y335453D01*
X211521Y335235D01*
X211555Y335018D01*
X211594Y334802D01*
X211639Y334586D01*
X211688Y334372D01*
X211743Y334159D01*
X211802Y333948D01*
X211867Y333737D01*
X211937Y333529D01*
X212011Y333322D01*
X212091Y333117D01*
X212175Y332914D01*
X212264Y332713D01*
X212358Y332514D01*
X212391Y332425D01*
X212427Y332337D01*
X212467Y332251D01*
X212510Y332166D01*
X212557Y332084D01*
X212608Y332003D01*
X212661Y331925D01*
X212718Y331849D01*
X212778Y331775D01*
X212841Y331704D01*
X212906Y331635D01*
X212975Y331569D01*
X213046Y331507D01*
X213120Y331447D01*
X213196Y331390D01*
X213274Y331336D01*
X213355Y331286D01*
X213437Y331239D01*
X213522Y331196D01*
X213608Y331156D01*
X213696Y331119D01*
X213785Y331087D01*
X213875Y331058D01*
X213967Y331032D01*
X214059Y331011D01*
X214153Y330993D01*
X214247Y330980D01*
X214341Y330970D01*
X214436Y330964D01*
X214531Y330962D01*
X216705Y332514D02*
X216799Y332713D01*
X216888Y332914D01*
X216972Y333117D01*
X217052Y333322D01*
X217126Y333529D01*
X217196Y333737D01*
X217261Y333947D01*
X217320Y334159D01*
X217375Y334372D01*
X217424Y334586D01*
X217469Y334802D01*
X217508Y335018D01*
X217542Y335235D01*
X217570Y335453D01*
X217594Y335672D01*
X217612Y335891D01*
X217626Y336110D01*
X217633Y336330D01*
X217636Y336550D01*
X216704Y332514D02*
X216671Y332425D01*
X216635Y332337D01*
X216595Y332251D01*
X216552Y332166D01*
X216505Y332084D01*
X216454Y332003D01*
X216401Y331925D01*
X216344Y331849D01*
X216284Y331775D01*
X216221Y331704D01*
X216156Y331635D01*
X216087Y331569D01*
X216016Y331507D01*
X215942Y331447D01*
X215866Y331390D01*
X215788Y331336D01*
X215707Y331286D01*
X215625Y331239D01*
X215540Y331196D01*
X215454Y331156D01*
X215366Y331119D01*
X215277Y331087D01*
X215187Y331058D01*
X215095Y331032D01*
X215003Y331011D01*
X214909Y330993D01*
X214815Y330980D01*
X214721Y330970D01*
X214626Y330964D01*
X214531Y330962D01*
X212048Y333446D02*
X217015Y339654D01*
X222857Y339654D02*
X225961Y342138D01*
X225961Y330962D01*
X222857Y330962D02*
X229066Y330962D01*
X158129Y311912D02*
X155646Y311912D01*
X155548Y311914D01*
X155451Y311920D01*
X155354Y311929D01*
X155257Y311943D01*
X155161Y311960D01*
X155066Y311981D01*
X154972Y312005D01*
X154878Y312034D01*
X154786Y312066D01*
X154695Y312101D01*
X154606Y312140D01*
X154518Y312183D01*
X154432Y312229D01*
X154348Y312278D01*
X154266Y312331D01*
X154186Y312386D01*
X154108Y312445D01*
X154033Y312507D01*
X153960Y312572D01*
X153890Y312640D01*
X153822Y312710D01*
X153757Y312783D01*
X153695Y312858D01*
X153636Y312936D01*
X153581Y313016D01*
X153528Y313098D01*
X153479Y313182D01*
X153433Y313268D01*
X153390Y313356D01*
X153351Y313445D01*
X153316Y313536D01*
X153284Y313628D01*
X153255Y313722D01*
X153231Y313816D01*
X153210Y313911D01*
X153193Y314007D01*
X153179Y314104D01*
X153170Y314201D01*
X153164Y314298D01*
X153162Y314396D01*
X153162Y320604D01*
X153164Y320702D01*
X153170Y320799D01*
X153179Y320896D01*
X153193Y320993D01*
X153210Y321089D01*
X153231Y321184D01*
X153255Y321278D01*
X153284Y321372D01*
X153316Y321464D01*
X153351Y321555D01*
X153390Y321644D01*
X153433Y321732D01*
X153479Y321818D01*
X153528Y321902D01*
X153581Y321984D01*
X153636Y322064D01*
X153695Y322142D01*
X153757Y322217D01*
X153822Y322290D01*
X153890Y322360D01*
X153960Y322428D01*
X154033Y322493D01*
X154108Y322555D01*
X154186Y322614D01*
X154266Y322669D01*
X154348Y322722D01*
X154432Y322771D01*
X154518Y322817D01*
X154606Y322860D01*
X154695Y322899D01*
X154786Y322934D01*
X154878Y322966D01*
X154972Y322995D01*
X155066Y323019D01*
X155161Y323040D01*
X155257Y323057D01*
X155354Y323071D01*
X155451Y323080D01*
X155548Y323086D01*
X155646Y323088D01*
X158129Y323088D01*
X164687Y316258D02*
X167481Y316258D01*
X164687Y316258D02*
X164595Y316256D01*
X164503Y316250D01*
X164411Y316240D01*
X164320Y316227D01*
X164229Y316209D01*
X164139Y316188D01*
X164051Y316163D01*
X163963Y316134D01*
X163877Y316101D01*
X163792Y316065D01*
X163709Y316025D01*
X163627Y315982D01*
X163548Y315935D01*
X163470Y315885D01*
X163395Y315832D01*
X163322Y315776D01*
X163251Y315716D01*
X163183Y315654D01*
X163118Y315589D01*
X163056Y315521D01*
X162996Y315450D01*
X162940Y315377D01*
X162887Y315302D01*
X162837Y315224D01*
X162790Y315145D01*
X162747Y315063D01*
X162707Y314980D01*
X162671Y314895D01*
X162638Y314809D01*
X162609Y314721D01*
X162584Y314633D01*
X162563Y314543D01*
X162545Y314452D01*
X162532Y314361D01*
X162522Y314269D01*
X162516Y314177D01*
X162514Y314085D01*
X162516Y313993D01*
X162522Y313901D01*
X162532Y313809D01*
X162545Y313718D01*
X162563Y313627D01*
X162584Y313537D01*
X162609Y313449D01*
X162638Y313361D01*
X162671Y313275D01*
X162707Y313190D01*
X162747Y313107D01*
X162790Y313025D01*
X162837Y312946D01*
X162887Y312868D01*
X162940Y312793D01*
X162996Y312720D01*
X163056Y312649D01*
X163118Y312581D01*
X163183Y312516D01*
X163251Y312454D01*
X163322Y312394D01*
X163395Y312338D01*
X163470Y312285D01*
X163548Y312235D01*
X163627Y312188D01*
X163709Y312145D01*
X163792Y312105D01*
X163877Y312069D01*
X163963Y312036D01*
X164051Y312007D01*
X164139Y311982D01*
X164229Y311961D01*
X164320Y311943D01*
X164411Y311930D01*
X164503Y311920D01*
X164595Y311914D01*
X164687Y311912D01*
X167481Y311912D01*
X167481Y317500D01*
X167479Y317584D01*
X167474Y317667D01*
X167464Y317750D01*
X167451Y317833D01*
X167434Y317915D01*
X167414Y317996D01*
X167390Y318076D01*
X167362Y318155D01*
X167331Y318232D01*
X167297Y318308D01*
X167259Y318383D01*
X167217Y318456D01*
X167173Y318526D01*
X167125Y318595D01*
X167075Y318662D01*
X167021Y318726D01*
X166965Y318787D01*
X166905Y318847D01*
X166844Y318903D01*
X166780Y318957D01*
X166713Y319007D01*
X166644Y319055D01*
X166574Y319099D01*
X166501Y319141D01*
X166426Y319179D01*
X166350Y319213D01*
X166273Y319244D01*
X166194Y319272D01*
X166114Y319296D01*
X166033Y319316D01*
X165951Y319333D01*
X165868Y319346D01*
X165785Y319356D01*
X165702Y319361D01*
X165618Y319363D01*
X163135Y319363D01*
X173255Y319363D02*
X173255Y311912D01*
X173255Y319363D02*
X176360Y319363D01*
X176444Y319361D01*
X176527Y319356D01*
X176610Y319346D01*
X176693Y319333D01*
X176775Y319316D01*
X176856Y319296D01*
X176936Y319272D01*
X177015Y319244D01*
X177092Y319213D01*
X177168Y319179D01*
X177243Y319141D01*
X177316Y319099D01*
X177386Y319055D01*
X177455Y319007D01*
X177522Y318957D01*
X177586Y318903D01*
X177647Y318847D01*
X177707Y318787D01*
X177763Y318726D01*
X177817Y318662D01*
X177867Y318595D01*
X177915Y318526D01*
X177959Y318456D01*
X178001Y318383D01*
X178039Y318308D01*
X178073Y318232D01*
X178104Y318155D01*
X178132Y318076D01*
X178156Y317996D01*
X178176Y317915D01*
X178193Y317833D01*
X178206Y317750D01*
X178216Y317667D01*
X178221Y317584D01*
X178223Y317500D01*
X178222Y317500D02*
X178222Y311912D01*
X188436Y311912D02*
X188436Y323088D01*
X188436Y311912D02*
X185331Y311912D01*
X185247Y311914D01*
X185164Y311919D01*
X185081Y311929D01*
X184998Y311942D01*
X184916Y311959D01*
X184835Y311979D01*
X184755Y312003D01*
X184676Y312031D01*
X184599Y312062D01*
X184523Y312096D01*
X184448Y312134D01*
X184375Y312176D01*
X184305Y312220D01*
X184236Y312268D01*
X184169Y312318D01*
X184105Y312372D01*
X184044Y312428D01*
X183984Y312488D01*
X183928Y312549D01*
X183874Y312613D01*
X183824Y312680D01*
X183776Y312749D01*
X183732Y312819D01*
X183690Y312892D01*
X183652Y312967D01*
X183618Y313043D01*
X183587Y313120D01*
X183559Y313199D01*
X183535Y313279D01*
X183515Y313360D01*
X183498Y313442D01*
X183485Y313525D01*
X183475Y313608D01*
X183470Y313691D01*
X183468Y313775D01*
X183469Y313775D02*
X183469Y317500D01*
X183468Y317500D02*
X183470Y317584D01*
X183476Y317667D01*
X183485Y317750D01*
X183498Y317833D01*
X183515Y317915D01*
X183535Y317996D01*
X183559Y318076D01*
X183587Y318155D01*
X183618Y318232D01*
X183652Y318308D01*
X183690Y318383D01*
X183732Y318456D01*
X183776Y318526D01*
X183824Y318595D01*
X183874Y318662D01*
X183928Y318726D01*
X183984Y318787D01*
X184044Y318847D01*
X184105Y318903D01*
X184169Y318957D01*
X184236Y319007D01*
X184305Y319055D01*
X184375Y319099D01*
X184448Y319141D01*
X184523Y319179D01*
X184599Y319213D01*
X184676Y319244D01*
X184755Y319272D01*
X184835Y319296D01*
X184916Y319316D01*
X184998Y319333D01*
X185081Y319346D01*
X185164Y319356D01*
X185247Y319361D01*
X185331Y319363D01*
X188436Y319363D01*
X193448Y308187D02*
X194690Y308187D01*
X198415Y319363D01*
X193448Y319363D02*
X195932Y311912D01*
X213938Y318121D02*
X215800Y318121D01*
X215800Y311912D01*
X212075Y311912D01*
X211977Y311914D01*
X211880Y311920D01*
X211783Y311929D01*
X211686Y311943D01*
X211590Y311960D01*
X211495Y311981D01*
X211401Y312005D01*
X211307Y312034D01*
X211215Y312066D01*
X211124Y312101D01*
X211035Y312140D01*
X210947Y312183D01*
X210861Y312229D01*
X210777Y312278D01*
X210695Y312331D01*
X210615Y312386D01*
X210537Y312445D01*
X210462Y312507D01*
X210389Y312572D01*
X210319Y312640D01*
X210251Y312710D01*
X210186Y312783D01*
X210124Y312858D01*
X210065Y312936D01*
X210010Y313016D01*
X209957Y313098D01*
X209908Y313182D01*
X209862Y313268D01*
X209819Y313356D01*
X209780Y313445D01*
X209745Y313536D01*
X209713Y313628D01*
X209684Y313722D01*
X209660Y313816D01*
X209639Y313911D01*
X209622Y314007D01*
X209608Y314104D01*
X209599Y314201D01*
X209593Y314298D01*
X209591Y314396D01*
X209591Y320604D01*
X209593Y320702D01*
X209599Y320799D01*
X209608Y320896D01*
X209622Y320993D01*
X209639Y321089D01*
X209660Y321184D01*
X209684Y321278D01*
X209713Y321372D01*
X209745Y321464D01*
X209780Y321555D01*
X209819Y321644D01*
X209862Y321732D01*
X209908Y321818D01*
X209957Y321902D01*
X210010Y321984D01*
X210065Y322064D01*
X210124Y322142D01*
X210186Y322217D01*
X210251Y322290D01*
X210319Y322360D01*
X210389Y322428D01*
X210462Y322493D01*
X210537Y322555D01*
X210615Y322614D01*
X210695Y322669D01*
X210777Y322722D01*
X210861Y322771D01*
X210947Y322817D01*
X211035Y322860D01*
X211124Y322899D01*
X211215Y322934D01*
X211307Y322966D01*
X211401Y322995D01*
X211495Y323019D01*
X211590Y323040D01*
X211686Y323057D01*
X211783Y323071D01*
X211880Y323080D01*
X211977Y323086D01*
X212075Y323088D01*
X215800Y323088D01*
X223361Y316258D02*
X226155Y316258D01*
X223361Y316258D02*
X223269Y316256D01*
X223177Y316250D01*
X223085Y316240D01*
X222994Y316227D01*
X222903Y316209D01*
X222813Y316188D01*
X222725Y316163D01*
X222637Y316134D01*
X222551Y316101D01*
X222466Y316065D01*
X222383Y316025D01*
X222301Y315982D01*
X222222Y315935D01*
X222144Y315885D01*
X222069Y315832D01*
X221996Y315776D01*
X221925Y315716D01*
X221857Y315654D01*
X221792Y315589D01*
X221730Y315521D01*
X221670Y315450D01*
X221614Y315377D01*
X221561Y315302D01*
X221511Y315224D01*
X221464Y315145D01*
X221421Y315063D01*
X221381Y314980D01*
X221345Y314895D01*
X221312Y314809D01*
X221283Y314721D01*
X221258Y314633D01*
X221237Y314543D01*
X221219Y314452D01*
X221206Y314361D01*
X221196Y314269D01*
X221190Y314177D01*
X221188Y314085D01*
X221190Y313993D01*
X221196Y313901D01*
X221206Y313809D01*
X221219Y313718D01*
X221237Y313627D01*
X221258Y313537D01*
X221283Y313449D01*
X221312Y313361D01*
X221345Y313275D01*
X221381Y313190D01*
X221421Y313107D01*
X221464Y313025D01*
X221511Y312946D01*
X221561Y312868D01*
X221614Y312793D01*
X221670Y312720D01*
X221730Y312649D01*
X221792Y312581D01*
X221857Y312516D01*
X221925Y312454D01*
X221996Y312394D01*
X222069Y312338D01*
X222144Y312285D01*
X222222Y312235D01*
X222301Y312188D01*
X222383Y312145D01*
X222466Y312105D01*
X222551Y312069D01*
X222637Y312036D01*
X222725Y312007D01*
X222813Y311982D01*
X222903Y311961D01*
X222994Y311943D01*
X223085Y311930D01*
X223177Y311920D01*
X223269Y311914D01*
X223361Y311912D01*
X226155Y311912D01*
X226155Y317500D01*
X226153Y317584D01*
X226148Y317667D01*
X226138Y317750D01*
X226125Y317833D01*
X226108Y317915D01*
X226088Y317996D01*
X226064Y318076D01*
X226036Y318155D01*
X226005Y318232D01*
X225971Y318308D01*
X225933Y318383D01*
X225891Y318456D01*
X225847Y318526D01*
X225799Y318595D01*
X225749Y318662D01*
X225695Y318726D01*
X225639Y318787D01*
X225579Y318847D01*
X225518Y318903D01*
X225454Y318957D01*
X225387Y319007D01*
X225318Y319055D01*
X225248Y319099D01*
X225175Y319141D01*
X225100Y319179D01*
X225024Y319213D01*
X224947Y319244D01*
X224868Y319272D01*
X224788Y319296D01*
X224707Y319316D01*
X224625Y319333D01*
X224542Y319346D01*
X224459Y319356D01*
X224376Y319361D01*
X224292Y319363D01*
X221808Y319363D01*
X232211Y319363D02*
X232211Y311912D01*
X232211Y319363D02*
X237799Y319363D01*
X237883Y319361D01*
X237966Y319356D01*
X238049Y319346D01*
X238132Y319333D01*
X238214Y319316D01*
X238295Y319296D01*
X238375Y319272D01*
X238454Y319244D01*
X238531Y319213D01*
X238607Y319179D01*
X238682Y319141D01*
X238755Y319099D01*
X238825Y319055D01*
X238894Y319007D01*
X238961Y318957D01*
X239025Y318903D01*
X239086Y318847D01*
X239146Y318787D01*
X239202Y318726D01*
X239256Y318662D01*
X239306Y318595D01*
X239354Y318526D01*
X239398Y318456D01*
X239440Y318383D01*
X239478Y318308D01*
X239512Y318232D01*
X239543Y318155D01*
X239571Y318076D01*
X239595Y317996D01*
X239615Y317915D01*
X239632Y317833D01*
X239645Y317750D01*
X239655Y317667D01*
X239660Y317584D01*
X239662Y317500D01*
X239662Y311912D01*
X235937Y311912D02*
X235937Y319363D01*
X247127Y311912D02*
X250231Y311912D01*
X247127Y311912D02*
X247043Y311914D01*
X246960Y311919D01*
X246877Y311929D01*
X246794Y311942D01*
X246712Y311959D01*
X246631Y311979D01*
X246551Y312003D01*
X246472Y312031D01*
X246395Y312062D01*
X246319Y312096D01*
X246244Y312134D01*
X246171Y312176D01*
X246101Y312220D01*
X246032Y312268D01*
X245965Y312318D01*
X245901Y312372D01*
X245840Y312428D01*
X245780Y312488D01*
X245724Y312549D01*
X245670Y312613D01*
X245620Y312680D01*
X245572Y312749D01*
X245528Y312819D01*
X245486Y312892D01*
X245448Y312967D01*
X245414Y313043D01*
X245383Y313120D01*
X245355Y313199D01*
X245331Y313279D01*
X245311Y313360D01*
X245294Y313442D01*
X245281Y313525D01*
X245271Y313608D01*
X245266Y313691D01*
X245264Y313775D01*
X245264Y316879D01*
X245266Y316978D01*
X245272Y317076D01*
X245282Y317175D01*
X245295Y317272D01*
X245313Y317370D01*
X245334Y317466D01*
X245360Y317562D01*
X245389Y317656D01*
X245421Y317749D01*
X245458Y317841D01*
X245498Y317931D01*
X245542Y318020D01*
X245589Y318107D01*
X245639Y318192D01*
X245693Y318274D01*
X245750Y318355D01*
X245810Y318433D01*
X245874Y318509D01*
X245940Y318582D01*
X246009Y318653D01*
X246081Y318721D01*
X246156Y318785D01*
X246233Y318847D01*
X246312Y318906D01*
X246394Y318961D01*
X246478Y319014D01*
X246563Y319062D01*
X246651Y319108D01*
X246741Y319150D01*
X246832Y319188D01*
X246924Y319222D01*
X247018Y319253D01*
X247113Y319280D01*
X247209Y319304D01*
X247306Y319323D01*
X247403Y319339D01*
X247501Y319351D01*
X247600Y319359D01*
X247699Y319363D01*
X247797Y319363D01*
X247896Y319359D01*
X247995Y319351D01*
X248093Y319339D01*
X248190Y319323D01*
X248287Y319304D01*
X248383Y319280D01*
X248478Y319253D01*
X248572Y319222D01*
X248664Y319188D01*
X248755Y319150D01*
X248845Y319108D01*
X248933Y319062D01*
X249018Y319014D01*
X249102Y318961D01*
X249184Y318906D01*
X249263Y318847D01*
X249340Y318785D01*
X249415Y318721D01*
X249487Y318653D01*
X249556Y318582D01*
X249622Y318509D01*
X249686Y318433D01*
X249746Y318355D01*
X249803Y318274D01*
X249857Y318192D01*
X249907Y318107D01*
X249954Y318020D01*
X249998Y317931D01*
X250038Y317841D01*
X250075Y317749D01*
X250107Y317656D01*
X250136Y317562D01*
X250162Y317466D01*
X250183Y317370D01*
X250201Y317272D01*
X250214Y317175D01*
X250224Y317076D01*
X250230Y316978D01*
X250232Y316879D01*
X250231Y316879D02*
X250231Y315637D01*
X245264Y315637D01*
X262000Y318121D02*
X265104Y318121D01*
X265104Y318120D02*
X265215Y318118D01*
X265325Y318112D01*
X265436Y318102D01*
X265546Y318088D01*
X265655Y318071D01*
X265764Y318049D01*
X265872Y318024D01*
X265978Y317994D01*
X266084Y317961D01*
X266189Y317924D01*
X266292Y317884D01*
X266393Y317839D01*
X266493Y317792D01*
X266592Y317740D01*
X266688Y317685D01*
X266782Y317627D01*
X266874Y317566D01*
X266964Y317501D01*
X267052Y317433D01*
X267137Y317362D01*
X267219Y317288D01*
X267299Y317211D01*
X267376Y317131D01*
X267450Y317049D01*
X267521Y316964D01*
X267589Y316876D01*
X267654Y316786D01*
X267715Y316694D01*
X267773Y316600D01*
X267828Y316504D01*
X267880Y316405D01*
X267927Y316305D01*
X267972Y316204D01*
X268012Y316101D01*
X268049Y315996D01*
X268082Y315890D01*
X268112Y315784D01*
X268137Y315676D01*
X268159Y315567D01*
X268176Y315458D01*
X268190Y315348D01*
X268200Y315237D01*
X268206Y315127D01*
X268208Y315016D01*
X268206Y314905D01*
X268200Y314795D01*
X268190Y314684D01*
X268176Y314574D01*
X268159Y314465D01*
X268137Y314356D01*
X268112Y314248D01*
X268082Y314142D01*
X268049Y314036D01*
X268012Y313931D01*
X267972Y313828D01*
X267927Y313727D01*
X267880Y313627D01*
X267828Y313528D01*
X267773Y313432D01*
X267715Y313338D01*
X267654Y313246D01*
X267589Y313156D01*
X267521Y313068D01*
X267450Y312983D01*
X267376Y312901D01*
X267299Y312821D01*
X267219Y312744D01*
X267137Y312670D01*
X267052Y312599D01*
X266964Y312531D01*
X266874Y312466D01*
X266782Y312405D01*
X266688Y312347D01*
X266592Y312292D01*
X266493Y312240D01*
X266393Y312193D01*
X266292Y312148D01*
X266189Y312108D01*
X266084Y312071D01*
X265978Y312038D01*
X265872Y312008D01*
X265764Y311983D01*
X265655Y311961D01*
X265546Y311944D01*
X265436Y311930D01*
X265325Y311920D01*
X265215Y311914D01*
X265104Y311912D01*
X262000Y311912D01*
X262000Y323088D01*
X265104Y323088D01*
X265203Y323086D01*
X265301Y323080D01*
X265400Y323070D01*
X265497Y323057D01*
X265595Y323039D01*
X265691Y323018D01*
X265787Y322992D01*
X265881Y322963D01*
X265974Y322931D01*
X266066Y322894D01*
X266156Y322854D01*
X266245Y322810D01*
X266332Y322763D01*
X266417Y322713D01*
X266499Y322659D01*
X266580Y322602D01*
X266658Y322542D01*
X266734Y322478D01*
X266807Y322412D01*
X266878Y322343D01*
X266946Y322271D01*
X267010Y322196D01*
X267072Y322119D01*
X267131Y322040D01*
X267186Y321958D01*
X267239Y321874D01*
X267287Y321789D01*
X267333Y321701D01*
X267375Y321611D01*
X267413Y321520D01*
X267447Y321428D01*
X267478Y321334D01*
X267505Y321239D01*
X267529Y321143D01*
X267548Y321046D01*
X267564Y320949D01*
X267576Y320851D01*
X267584Y320752D01*
X267588Y320653D01*
X267588Y320555D01*
X267584Y320456D01*
X267576Y320357D01*
X267564Y320259D01*
X267548Y320162D01*
X267529Y320065D01*
X267505Y319969D01*
X267478Y319874D01*
X267447Y319780D01*
X267413Y319688D01*
X267375Y319597D01*
X267333Y319507D01*
X267287Y319419D01*
X267239Y319334D01*
X267186Y319250D01*
X267131Y319168D01*
X267072Y319089D01*
X267010Y319012D01*
X266946Y318937D01*
X266878Y318865D01*
X266807Y318796D01*
X266734Y318730D01*
X266658Y318666D01*
X266580Y318606D01*
X266499Y318549D01*
X266417Y318495D01*
X266332Y318445D01*
X266245Y318398D01*
X266156Y318354D01*
X266066Y318314D01*
X265974Y318277D01*
X265881Y318245D01*
X265787Y318216D01*
X265691Y318190D01*
X265595Y318169D01*
X265497Y318151D01*
X265400Y318138D01*
X265301Y318128D01*
X265203Y318122D01*
X265104Y318120D01*
X272696Y316879D02*
X272696Y314396D01*
X272696Y316879D02*
X272698Y316978D01*
X272704Y317076D01*
X272714Y317175D01*
X272727Y317272D01*
X272745Y317370D01*
X272766Y317466D01*
X272792Y317562D01*
X272821Y317656D01*
X272853Y317749D01*
X272890Y317841D01*
X272930Y317931D01*
X272974Y318020D01*
X273021Y318107D01*
X273071Y318192D01*
X273125Y318274D01*
X273182Y318355D01*
X273242Y318433D01*
X273306Y318509D01*
X273372Y318582D01*
X273441Y318653D01*
X273513Y318721D01*
X273588Y318785D01*
X273665Y318847D01*
X273744Y318906D01*
X273826Y318961D01*
X273910Y319014D01*
X273995Y319062D01*
X274083Y319108D01*
X274173Y319150D01*
X274264Y319188D01*
X274356Y319222D01*
X274450Y319253D01*
X274545Y319280D01*
X274641Y319304D01*
X274738Y319323D01*
X274835Y319339D01*
X274933Y319351D01*
X275032Y319359D01*
X275131Y319363D01*
X275229Y319363D01*
X275328Y319359D01*
X275427Y319351D01*
X275525Y319339D01*
X275622Y319323D01*
X275719Y319304D01*
X275815Y319280D01*
X275910Y319253D01*
X276004Y319222D01*
X276096Y319188D01*
X276187Y319150D01*
X276277Y319108D01*
X276365Y319062D01*
X276450Y319014D01*
X276534Y318961D01*
X276616Y318906D01*
X276695Y318847D01*
X276772Y318785D01*
X276847Y318721D01*
X276919Y318653D01*
X276988Y318582D01*
X277054Y318509D01*
X277118Y318433D01*
X277178Y318355D01*
X277235Y318274D01*
X277289Y318192D01*
X277339Y318107D01*
X277386Y318020D01*
X277430Y317931D01*
X277470Y317841D01*
X277507Y317749D01*
X277539Y317656D01*
X277568Y317562D01*
X277594Y317466D01*
X277615Y317370D01*
X277633Y317272D01*
X277646Y317175D01*
X277656Y317076D01*
X277662Y316978D01*
X277664Y316879D01*
X277663Y316879D02*
X277663Y314396D01*
X277664Y314396D02*
X277662Y314297D01*
X277656Y314199D01*
X277646Y314100D01*
X277633Y314003D01*
X277615Y313905D01*
X277594Y313809D01*
X277568Y313713D01*
X277539Y313619D01*
X277507Y313526D01*
X277470Y313434D01*
X277430Y313344D01*
X277386Y313255D01*
X277339Y313168D01*
X277289Y313083D01*
X277235Y313001D01*
X277178Y312920D01*
X277118Y312842D01*
X277054Y312766D01*
X276988Y312693D01*
X276919Y312622D01*
X276847Y312554D01*
X276772Y312490D01*
X276695Y312428D01*
X276616Y312369D01*
X276534Y312314D01*
X276450Y312261D01*
X276365Y312213D01*
X276277Y312167D01*
X276187Y312125D01*
X276096Y312087D01*
X276004Y312053D01*
X275910Y312022D01*
X275815Y311995D01*
X275719Y311971D01*
X275622Y311952D01*
X275525Y311936D01*
X275427Y311924D01*
X275328Y311916D01*
X275229Y311912D01*
X275131Y311912D01*
X275032Y311916D01*
X274933Y311924D01*
X274835Y311936D01*
X274738Y311952D01*
X274641Y311971D01*
X274545Y311995D01*
X274450Y312022D01*
X274356Y312053D01*
X274264Y312087D01*
X274173Y312125D01*
X274083Y312167D01*
X273995Y312213D01*
X273910Y312261D01*
X273826Y312314D01*
X273744Y312369D01*
X273665Y312428D01*
X273588Y312490D01*
X273513Y312554D01*
X273441Y312622D01*
X273372Y312693D01*
X273306Y312766D01*
X273242Y312842D01*
X273182Y312920D01*
X273125Y313001D01*
X273071Y313083D01*
X273021Y313168D01*
X272974Y313255D01*
X272930Y313344D01*
X272890Y313434D01*
X272853Y313526D01*
X272821Y313619D01*
X272792Y313713D01*
X272766Y313809D01*
X272745Y313905D01*
X272727Y314003D01*
X272714Y314100D01*
X272704Y314199D01*
X272698Y314297D01*
X272696Y314396D01*
X282221Y311912D02*
X287188Y319363D01*
X282221Y319363D02*
X287188Y311912D01*
X153162Y304038D02*
X153162Y292862D01*
X153162Y304038D02*
X156266Y304038D01*
X156377Y304036D01*
X156487Y304030D01*
X156598Y304020D01*
X156708Y304006D01*
X156817Y303989D01*
X156926Y303967D01*
X157034Y303942D01*
X157140Y303912D01*
X157246Y303879D01*
X157351Y303842D01*
X157454Y303802D01*
X157555Y303757D01*
X157655Y303710D01*
X157754Y303658D01*
X157850Y303603D01*
X157944Y303545D01*
X158036Y303484D01*
X158126Y303419D01*
X158214Y303351D01*
X158299Y303280D01*
X158381Y303206D01*
X158461Y303129D01*
X158538Y303049D01*
X158612Y302967D01*
X158683Y302882D01*
X158751Y302794D01*
X158816Y302704D01*
X158877Y302612D01*
X158935Y302518D01*
X158990Y302422D01*
X159042Y302323D01*
X159089Y302223D01*
X159134Y302122D01*
X159174Y302019D01*
X159211Y301914D01*
X159244Y301808D01*
X159274Y301702D01*
X159299Y301594D01*
X159321Y301485D01*
X159338Y301376D01*
X159352Y301266D01*
X159362Y301155D01*
X159368Y301045D01*
X159370Y300934D01*
X159368Y300823D01*
X159362Y300713D01*
X159352Y300602D01*
X159338Y300492D01*
X159321Y300383D01*
X159299Y300274D01*
X159274Y300166D01*
X159244Y300060D01*
X159211Y299954D01*
X159174Y299849D01*
X159134Y299746D01*
X159089Y299645D01*
X159042Y299545D01*
X158990Y299446D01*
X158935Y299350D01*
X158877Y299256D01*
X158816Y299164D01*
X158751Y299074D01*
X158683Y298986D01*
X158612Y298901D01*
X158538Y298819D01*
X158461Y298739D01*
X158381Y298662D01*
X158299Y298588D01*
X158214Y298517D01*
X158126Y298449D01*
X158036Y298384D01*
X157944Y298323D01*
X157850Y298265D01*
X157754Y298210D01*
X157655Y298158D01*
X157555Y298111D01*
X157454Y298066D01*
X157351Y298026D01*
X157246Y297989D01*
X157140Y297956D01*
X157034Y297926D01*
X156926Y297901D01*
X156817Y297879D01*
X156708Y297862D01*
X156598Y297848D01*
X156487Y297838D01*
X156377Y297832D01*
X156266Y297830D01*
X156266Y297829D02*
X153162Y297829D01*
X156887Y297829D02*
X159371Y292862D01*
X166222Y292862D02*
X169326Y292862D01*
X166222Y292862D02*
X166138Y292864D01*
X166055Y292869D01*
X165972Y292879D01*
X165889Y292892D01*
X165807Y292909D01*
X165726Y292929D01*
X165646Y292953D01*
X165567Y292981D01*
X165490Y293012D01*
X165414Y293046D01*
X165339Y293084D01*
X165266Y293126D01*
X165196Y293170D01*
X165127Y293218D01*
X165060Y293268D01*
X164996Y293322D01*
X164935Y293378D01*
X164875Y293438D01*
X164819Y293499D01*
X164765Y293563D01*
X164715Y293630D01*
X164667Y293699D01*
X164623Y293769D01*
X164581Y293842D01*
X164543Y293917D01*
X164509Y293993D01*
X164478Y294070D01*
X164450Y294149D01*
X164426Y294229D01*
X164406Y294310D01*
X164389Y294392D01*
X164376Y294475D01*
X164366Y294558D01*
X164361Y294641D01*
X164359Y294725D01*
X164359Y297829D01*
X164358Y297829D02*
X164360Y297928D01*
X164366Y298026D01*
X164376Y298125D01*
X164389Y298222D01*
X164407Y298320D01*
X164428Y298416D01*
X164454Y298512D01*
X164483Y298606D01*
X164515Y298699D01*
X164552Y298791D01*
X164592Y298881D01*
X164636Y298970D01*
X164683Y299057D01*
X164733Y299142D01*
X164787Y299224D01*
X164844Y299305D01*
X164904Y299383D01*
X164968Y299459D01*
X165034Y299532D01*
X165103Y299603D01*
X165175Y299671D01*
X165250Y299735D01*
X165327Y299797D01*
X165406Y299856D01*
X165488Y299911D01*
X165572Y299964D01*
X165657Y300012D01*
X165745Y300058D01*
X165835Y300100D01*
X165926Y300138D01*
X166018Y300172D01*
X166112Y300203D01*
X166207Y300230D01*
X166303Y300254D01*
X166400Y300273D01*
X166497Y300289D01*
X166595Y300301D01*
X166694Y300309D01*
X166793Y300313D01*
X166891Y300313D01*
X166990Y300309D01*
X167089Y300301D01*
X167187Y300289D01*
X167284Y300273D01*
X167381Y300254D01*
X167477Y300230D01*
X167572Y300203D01*
X167666Y300172D01*
X167758Y300138D01*
X167849Y300100D01*
X167939Y300058D01*
X168027Y300012D01*
X168112Y299964D01*
X168196Y299911D01*
X168278Y299856D01*
X168357Y299797D01*
X168434Y299735D01*
X168509Y299671D01*
X168581Y299603D01*
X168650Y299532D01*
X168716Y299459D01*
X168780Y299383D01*
X168840Y299305D01*
X168897Y299224D01*
X168951Y299142D01*
X169001Y299057D01*
X169048Y298970D01*
X169092Y298881D01*
X169132Y298791D01*
X169169Y298699D01*
X169201Y298606D01*
X169230Y298512D01*
X169256Y298416D01*
X169277Y298320D01*
X169295Y298222D01*
X169308Y298125D01*
X169318Y298026D01*
X169324Y297928D01*
X169326Y297829D01*
X169326Y296587D01*
X164359Y296587D01*
X173884Y300313D02*
X176367Y292862D01*
X178851Y300313D01*
X189646Y301554D02*
X192750Y304038D01*
X192750Y292862D01*
X189646Y292862D02*
X195855Y292862D01*
X200441Y292862D02*
X200441Y293483D01*
X201062Y293483D01*
X201062Y292862D01*
X200441Y292862D01*
X205648Y298450D02*
X205651Y298670D01*
X205658Y298890D01*
X205672Y299109D01*
X205690Y299328D01*
X205714Y299547D01*
X205742Y299765D01*
X205776Y299982D01*
X205815Y300198D01*
X205860Y300414D01*
X205909Y300628D01*
X205964Y300841D01*
X206023Y301053D01*
X206088Y301263D01*
X206158Y301471D01*
X206232Y301678D01*
X206312Y301883D01*
X206396Y302086D01*
X206485Y302287D01*
X206579Y302486D01*
X206612Y302575D01*
X206648Y302663D01*
X206688Y302749D01*
X206731Y302834D01*
X206778Y302916D01*
X206829Y302997D01*
X206882Y303075D01*
X206939Y303151D01*
X206999Y303225D01*
X207062Y303296D01*
X207127Y303365D01*
X207196Y303431D01*
X207267Y303493D01*
X207341Y303553D01*
X207417Y303610D01*
X207495Y303664D01*
X207576Y303714D01*
X207658Y303761D01*
X207743Y303804D01*
X207829Y303844D01*
X207917Y303881D01*
X208006Y303913D01*
X208096Y303942D01*
X208188Y303968D01*
X208280Y303989D01*
X208374Y304007D01*
X208468Y304020D01*
X208562Y304030D01*
X208657Y304036D01*
X208752Y304038D01*
X208847Y304036D01*
X208942Y304030D01*
X209036Y304020D01*
X209130Y304007D01*
X209224Y303989D01*
X209316Y303968D01*
X209408Y303942D01*
X209498Y303913D01*
X209587Y303881D01*
X209675Y303844D01*
X209761Y303804D01*
X209846Y303761D01*
X209928Y303714D01*
X210009Y303664D01*
X210087Y303610D01*
X210163Y303553D01*
X210237Y303493D01*
X210308Y303431D01*
X210377Y303365D01*
X210442Y303296D01*
X210505Y303225D01*
X210565Y303151D01*
X210622Y303075D01*
X210675Y302997D01*
X210726Y302916D01*
X210773Y302833D01*
X210816Y302749D01*
X210856Y302663D01*
X210892Y302575D01*
X210925Y302486D01*
X210926Y302486D02*
X211020Y302287D01*
X211109Y302086D01*
X211193Y301883D01*
X211273Y301678D01*
X211347Y301471D01*
X211417Y301263D01*
X211482Y301053D01*
X211541Y300841D01*
X211596Y300628D01*
X211645Y300414D01*
X211690Y300198D01*
X211729Y299982D01*
X211763Y299765D01*
X211791Y299547D01*
X211815Y299328D01*
X211833Y299109D01*
X211847Y298890D01*
X211854Y298670D01*
X211857Y298450D01*
X205648Y298450D02*
X205651Y298230D01*
X205658Y298010D01*
X205672Y297791D01*
X205690Y297572D01*
X205714Y297353D01*
X205742Y297135D01*
X205776Y296918D01*
X205815Y296702D01*
X205860Y296486D01*
X205909Y296272D01*
X205964Y296059D01*
X206023Y295848D01*
X206088Y295637D01*
X206158Y295429D01*
X206232Y295222D01*
X206312Y295017D01*
X206396Y294814D01*
X206485Y294613D01*
X206579Y294414D01*
X206612Y294325D01*
X206648Y294237D01*
X206688Y294151D01*
X206731Y294066D01*
X206778Y293984D01*
X206829Y293903D01*
X206882Y293825D01*
X206939Y293749D01*
X206999Y293675D01*
X207062Y293604D01*
X207127Y293535D01*
X207196Y293469D01*
X207267Y293407D01*
X207341Y293347D01*
X207417Y293290D01*
X207495Y293236D01*
X207576Y293186D01*
X207658Y293139D01*
X207743Y293096D01*
X207829Y293056D01*
X207917Y293019D01*
X208006Y292987D01*
X208096Y292958D01*
X208188Y292932D01*
X208280Y292911D01*
X208374Y292893D01*
X208468Y292880D01*
X208562Y292870D01*
X208657Y292864D01*
X208752Y292862D01*
X210926Y294414D02*
X211020Y294613D01*
X211109Y294814D01*
X211193Y295017D01*
X211273Y295222D01*
X211347Y295429D01*
X211417Y295637D01*
X211482Y295847D01*
X211541Y296059D01*
X211596Y296272D01*
X211645Y296486D01*
X211690Y296702D01*
X211729Y296918D01*
X211763Y297135D01*
X211791Y297353D01*
X211815Y297572D01*
X211833Y297791D01*
X211847Y298010D01*
X211854Y298230D01*
X211857Y298450D01*
X210925Y294414D02*
X210892Y294325D01*
X210856Y294237D01*
X210816Y294151D01*
X210773Y294066D01*
X210726Y293984D01*
X210675Y293903D01*
X210622Y293825D01*
X210565Y293749D01*
X210505Y293675D01*
X210442Y293604D01*
X210377Y293535D01*
X210308Y293469D01*
X210237Y293407D01*
X210163Y293347D01*
X210087Y293290D01*
X210009Y293236D01*
X209928Y293186D01*
X209846Y293139D01*
X209761Y293096D01*
X209675Y293056D01*
X209587Y293019D01*
X209498Y292987D01*
X209408Y292958D01*
X209316Y292932D01*
X209224Y292911D01*
X209130Y292893D01*
X209036Y292880D01*
X208942Y292870D01*
X208847Y292864D01*
X208752Y292862D01*
X206269Y295346D02*
X211236Y301554D01*
X156887Y284988D02*
X156887Y276296D01*
X156888Y276296D02*
X156886Y276198D01*
X156880Y276101D01*
X156871Y276004D01*
X156857Y275907D01*
X156840Y275811D01*
X156819Y275716D01*
X156795Y275622D01*
X156766Y275528D01*
X156734Y275436D01*
X156699Y275345D01*
X156660Y275256D01*
X156617Y275168D01*
X156571Y275082D01*
X156522Y274998D01*
X156469Y274916D01*
X156414Y274836D01*
X156355Y274758D01*
X156293Y274683D01*
X156228Y274610D01*
X156160Y274540D01*
X156090Y274472D01*
X156017Y274407D01*
X155942Y274345D01*
X155864Y274286D01*
X155784Y274231D01*
X155702Y274178D01*
X155618Y274129D01*
X155532Y274083D01*
X155444Y274040D01*
X155355Y274001D01*
X155264Y273966D01*
X155172Y273934D01*
X155078Y273905D01*
X154984Y273881D01*
X154889Y273860D01*
X154793Y273843D01*
X154696Y273829D01*
X154599Y273820D01*
X154501Y273814D01*
X154404Y273812D01*
X153162Y273812D01*
X163024Y273812D02*
X163024Y284988D01*
X169233Y284988D02*
X163024Y278158D01*
X165508Y280642D02*
X169233Y273812D01*
D11*
X130810Y412750D02*
X130817Y413364D01*
X130840Y413977D01*
X130877Y414590D01*
X130929Y415201D01*
X130995Y415812D01*
X131077Y416420D01*
X131173Y417026D01*
X131283Y417630D01*
X131408Y418231D01*
X131548Y418829D01*
X131702Y419423D01*
X131871Y420013D01*
X132053Y420599D01*
X132250Y421180D01*
X132461Y421757D01*
X132685Y422328D01*
X132923Y422894D01*
X133175Y423454D01*
X133441Y424007D01*
X133719Y424554D01*
X134011Y425094D01*
X134316Y425627D01*
X134634Y426152D01*
X134964Y426670D01*
X135306Y427179D01*
X135661Y427680D01*
X136028Y428172D01*
X136406Y428655D01*
X136796Y429129D01*
X137198Y429593D01*
X137610Y430048D01*
X138034Y430492D01*
X138468Y430926D01*
X138912Y431350D01*
X139367Y431762D01*
X139831Y432164D01*
X140305Y432554D01*
X140788Y432932D01*
X141280Y433299D01*
X141781Y433654D01*
X142290Y433996D01*
X142808Y434326D01*
X143333Y434644D01*
X143866Y434949D01*
X144406Y435241D01*
X144953Y435519D01*
X145506Y435785D01*
X146066Y436037D01*
X146632Y436275D01*
X147203Y436499D01*
X147780Y436710D01*
X148361Y436907D01*
X148947Y437089D01*
X149537Y437258D01*
X150131Y437412D01*
X150729Y437552D01*
X151330Y437677D01*
X151934Y437787D01*
X152540Y437883D01*
X153148Y437965D01*
X153759Y438031D01*
X154370Y438083D01*
X154983Y438120D01*
X155596Y438143D01*
X156210Y438150D01*
X130810Y412750D02*
X130810Y196850D01*
X130817Y196236D01*
X130840Y195623D01*
X130877Y195010D01*
X130929Y194399D01*
X130995Y193788D01*
X131077Y193180D01*
X131173Y192574D01*
X131283Y191970D01*
X131408Y191369D01*
X131548Y190771D01*
X131702Y190177D01*
X131871Y189587D01*
X132053Y189001D01*
X132250Y188420D01*
X132461Y187843D01*
X132685Y187272D01*
X132923Y186706D01*
X133175Y186146D01*
X133441Y185593D01*
X133719Y185046D01*
X134011Y184506D01*
X134316Y183973D01*
X134634Y183448D01*
X134964Y182930D01*
X135306Y182421D01*
X135661Y181920D01*
X136028Y181428D01*
X136406Y180945D01*
X136796Y180471D01*
X137198Y180007D01*
X137610Y179552D01*
X138034Y179108D01*
X138468Y178674D01*
X138912Y178250D01*
X139367Y177838D01*
X139831Y177436D01*
X140305Y177046D01*
X140788Y176668D01*
X141280Y176301D01*
X141781Y175946D01*
X142290Y175604D01*
X142808Y175274D01*
X143333Y174956D01*
X143866Y174651D01*
X144406Y174359D01*
X144953Y174081D01*
X145506Y173815D01*
X146066Y173563D01*
X146632Y173325D01*
X147203Y173101D01*
X147780Y172890D01*
X148361Y172693D01*
X148947Y172511D01*
X149537Y172342D01*
X150131Y172188D01*
X150729Y172048D01*
X151330Y171923D01*
X151934Y171813D01*
X152540Y171717D01*
X153148Y171635D01*
X153759Y171569D01*
X154370Y171517D01*
X154983Y171480D01*
X155596Y171457D01*
X156210Y171450D01*
X605790Y171450D01*
X606404Y171457D01*
X607017Y171480D01*
X607630Y171517D01*
X608241Y171569D01*
X608852Y171635D01*
X609460Y171717D01*
X610066Y171813D01*
X610670Y171923D01*
X611271Y172048D01*
X611869Y172188D01*
X612463Y172342D01*
X613053Y172511D01*
X613639Y172693D01*
X614220Y172890D01*
X614797Y173101D01*
X615368Y173325D01*
X615934Y173563D01*
X616494Y173815D01*
X617047Y174081D01*
X617594Y174359D01*
X618134Y174651D01*
X618667Y174956D01*
X619192Y175274D01*
X619710Y175604D01*
X620219Y175946D01*
X620720Y176301D01*
X621212Y176668D01*
X621695Y177046D01*
X622169Y177436D01*
X622633Y177838D01*
X623088Y178250D01*
X623532Y178674D01*
X623966Y179108D01*
X624390Y179552D01*
X624802Y180007D01*
X625204Y180471D01*
X625594Y180945D01*
X625972Y181428D01*
X626339Y181920D01*
X626694Y182421D01*
X627036Y182930D01*
X627366Y183448D01*
X627684Y183973D01*
X627989Y184506D01*
X628281Y185046D01*
X628559Y185593D01*
X628825Y186146D01*
X629077Y186706D01*
X629315Y187272D01*
X629539Y187843D01*
X629750Y188420D01*
X629947Y189001D01*
X630129Y189587D01*
X630298Y190177D01*
X630452Y190771D01*
X630592Y191369D01*
X630717Y191970D01*
X630827Y192574D01*
X630923Y193180D01*
X631005Y193788D01*
X631071Y194399D01*
X631123Y195010D01*
X631160Y195623D01*
X631183Y196236D01*
X631190Y196850D01*
X631190Y412750D01*
X631183Y413364D01*
X631160Y413977D01*
X631123Y414590D01*
X631071Y415201D01*
X631005Y415812D01*
X630923Y416420D01*
X630827Y417026D01*
X630717Y417630D01*
X630592Y418231D01*
X630452Y418829D01*
X630298Y419423D01*
X630129Y420013D01*
X629947Y420599D01*
X629750Y421180D01*
X629539Y421757D01*
X629315Y422328D01*
X629077Y422894D01*
X628825Y423454D01*
X628559Y424007D01*
X628281Y424554D01*
X627989Y425094D01*
X627684Y425627D01*
X627366Y426152D01*
X627036Y426670D01*
X626694Y427179D01*
X626339Y427680D01*
X625972Y428172D01*
X625594Y428655D01*
X625204Y429129D01*
X624802Y429593D01*
X624390Y430048D01*
X623966Y430492D01*
X623532Y430926D01*
X623088Y431350D01*
X622633Y431762D01*
X622169Y432164D01*
X621695Y432554D01*
X621212Y432932D01*
X620720Y433299D01*
X620219Y433654D01*
X619710Y433996D01*
X619192Y434326D01*
X618667Y434644D01*
X618134Y434949D01*
X617594Y435241D01*
X617047Y435519D01*
X616494Y435785D01*
X615934Y436037D01*
X615368Y436275D01*
X614797Y436499D01*
X614220Y436710D01*
X613639Y436907D01*
X613053Y437089D01*
X612463Y437258D01*
X611869Y437412D01*
X611271Y437552D01*
X610670Y437677D01*
X610066Y437787D01*
X609460Y437883D01*
X608852Y437965D01*
X608241Y438031D01*
X607630Y438083D01*
X607017Y438120D01*
X606404Y438143D01*
X605790Y438150D01*
X156210Y438150D01*
D12*
X337749Y155321D02*
X339838Y155321D01*
X337749Y155321D02*
X337660Y155323D01*
X337572Y155329D01*
X337484Y155338D01*
X337396Y155351D01*
X337309Y155368D01*
X337223Y155388D01*
X337138Y155413D01*
X337053Y155440D01*
X336970Y155472D01*
X336889Y155506D01*
X336809Y155545D01*
X336731Y155586D01*
X336654Y155631D01*
X336580Y155679D01*
X336507Y155730D01*
X336437Y155784D01*
X336370Y155842D01*
X336304Y155902D01*
X336242Y155964D01*
X336182Y156030D01*
X336124Y156097D01*
X336070Y156167D01*
X336019Y156240D01*
X335971Y156314D01*
X335926Y156391D01*
X335885Y156469D01*
X335846Y156549D01*
X335812Y156630D01*
X335780Y156713D01*
X335753Y156798D01*
X335728Y156883D01*
X335708Y156969D01*
X335691Y157056D01*
X335678Y157144D01*
X335669Y157232D01*
X335663Y157320D01*
X335661Y157409D01*
X335661Y162631D01*
X335663Y162722D01*
X335669Y162813D01*
X335679Y162904D01*
X335693Y162994D01*
X335710Y163083D01*
X335732Y163171D01*
X335758Y163259D01*
X335787Y163345D01*
X335820Y163430D01*
X335857Y163513D01*
X335897Y163595D01*
X335941Y163675D01*
X335988Y163753D01*
X336039Y163829D01*
X336092Y163902D01*
X336149Y163973D01*
X336210Y164042D01*
X336273Y164107D01*
X336338Y164170D01*
X336407Y164230D01*
X336478Y164288D01*
X336551Y164341D01*
X336627Y164392D01*
X336705Y164439D01*
X336785Y164483D01*
X336867Y164523D01*
X336950Y164560D01*
X337035Y164593D01*
X337121Y164622D01*
X337209Y164648D01*
X337297Y164670D01*
X337386Y164687D01*
X337476Y164701D01*
X337567Y164711D01*
X337658Y164717D01*
X337749Y164719D01*
X339838Y164719D01*
X361061Y164719D02*
X361061Y155321D01*
X361061Y164719D02*
X363672Y164719D01*
X363772Y164717D01*
X363872Y164711D01*
X363971Y164702D01*
X364071Y164688D01*
X364169Y164671D01*
X364267Y164650D01*
X364364Y164626D01*
X364460Y164597D01*
X364555Y164565D01*
X364648Y164530D01*
X364740Y164491D01*
X364831Y164448D01*
X364919Y164402D01*
X365006Y164352D01*
X365091Y164300D01*
X365174Y164244D01*
X365255Y164185D01*
X365333Y164122D01*
X365409Y164057D01*
X365483Y163989D01*
X365553Y163919D01*
X365621Y163845D01*
X365686Y163769D01*
X365749Y163691D01*
X365808Y163610D01*
X365864Y163527D01*
X365916Y163442D01*
X365966Y163355D01*
X366012Y163267D01*
X366055Y163176D01*
X366094Y163084D01*
X366129Y162991D01*
X366161Y162896D01*
X366190Y162800D01*
X366214Y162703D01*
X366235Y162605D01*
X366252Y162507D01*
X366266Y162407D01*
X366275Y162308D01*
X366281Y162208D01*
X366283Y162108D01*
X366282Y162108D02*
X366282Y157932D01*
X366283Y157932D02*
X366281Y157832D01*
X366275Y157732D01*
X366266Y157633D01*
X366252Y157533D01*
X366235Y157435D01*
X366214Y157337D01*
X366190Y157240D01*
X366161Y157144D01*
X366129Y157049D01*
X366094Y156956D01*
X366055Y156864D01*
X366012Y156773D01*
X365966Y156685D01*
X365916Y156598D01*
X365864Y156513D01*
X365808Y156430D01*
X365749Y156349D01*
X365686Y156271D01*
X365621Y156195D01*
X365553Y156121D01*
X365483Y156051D01*
X365409Y155983D01*
X365333Y155918D01*
X365255Y155855D01*
X365174Y155796D01*
X365091Y155740D01*
X365006Y155688D01*
X364919Y155638D01*
X364831Y155592D01*
X364740Y155549D01*
X364648Y155510D01*
X364555Y155475D01*
X364460Y155443D01*
X364364Y155414D01*
X364267Y155390D01*
X364169Y155369D01*
X364071Y155352D01*
X363971Y155338D01*
X363872Y155329D01*
X363772Y155323D01*
X363672Y155321D01*
X361061Y155321D01*
X386461Y158976D02*
X392726Y158976D01*
X411861Y158976D02*
X418126Y158976D01*
X414994Y162108D02*
X414994Y155843D01*
D10*
X590818Y156266D02*
X590818Y164338D01*
X590819Y156266D02*
X590821Y156155D01*
X590827Y156045D01*
X590837Y155934D01*
X590851Y155824D01*
X590868Y155715D01*
X590890Y155606D01*
X590915Y155498D01*
X590945Y155392D01*
X590978Y155286D01*
X591015Y155181D01*
X591055Y155078D01*
X591100Y154977D01*
X591147Y154877D01*
X591199Y154778D01*
X591254Y154682D01*
X591312Y154588D01*
X591373Y154496D01*
X591438Y154406D01*
X591506Y154318D01*
X591577Y154233D01*
X591651Y154151D01*
X591728Y154071D01*
X591808Y153994D01*
X591890Y153920D01*
X591975Y153849D01*
X592063Y153781D01*
X592153Y153716D01*
X592245Y153655D01*
X592339Y153597D01*
X592435Y153542D01*
X592534Y153490D01*
X592634Y153443D01*
X592735Y153398D01*
X592838Y153358D01*
X592943Y153321D01*
X593049Y153288D01*
X593155Y153258D01*
X593263Y153233D01*
X593372Y153211D01*
X593481Y153194D01*
X593591Y153180D01*
X593702Y153170D01*
X593812Y153164D01*
X593923Y153162D01*
X594034Y153164D01*
X594144Y153170D01*
X594255Y153180D01*
X594365Y153194D01*
X594474Y153211D01*
X594583Y153233D01*
X594691Y153258D01*
X594797Y153288D01*
X594903Y153321D01*
X595008Y153358D01*
X595111Y153398D01*
X595212Y153443D01*
X595312Y153490D01*
X595411Y153542D01*
X595507Y153597D01*
X595601Y153655D01*
X595693Y153716D01*
X595783Y153781D01*
X595871Y153849D01*
X595956Y153920D01*
X596038Y153994D01*
X596118Y154071D01*
X596195Y154151D01*
X596269Y154233D01*
X596340Y154318D01*
X596408Y154406D01*
X596473Y154496D01*
X596534Y154588D01*
X596592Y154682D01*
X596647Y154778D01*
X596699Y154877D01*
X596746Y154977D01*
X596791Y155078D01*
X596831Y155181D01*
X596868Y155286D01*
X596901Y155392D01*
X596931Y155498D01*
X596956Y155606D01*
X596978Y155715D01*
X596995Y155824D01*
X597009Y155934D01*
X597019Y156045D01*
X597025Y156155D01*
X597027Y156266D01*
X597027Y164338D01*
X606044Y164338D02*
X606148Y164336D01*
X606253Y164330D01*
X606357Y164320D01*
X606460Y164307D01*
X606563Y164289D01*
X606666Y164268D01*
X606767Y164243D01*
X606868Y164214D01*
X606967Y164181D01*
X607065Y164145D01*
X607161Y164105D01*
X607256Y164061D01*
X607350Y164014D01*
X607441Y163964D01*
X607530Y163910D01*
X607618Y163853D01*
X607703Y163792D01*
X607786Y163728D01*
X607866Y163662D01*
X607944Y163592D01*
X608020Y163520D01*
X608092Y163444D01*
X608162Y163366D01*
X608228Y163286D01*
X608292Y163203D01*
X608353Y163118D01*
X608410Y163030D01*
X608464Y162941D01*
X608514Y162850D01*
X608561Y162756D01*
X608605Y162661D01*
X608645Y162565D01*
X608681Y162467D01*
X608714Y162368D01*
X608743Y162267D01*
X608768Y162166D01*
X608789Y162063D01*
X608807Y161960D01*
X608820Y161857D01*
X608830Y161753D01*
X608836Y161648D01*
X608838Y161544D01*
X606044Y164339D02*
X605925Y164337D01*
X605807Y164331D01*
X605688Y164321D01*
X605570Y164308D01*
X605453Y164290D01*
X605336Y164268D01*
X605220Y164243D01*
X605105Y164214D01*
X604990Y164181D01*
X604877Y164144D01*
X604766Y164104D01*
X604655Y164060D01*
X604547Y164012D01*
X604440Y163961D01*
X604334Y163906D01*
X604231Y163847D01*
X604129Y163786D01*
X604030Y163721D01*
X603932Y163652D01*
X603838Y163581D01*
X603745Y163506D01*
X603655Y163429D01*
X603568Y163348D01*
X603483Y163265D01*
X603401Y163179D01*
X603322Y163090D01*
X603246Y162999D01*
X603173Y162905D01*
X603104Y162809D01*
X603037Y162710D01*
X602974Y162610D01*
X602914Y162507D01*
X602857Y162403D01*
X602805Y162296D01*
X602755Y162188D01*
X602709Y162079D01*
X602667Y161967D01*
X602629Y161855D01*
X607907Y159371D02*
X607982Y159445D01*
X608054Y159522D01*
X608124Y159601D01*
X608191Y159683D01*
X608255Y159767D01*
X608316Y159853D01*
X608374Y159941D01*
X608429Y160032D01*
X608481Y160124D01*
X608529Y160218D01*
X608574Y160313D01*
X608616Y160411D01*
X608654Y160509D01*
X608689Y160609D01*
X608720Y160710D01*
X608747Y160812D01*
X608771Y160915D01*
X608792Y161018D01*
X608808Y161123D01*
X608821Y161228D01*
X608831Y161333D01*
X608836Y161438D01*
X608838Y161544D01*
X607907Y159371D02*
X602629Y153162D01*
X608838Y153162D01*
D13*
X562300Y76200D02*
X562318Y77672D01*
X562372Y79144D01*
X562463Y80614D01*
X562589Y82081D01*
X562751Y83545D01*
X562949Y85004D01*
X563183Y86458D01*
X563453Y87905D01*
X563758Y89346D01*
X564098Y90779D01*
X564473Y92203D01*
X564884Y93617D01*
X565328Y95021D01*
X565807Y96413D01*
X566320Y97794D01*
X566867Y99161D01*
X567447Y100514D01*
X568061Y101853D01*
X568707Y103177D01*
X569385Y104484D01*
X570095Y105774D01*
X570836Y107046D01*
X571609Y108300D01*
X572412Y109534D01*
X573245Y110748D01*
X574108Y111942D01*
X574999Y113114D01*
X575919Y114264D01*
X576867Y115390D01*
X577843Y116494D01*
X578845Y117572D01*
X579874Y118626D01*
X580928Y119655D01*
X582006Y120657D01*
X583110Y121633D01*
X584236Y122581D01*
X585386Y123501D01*
X586558Y124392D01*
X587752Y125255D01*
X588966Y126088D01*
X590200Y126891D01*
X591454Y127664D01*
X592726Y128405D01*
X594016Y129115D01*
X595323Y129793D01*
X596647Y130439D01*
X597986Y131053D01*
X599339Y131633D01*
X600706Y132180D01*
X602087Y132693D01*
X603479Y133172D01*
X604883Y133616D01*
X606297Y134027D01*
X607721Y134402D01*
X609154Y134742D01*
X610595Y135047D01*
X612042Y135317D01*
X613496Y135551D01*
X614955Y135749D01*
X616419Y135911D01*
X617886Y136037D01*
X619356Y136128D01*
X620828Y136182D01*
X622300Y136200D01*
X623772Y136182D01*
X625244Y136128D01*
X626714Y136037D01*
X628181Y135911D01*
X629645Y135749D01*
X631104Y135551D01*
X632558Y135317D01*
X634005Y135047D01*
X635446Y134742D01*
X636879Y134402D01*
X638303Y134027D01*
X639717Y133616D01*
X641121Y133172D01*
X642513Y132693D01*
X643894Y132180D01*
X645261Y131633D01*
X646614Y131053D01*
X647953Y130439D01*
X649277Y129793D01*
X650584Y129115D01*
X651874Y128405D01*
X653146Y127664D01*
X654400Y126891D01*
X655634Y126088D01*
X656848Y125255D01*
X658042Y124392D01*
X659214Y123501D01*
X660364Y122581D01*
X661490Y121633D01*
X662594Y120657D01*
X663672Y119655D01*
X664726Y118626D01*
X665755Y117572D01*
X666757Y116494D01*
X667733Y115390D01*
X668681Y114264D01*
X669601Y113114D01*
X670492Y111942D01*
X671355Y110748D01*
X672188Y109534D01*
X672991Y108300D01*
X673764Y107046D01*
X674505Y105774D01*
X675215Y104484D01*
X675893Y103177D01*
X676539Y101853D01*
X677153Y100514D01*
X677733Y99161D01*
X678280Y97794D01*
X678793Y96413D01*
X679272Y95021D01*
X679716Y93617D01*
X680127Y92203D01*
X680502Y90779D01*
X680842Y89346D01*
X681147Y87905D01*
X681417Y86458D01*
X681651Y85004D01*
X681849Y83545D01*
X682011Y82081D01*
X682137Y80614D01*
X682228Y79144D01*
X682282Y77672D01*
X682300Y76200D01*
X682282Y74728D01*
X682228Y73256D01*
X682137Y71786D01*
X682011Y70319D01*
X681849Y68855D01*
X681651Y67396D01*
X681417Y65942D01*
X681147Y64495D01*
X680842Y63054D01*
X680502Y61621D01*
X680127Y60197D01*
X679716Y58783D01*
X679272Y57379D01*
X678793Y55987D01*
X678280Y54606D01*
X677733Y53239D01*
X677153Y51886D01*
X676539Y50547D01*
X675893Y49223D01*
X675215Y47916D01*
X674505Y46626D01*
X673764Y45354D01*
X672991Y44100D01*
X672188Y42866D01*
X671355Y41652D01*
X670492Y40458D01*
X669601Y39286D01*
X668681Y38136D01*
X667733Y37010D01*
X666757Y35906D01*
X665755Y34828D01*
X664726Y33774D01*
X663672Y32745D01*
X662594Y31743D01*
X661490Y30767D01*
X660364Y29819D01*
X659214Y28899D01*
X658042Y28008D01*
X656848Y27145D01*
X655634Y26312D01*
X654400Y25509D01*
X653146Y24736D01*
X651874Y23995D01*
X650584Y23285D01*
X649277Y22607D01*
X647953Y21961D01*
X646614Y21347D01*
X645261Y20767D01*
X643894Y20220D01*
X642513Y19707D01*
X641121Y19228D01*
X639717Y18784D01*
X638303Y18373D01*
X636879Y17998D01*
X635446Y17658D01*
X634005Y17353D01*
X632558Y17083D01*
X631104Y16849D01*
X629645Y16651D01*
X628181Y16489D01*
X626714Y16363D01*
X625244Y16272D01*
X623772Y16218D01*
X622300Y16200D01*
X620828Y16218D01*
X619356Y16272D01*
X617886Y16363D01*
X616419Y16489D01*
X614955Y16651D01*
X613496Y16849D01*
X612042Y17083D01*
X610595Y17353D01*
X609154Y17658D01*
X607721Y17998D01*
X606297Y18373D01*
X604883Y18784D01*
X603479Y19228D01*
X602087Y19707D01*
X600706Y20220D01*
X599339Y20767D01*
X597986Y21347D01*
X596647Y21961D01*
X595323Y22607D01*
X594016Y23285D01*
X592726Y23995D01*
X591454Y24736D01*
X590200Y25509D01*
X588966Y26312D01*
X587752Y27145D01*
X586558Y28008D01*
X585386Y28899D01*
X584236Y29819D01*
X583110Y30767D01*
X582006Y31743D01*
X580928Y32745D01*
X579874Y33774D01*
X578845Y34828D01*
X577843Y35906D01*
X576867Y37010D01*
X575919Y38136D01*
X574999Y39286D01*
X574108Y40458D01*
X573245Y41652D01*
X572412Y42866D01*
X571609Y44100D01*
X570836Y45354D01*
X570095Y46626D01*
X569385Y47916D01*
X568707Y49223D01*
X568061Y50547D01*
X567447Y51886D01*
X566867Y53239D01*
X566320Y54606D01*
X565807Y55987D01*
X565328Y57379D01*
X564884Y58783D01*
X564473Y60197D01*
X564098Y61621D01*
X563758Y63054D01*
X563453Y64495D01*
X563183Y65942D01*
X562949Y67396D01*
X562751Y68855D01*
X562589Y70319D01*
X562463Y71786D01*
X562372Y73256D01*
X562318Y74728D01*
X562300Y76200D01*
X610800Y76200D02*
X610803Y76482D01*
X610814Y76764D01*
X610831Y77046D01*
X610855Y77327D01*
X610886Y77608D01*
X610924Y77887D01*
X610969Y78166D01*
X611021Y78444D01*
X611079Y78720D01*
X611145Y78994D01*
X611217Y79267D01*
X611295Y79538D01*
X611380Y79807D01*
X611472Y80074D01*
X611571Y80339D01*
X611675Y80601D01*
X611787Y80860D01*
X611904Y81117D01*
X612028Y81371D01*
X612158Y81621D01*
X612294Y81868D01*
X612436Y82112D01*
X612584Y82352D01*
X612738Y82589D01*
X612898Y82822D01*
X613063Y83051D01*
X613234Y83275D01*
X613410Y83496D01*
X613592Y83711D01*
X613779Y83923D01*
X613971Y84130D01*
X614168Y84332D01*
X614370Y84529D01*
X614577Y84721D01*
X614789Y84908D01*
X615004Y85090D01*
X615225Y85266D01*
X615449Y85437D01*
X615678Y85602D01*
X615911Y85762D01*
X616148Y85916D01*
X616388Y86064D01*
X616632Y86206D01*
X616879Y86342D01*
X617129Y86472D01*
X617383Y86596D01*
X617640Y86713D01*
X617899Y86825D01*
X618161Y86929D01*
X618426Y87028D01*
X618693Y87120D01*
X618962Y87205D01*
X619233Y87283D01*
X619506Y87355D01*
X619780Y87421D01*
X620056Y87479D01*
X620334Y87531D01*
X620613Y87576D01*
X620892Y87614D01*
X621173Y87645D01*
X621454Y87669D01*
X621736Y87686D01*
X622018Y87697D01*
X622300Y87700D01*
X622582Y87697D01*
X622864Y87686D01*
X623146Y87669D01*
X623427Y87645D01*
X623708Y87614D01*
X623987Y87576D01*
X624266Y87531D01*
X624544Y87479D01*
X624820Y87421D01*
X625094Y87355D01*
X625367Y87283D01*
X625638Y87205D01*
X625907Y87120D01*
X626174Y87028D01*
X626439Y86929D01*
X626701Y86825D01*
X626960Y86713D01*
X627217Y86596D01*
X627471Y86472D01*
X627721Y86342D01*
X627968Y86206D01*
X628212Y86064D01*
X628452Y85916D01*
X628689Y85762D01*
X628922Y85602D01*
X629151Y85437D01*
X629375Y85266D01*
X629596Y85090D01*
X629811Y84908D01*
X630023Y84721D01*
X630230Y84529D01*
X630432Y84332D01*
X630629Y84130D01*
X630821Y83923D01*
X631008Y83711D01*
X631190Y83496D01*
X631366Y83275D01*
X631537Y83051D01*
X631702Y82822D01*
X631862Y82589D01*
X632016Y82352D01*
X632164Y82112D01*
X632306Y81868D01*
X632442Y81621D01*
X632572Y81371D01*
X632696Y81117D01*
X632813Y80860D01*
X632925Y80601D01*
X633029Y80339D01*
X633128Y80074D01*
X633220Y79807D01*
X633305Y79538D01*
X633383Y79267D01*
X633455Y78994D01*
X633521Y78720D01*
X633579Y78444D01*
X633631Y78166D01*
X633676Y77887D01*
X633714Y77608D01*
X633745Y77327D01*
X633769Y77046D01*
X633786Y76764D01*
X633797Y76482D01*
X633800Y76200D01*
X633797Y75918D01*
X633786Y75636D01*
X633769Y75354D01*
X633745Y75073D01*
X633714Y74792D01*
X633676Y74513D01*
X633631Y74234D01*
X633579Y73956D01*
X633521Y73680D01*
X633455Y73406D01*
X633383Y73133D01*
X633305Y72862D01*
X633220Y72593D01*
X633128Y72326D01*
X633029Y72061D01*
X632925Y71799D01*
X632813Y71540D01*
X632696Y71283D01*
X632572Y71029D01*
X632442Y70779D01*
X632306Y70532D01*
X632164Y70288D01*
X632016Y70048D01*
X631862Y69811D01*
X631702Y69578D01*
X631537Y69349D01*
X631366Y69125D01*
X631190Y68904D01*
X631008Y68689D01*
X630821Y68477D01*
X630629Y68270D01*
X630432Y68068D01*
X630230Y67871D01*
X630023Y67679D01*
X629811Y67492D01*
X629596Y67310D01*
X629375Y67134D01*
X629151Y66963D01*
X628922Y66798D01*
X628689Y66638D01*
X628452Y66484D01*
X628212Y66336D01*
X627968Y66194D01*
X627721Y66058D01*
X627471Y65928D01*
X627217Y65804D01*
X626960Y65687D01*
X626701Y65575D01*
X626439Y65471D01*
X626174Y65372D01*
X625907Y65280D01*
X625638Y65195D01*
X625367Y65117D01*
X625094Y65045D01*
X624820Y64979D01*
X624544Y64921D01*
X624266Y64869D01*
X623987Y64824D01*
X623708Y64786D01*
X623427Y64755D01*
X623146Y64731D01*
X622864Y64714D01*
X622582Y64703D01*
X622300Y64700D01*
X622018Y64703D01*
X621736Y64714D01*
X621454Y64731D01*
X621173Y64755D01*
X620892Y64786D01*
X620613Y64824D01*
X620334Y64869D01*
X620056Y64921D01*
X619780Y64979D01*
X619506Y65045D01*
X619233Y65117D01*
X618962Y65195D01*
X618693Y65280D01*
X618426Y65372D01*
X618161Y65471D01*
X617899Y65575D01*
X617640Y65687D01*
X617383Y65804D01*
X617129Y65928D01*
X616879Y66058D01*
X616632Y66194D01*
X616388Y66336D01*
X616148Y66484D01*
X615911Y66638D01*
X615678Y66798D01*
X615449Y66963D01*
X615225Y67134D01*
X615004Y67310D01*
X614789Y67492D01*
X614577Y67679D01*
X614370Y67871D01*
X614168Y68068D01*
X613971Y68270D01*
X613779Y68477D01*
X613592Y68689D01*
X613410Y68904D01*
X613234Y69125D01*
X613063Y69349D01*
X612898Y69578D01*
X612738Y69811D01*
X612584Y70048D01*
X612436Y70288D01*
X612294Y70532D01*
X612158Y70779D01*
X612028Y71029D01*
X611904Y71283D01*
X611787Y71540D01*
X611675Y71799D01*
X611571Y72061D01*
X611472Y72326D01*
X611380Y72593D01*
X611295Y72862D01*
X611217Y73133D01*
X611145Y73406D01*
X611079Y73680D01*
X611021Y73956D01*
X610969Y74234D01*
X610924Y74513D01*
X610886Y74792D01*
X610855Y75073D01*
X610831Y75354D01*
X610814Y75636D01*
X610803Y75918D01*
X610800Y76200D01*
D14*
X605597Y43252D02*
X597808Y43252D01*
X601703Y47146D02*
X601703Y39357D01*
X605597Y108252D02*
X597808Y108252D01*
D10*
X559562Y143566D02*
X559562Y151638D01*
X559562Y143566D02*
X559564Y143455D01*
X559570Y143345D01*
X559580Y143234D01*
X559594Y143124D01*
X559611Y143015D01*
X559633Y142906D01*
X559658Y142798D01*
X559688Y142692D01*
X559721Y142586D01*
X559758Y142481D01*
X559798Y142378D01*
X559843Y142277D01*
X559890Y142177D01*
X559942Y142078D01*
X559997Y141982D01*
X560055Y141888D01*
X560116Y141796D01*
X560181Y141706D01*
X560249Y141618D01*
X560320Y141533D01*
X560394Y141451D01*
X560471Y141371D01*
X560551Y141294D01*
X560633Y141220D01*
X560718Y141149D01*
X560806Y141081D01*
X560896Y141016D01*
X560988Y140955D01*
X561082Y140897D01*
X561178Y140842D01*
X561277Y140790D01*
X561377Y140743D01*
X561478Y140698D01*
X561581Y140658D01*
X561686Y140621D01*
X561792Y140588D01*
X561898Y140558D01*
X562006Y140533D01*
X562115Y140511D01*
X562224Y140494D01*
X562334Y140480D01*
X562445Y140470D01*
X562555Y140464D01*
X562666Y140462D01*
X562777Y140464D01*
X562887Y140470D01*
X562998Y140480D01*
X563108Y140494D01*
X563217Y140511D01*
X563326Y140533D01*
X563434Y140558D01*
X563540Y140588D01*
X563646Y140621D01*
X563751Y140658D01*
X563854Y140698D01*
X563955Y140743D01*
X564055Y140790D01*
X564154Y140842D01*
X564250Y140897D01*
X564344Y140955D01*
X564436Y141016D01*
X564526Y141081D01*
X564614Y141149D01*
X564699Y141220D01*
X564781Y141294D01*
X564861Y141371D01*
X564938Y141451D01*
X565012Y141533D01*
X565083Y141618D01*
X565151Y141706D01*
X565216Y141796D01*
X565277Y141888D01*
X565335Y141982D01*
X565390Y142078D01*
X565442Y142177D01*
X565489Y142277D01*
X565534Y142378D01*
X565574Y142481D01*
X565611Y142586D01*
X565644Y142692D01*
X565674Y142798D01*
X565699Y142906D01*
X565721Y143015D01*
X565738Y143124D01*
X565752Y143234D01*
X565762Y143345D01*
X565768Y143455D01*
X565770Y143566D01*
X565771Y143566D02*
X565771Y151638D01*
X571373Y140462D02*
X574477Y140462D01*
X574588Y140464D01*
X574698Y140470D01*
X574809Y140480D01*
X574919Y140494D01*
X575028Y140511D01*
X575137Y140533D01*
X575245Y140558D01*
X575351Y140588D01*
X575457Y140621D01*
X575562Y140658D01*
X575665Y140698D01*
X575766Y140743D01*
X575866Y140790D01*
X575965Y140842D01*
X576061Y140897D01*
X576155Y140955D01*
X576247Y141016D01*
X576337Y141081D01*
X576425Y141149D01*
X576510Y141220D01*
X576592Y141294D01*
X576672Y141371D01*
X576749Y141451D01*
X576823Y141533D01*
X576894Y141618D01*
X576962Y141706D01*
X577027Y141796D01*
X577088Y141888D01*
X577146Y141982D01*
X577201Y142078D01*
X577253Y142177D01*
X577300Y142277D01*
X577345Y142378D01*
X577385Y142481D01*
X577422Y142586D01*
X577455Y142692D01*
X577485Y142798D01*
X577510Y142906D01*
X577532Y143015D01*
X577549Y143124D01*
X577563Y143234D01*
X577573Y143345D01*
X577579Y143455D01*
X577581Y143566D01*
X577579Y143677D01*
X577573Y143787D01*
X577563Y143898D01*
X577549Y144008D01*
X577532Y144117D01*
X577510Y144226D01*
X577485Y144334D01*
X577455Y144440D01*
X577422Y144546D01*
X577385Y144651D01*
X577345Y144754D01*
X577300Y144855D01*
X577253Y144955D01*
X577201Y145054D01*
X577146Y145150D01*
X577088Y145244D01*
X577027Y145336D01*
X576962Y145426D01*
X576894Y145514D01*
X576823Y145599D01*
X576749Y145681D01*
X576672Y145761D01*
X576592Y145838D01*
X576510Y145912D01*
X576425Y145983D01*
X576337Y146051D01*
X576247Y146116D01*
X576155Y146177D01*
X576061Y146235D01*
X575965Y146290D01*
X575866Y146342D01*
X575766Y146389D01*
X575665Y146434D01*
X575562Y146474D01*
X575457Y146511D01*
X575351Y146544D01*
X575245Y146574D01*
X575137Y146599D01*
X575028Y146621D01*
X574919Y146638D01*
X574809Y146652D01*
X574698Y146662D01*
X574588Y146668D01*
X574477Y146670D01*
X575098Y151638D02*
X571373Y151638D01*
X575098Y151638D02*
X575197Y151636D01*
X575295Y151630D01*
X575394Y151620D01*
X575491Y151607D01*
X575589Y151589D01*
X575685Y151568D01*
X575781Y151542D01*
X575875Y151513D01*
X575968Y151481D01*
X576060Y151444D01*
X576150Y151404D01*
X576239Y151360D01*
X576326Y151313D01*
X576411Y151263D01*
X576493Y151209D01*
X576574Y151152D01*
X576652Y151092D01*
X576728Y151028D01*
X576801Y150962D01*
X576872Y150893D01*
X576940Y150821D01*
X577004Y150746D01*
X577066Y150669D01*
X577125Y150590D01*
X577180Y150508D01*
X577233Y150424D01*
X577281Y150339D01*
X577327Y150251D01*
X577369Y150161D01*
X577407Y150070D01*
X577441Y149978D01*
X577472Y149884D01*
X577499Y149789D01*
X577523Y149693D01*
X577542Y149596D01*
X577558Y149499D01*
X577570Y149401D01*
X577578Y149302D01*
X577582Y149203D01*
X577582Y149105D01*
X577578Y149006D01*
X577570Y148907D01*
X577558Y148809D01*
X577542Y148712D01*
X577523Y148615D01*
X577499Y148519D01*
X577472Y148424D01*
X577441Y148330D01*
X577407Y148238D01*
X577369Y148147D01*
X577327Y148057D01*
X577281Y147969D01*
X577233Y147884D01*
X577180Y147800D01*
X577125Y147718D01*
X577066Y147639D01*
X577004Y147562D01*
X576940Y147487D01*
X576872Y147415D01*
X576801Y147346D01*
X576728Y147280D01*
X576652Y147216D01*
X576574Y147156D01*
X576493Y147099D01*
X576411Y147045D01*
X576326Y146995D01*
X576239Y146948D01*
X576150Y146904D01*
X576060Y146864D01*
X575968Y146827D01*
X575875Y146795D01*
X575781Y146766D01*
X575685Y146740D01*
X575589Y146719D01*
X575491Y146701D01*
X575394Y146688D01*
X575295Y146678D01*
X575197Y146672D01*
X575098Y146670D01*
X575098Y146671D02*
X572615Y146671D01*
D15*
X320040Y158750D03*
D10*
X311912Y164592D02*
X311912Y175768D01*
X315016Y175768D01*
X315127Y175766D01*
X315237Y175760D01*
X315348Y175750D01*
X315458Y175736D01*
X315567Y175719D01*
X315676Y175697D01*
X315784Y175672D01*
X315890Y175642D01*
X315996Y175609D01*
X316101Y175572D01*
X316204Y175532D01*
X316305Y175487D01*
X316405Y175440D01*
X316504Y175388D01*
X316600Y175333D01*
X316694Y175275D01*
X316786Y175214D01*
X316876Y175149D01*
X316964Y175081D01*
X317049Y175010D01*
X317131Y174936D01*
X317211Y174859D01*
X317288Y174779D01*
X317362Y174697D01*
X317433Y174612D01*
X317501Y174524D01*
X317566Y174434D01*
X317627Y174342D01*
X317685Y174248D01*
X317740Y174152D01*
X317792Y174053D01*
X317839Y173953D01*
X317884Y173852D01*
X317924Y173749D01*
X317961Y173644D01*
X317994Y173538D01*
X318024Y173432D01*
X318049Y173324D01*
X318071Y173215D01*
X318088Y173106D01*
X318102Y172996D01*
X318112Y172885D01*
X318118Y172775D01*
X318120Y172664D01*
X318118Y172553D01*
X318112Y172443D01*
X318102Y172332D01*
X318088Y172222D01*
X318071Y172113D01*
X318049Y172004D01*
X318024Y171896D01*
X317994Y171790D01*
X317961Y171684D01*
X317924Y171579D01*
X317884Y171476D01*
X317839Y171375D01*
X317792Y171275D01*
X317740Y171176D01*
X317685Y171080D01*
X317627Y170986D01*
X317566Y170894D01*
X317501Y170804D01*
X317433Y170716D01*
X317362Y170631D01*
X317288Y170549D01*
X317211Y170469D01*
X317131Y170392D01*
X317049Y170318D01*
X316964Y170247D01*
X316876Y170179D01*
X316786Y170114D01*
X316694Y170053D01*
X316600Y169995D01*
X316504Y169940D01*
X316405Y169888D01*
X316305Y169841D01*
X316204Y169796D01*
X316101Y169756D01*
X315996Y169719D01*
X315890Y169686D01*
X315784Y169656D01*
X315676Y169631D01*
X315567Y169609D01*
X315458Y169592D01*
X315348Y169578D01*
X315237Y169568D01*
X315127Y169562D01*
X315016Y169560D01*
X315016Y169559D02*
X311912Y169559D01*
X315637Y169559D02*
X318121Y164592D01*
X323250Y167696D02*
X323252Y167807D01*
X323258Y167917D01*
X323268Y168028D01*
X323282Y168138D01*
X323299Y168247D01*
X323321Y168356D01*
X323346Y168464D01*
X323376Y168570D01*
X323409Y168676D01*
X323446Y168781D01*
X323486Y168884D01*
X323531Y168985D01*
X323578Y169085D01*
X323630Y169184D01*
X323685Y169280D01*
X323743Y169374D01*
X323804Y169466D01*
X323869Y169556D01*
X323937Y169644D01*
X324008Y169729D01*
X324082Y169811D01*
X324159Y169891D01*
X324239Y169968D01*
X324321Y170042D01*
X324406Y170113D01*
X324494Y170181D01*
X324584Y170246D01*
X324676Y170307D01*
X324770Y170365D01*
X324866Y170420D01*
X324965Y170472D01*
X325065Y170519D01*
X325166Y170564D01*
X325269Y170604D01*
X325374Y170641D01*
X325480Y170674D01*
X325586Y170704D01*
X325694Y170729D01*
X325803Y170751D01*
X325912Y170768D01*
X326022Y170782D01*
X326133Y170792D01*
X326243Y170798D01*
X326354Y170800D01*
X326465Y170798D01*
X326575Y170792D01*
X326686Y170782D01*
X326796Y170768D01*
X326905Y170751D01*
X327014Y170729D01*
X327122Y170704D01*
X327228Y170674D01*
X327334Y170641D01*
X327439Y170604D01*
X327542Y170564D01*
X327643Y170519D01*
X327743Y170472D01*
X327842Y170420D01*
X327938Y170365D01*
X328032Y170307D01*
X328124Y170246D01*
X328214Y170181D01*
X328302Y170113D01*
X328387Y170042D01*
X328469Y169968D01*
X328549Y169891D01*
X328626Y169811D01*
X328700Y169729D01*
X328771Y169644D01*
X328839Y169556D01*
X328904Y169466D01*
X328965Y169374D01*
X329023Y169280D01*
X329078Y169184D01*
X329130Y169085D01*
X329177Y168985D01*
X329222Y168884D01*
X329262Y168781D01*
X329299Y168676D01*
X329332Y168570D01*
X329362Y168464D01*
X329387Y168356D01*
X329409Y168247D01*
X329426Y168138D01*
X329440Y168028D01*
X329450Y167917D01*
X329456Y167807D01*
X329458Y167696D01*
X329456Y167585D01*
X329450Y167475D01*
X329440Y167364D01*
X329426Y167254D01*
X329409Y167145D01*
X329387Y167036D01*
X329362Y166928D01*
X329332Y166822D01*
X329299Y166716D01*
X329262Y166611D01*
X329222Y166508D01*
X329177Y166407D01*
X329130Y166307D01*
X329078Y166208D01*
X329023Y166112D01*
X328965Y166018D01*
X328904Y165926D01*
X328839Y165836D01*
X328771Y165748D01*
X328700Y165663D01*
X328626Y165581D01*
X328549Y165501D01*
X328469Y165424D01*
X328387Y165350D01*
X328302Y165279D01*
X328214Y165211D01*
X328124Y165146D01*
X328032Y165085D01*
X327938Y165027D01*
X327842Y164972D01*
X327743Y164920D01*
X327643Y164873D01*
X327542Y164828D01*
X327439Y164788D01*
X327334Y164751D01*
X327228Y164718D01*
X327122Y164688D01*
X327014Y164663D01*
X326905Y164641D01*
X326796Y164624D01*
X326686Y164610D01*
X326575Y164600D01*
X326465Y164594D01*
X326354Y164592D01*
X326243Y164594D01*
X326133Y164600D01*
X326022Y164610D01*
X325912Y164624D01*
X325803Y164641D01*
X325694Y164663D01*
X325586Y164688D01*
X325480Y164718D01*
X325374Y164751D01*
X325269Y164788D01*
X325166Y164828D01*
X325065Y164873D01*
X324965Y164920D01*
X324866Y164972D01*
X324770Y165027D01*
X324676Y165085D01*
X324584Y165146D01*
X324494Y165211D01*
X324406Y165279D01*
X324321Y165350D01*
X324239Y165424D01*
X324159Y165501D01*
X324082Y165581D01*
X324008Y165663D01*
X323937Y165748D01*
X323869Y165836D01*
X323804Y165926D01*
X323743Y166018D01*
X323685Y166112D01*
X323630Y166208D01*
X323578Y166307D01*
X323531Y166407D01*
X323486Y166508D01*
X323446Y166611D01*
X323409Y166716D01*
X323376Y166822D01*
X323346Y166928D01*
X323321Y167036D01*
X323299Y167145D01*
X323282Y167254D01*
X323268Y167364D01*
X323258Y167475D01*
X323252Y167585D01*
X323250Y167696D01*
X323870Y173284D02*
X323872Y173383D01*
X323878Y173481D01*
X323888Y173580D01*
X323901Y173677D01*
X323919Y173775D01*
X323940Y173871D01*
X323966Y173967D01*
X323995Y174061D01*
X324027Y174154D01*
X324064Y174246D01*
X324104Y174336D01*
X324148Y174425D01*
X324195Y174512D01*
X324245Y174597D01*
X324299Y174679D01*
X324356Y174760D01*
X324416Y174838D01*
X324480Y174914D01*
X324546Y174987D01*
X324615Y175058D01*
X324687Y175126D01*
X324762Y175190D01*
X324839Y175252D01*
X324918Y175311D01*
X325000Y175366D01*
X325084Y175419D01*
X325169Y175467D01*
X325257Y175513D01*
X325347Y175555D01*
X325438Y175593D01*
X325530Y175627D01*
X325624Y175658D01*
X325719Y175685D01*
X325815Y175709D01*
X325912Y175728D01*
X326009Y175744D01*
X326107Y175756D01*
X326206Y175764D01*
X326305Y175768D01*
X326403Y175768D01*
X326502Y175764D01*
X326601Y175756D01*
X326699Y175744D01*
X326796Y175728D01*
X326893Y175709D01*
X326989Y175685D01*
X327084Y175658D01*
X327178Y175627D01*
X327270Y175593D01*
X327361Y175555D01*
X327451Y175513D01*
X327539Y175467D01*
X327624Y175419D01*
X327708Y175366D01*
X327790Y175311D01*
X327869Y175252D01*
X327946Y175190D01*
X328021Y175126D01*
X328093Y175058D01*
X328162Y174987D01*
X328228Y174914D01*
X328292Y174838D01*
X328352Y174760D01*
X328409Y174679D01*
X328463Y174597D01*
X328513Y174512D01*
X328560Y174425D01*
X328604Y174336D01*
X328644Y174246D01*
X328681Y174154D01*
X328713Y174061D01*
X328742Y173967D01*
X328768Y173871D01*
X328789Y173775D01*
X328807Y173677D01*
X328820Y173580D01*
X328830Y173481D01*
X328836Y173383D01*
X328838Y173284D01*
X328836Y173185D01*
X328830Y173087D01*
X328820Y172988D01*
X328807Y172891D01*
X328789Y172793D01*
X328768Y172697D01*
X328742Y172601D01*
X328713Y172507D01*
X328681Y172414D01*
X328644Y172322D01*
X328604Y172232D01*
X328560Y172143D01*
X328513Y172056D01*
X328463Y171971D01*
X328409Y171889D01*
X328352Y171808D01*
X328292Y171730D01*
X328228Y171654D01*
X328162Y171581D01*
X328093Y171510D01*
X328021Y171442D01*
X327946Y171378D01*
X327869Y171316D01*
X327790Y171257D01*
X327708Y171202D01*
X327624Y171149D01*
X327539Y171101D01*
X327451Y171055D01*
X327361Y171013D01*
X327270Y170975D01*
X327178Y170941D01*
X327084Y170910D01*
X326989Y170883D01*
X326893Y170859D01*
X326796Y170840D01*
X326699Y170824D01*
X326601Y170812D01*
X326502Y170804D01*
X326403Y170800D01*
X326305Y170800D01*
X326206Y170804D01*
X326107Y170812D01*
X326009Y170824D01*
X325912Y170840D01*
X325815Y170859D01*
X325719Y170883D01*
X325624Y170910D01*
X325530Y170941D01*
X325438Y170975D01*
X325347Y171013D01*
X325257Y171055D01*
X325169Y171101D01*
X325084Y171149D01*
X325000Y171202D01*
X324918Y171257D01*
X324839Y171316D01*
X324762Y171378D01*
X324687Y171442D01*
X324615Y171510D01*
X324546Y171581D01*
X324480Y171654D01*
X324416Y171730D01*
X324356Y171808D01*
X324299Y171889D01*
X324245Y171971D01*
X324195Y172056D01*
X324148Y172143D01*
X324104Y172232D01*
X324064Y172322D01*
X324027Y172414D01*
X323995Y172507D01*
X323966Y172601D01*
X323940Y172697D01*
X323919Y172793D01*
X323901Y172891D01*
X323888Y172988D01*
X323878Y173087D01*
X323872Y173185D01*
X323870Y173284D01*
D15*
X373380Y158750D03*
D10*
X365252Y164592D02*
X365252Y175768D01*
X368356Y175768D01*
X368467Y175766D01*
X368577Y175760D01*
X368688Y175750D01*
X368798Y175736D01*
X368907Y175719D01*
X369016Y175697D01*
X369124Y175672D01*
X369230Y175642D01*
X369336Y175609D01*
X369441Y175572D01*
X369544Y175532D01*
X369645Y175487D01*
X369745Y175440D01*
X369844Y175388D01*
X369940Y175333D01*
X370034Y175275D01*
X370126Y175214D01*
X370216Y175149D01*
X370304Y175081D01*
X370389Y175010D01*
X370471Y174936D01*
X370551Y174859D01*
X370628Y174779D01*
X370702Y174697D01*
X370773Y174612D01*
X370841Y174524D01*
X370906Y174434D01*
X370967Y174342D01*
X371025Y174248D01*
X371080Y174152D01*
X371132Y174053D01*
X371179Y173953D01*
X371224Y173852D01*
X371264Y173749D01*
X371301Y173644D01*
X371334Y173538D01*
X371364Y173432D01*
X371389Y173324D01*
X371411Y173215D01*
X371428Y173106D01*
X371442Y172996D01*
X371452Y172885D01*
X371458Y172775D01*
X371460Y172664D01*
X371458Y172553D01*
X371452Y172443D01*
X371442Y172332D01*
X371428Y172222D01*
X371411Y172113D01*
X371389Y172004D01*
X371364Y171896D01*
X371334Y171790D01*
X371301Y171684D01*
X371264Y171579D01*
X371224Y171476D01*
X371179Y171375D01*
X371132Y171275D01*
X371080Y171176D01*
X371025Y171080D01*
X370967Y170986D01*
X370906Y170894D01*
X370841Y170804D01*
X370773Y170716D01*
X370702Y170631D01*
X370628Y170549D01*
X370551Y170469D01*
X370471Y170392D01*
X370389Y170318D01*
X370304Y170247D01*
X370216Y170179D01*
X370126Y170114D01*
X370034Y170053D01*
X369940Y169995D01*
X369844Y169940D01*
X369745Y169888D01*
X369645Y169841D01*
X369544Y169796D01*
X369441Y169756D01*
X369336Y169719D01*
X369230Y169686D01*
X369124Y169656D01*
X369016Y169631D01*
X368907Y169609D01*
X368798Y169592D01*
X368688Y169578D01*
X368577Y169568D01*
X368467Y169562D01*
X368356Y169560D01*
X368356Y169559D02*
X365252Y169559D01*
X368977Y169559D02*
X371461Y164592D01*
X379074Y169559D02*
X382799Y169559D01*
X379074Y169559D02*
X378976Y169561D01*
X378879Y169567D01*
X378782Y169576D01*
X378685Y169590D01*
X378589Y169607D01*
X378494Y169628D01*
X378400Y169652D01*
X378306Y169681D01*
X378214Y169713D01*
X378123Y169748D01*
X378034Y169787D01*
X377946Y169830D01*
X377860Y169876D01*
X377776Y169925D01*
X377694Y169978D01*
X377614Y170033D01*
X377536Y170092D01*
X377461Y170154D01*
X377388Y170219D01*
X377318Y170287D01*
X377250Y170357D01*
X377185Y170430D01*
X377123Y170505D01*
X377064Y170583D01*
X377009Y170663D01*
X376956Y170745D01*
X376907Y170829D01*
X376861Y170915D01*
X376818Y171003D01*
X376779Y171092D01*
X376744Y171183D01*
X376712Y171275D01*
X376683Y171369D01*
X376659Y171463D01*
X376638Y171558D01*
X376621Y171654D01*
X376607Y171751D01*
X376598Y171848D01*
X376592Y171945D01*
X376590Y172043D01*
X376590Y172664D01*
X376592Y172775D01*
X376598Y172885D01*
X376608Y172996D01*
X376622Y173106D01*
X376639Y173215D01*
X376661Y173324D01*
X376686Y173432D01*
X376716Y173538D01*
X376749Y173644D01*
X376786Y173749D01*
X376826Y173852D01*
X376871Y173953D01*
X376918Y174053D01*
X376970Y174152D01*
X377025Y174248D01*
X377083Y174342D01*
X377144Y174434D01*
X377209Y174524D01*
X377277Y174612D01*
X377348Y174697D01*
X377422Y174779D01*
X377499Y174859D01*
X377579Y174936D01*
X377661Y175010D01*
X377746Y175081D01*
X377834Y175149D01*
X377924Y175214D01*
X378016Y175275D01*
X378110Y175333D01*
X378206Y175388D01*
X378305Y175440D01*
X378405Y175487D01*
X378506Y175532D01*
X378609Y175572D01*
X378714Y175609D01*
X378820Y175642D01*
X378926Y175672D01*
X379034Y175697D01*
X379143Y175719D01*
X379252Y175736D01*
X379362Y175750D01*
X379473Y175760D01*
X379583Y175766D01*
X379694Y175768D01*
X379805Y175766D01*
X379915Y175760D01*
X380026Y175750D01*
X380136Y175736D01*
X380245Y175719D01*
X380354Y175697D01*
X380462Y175672D01*
X380568Y175642D01*
X380674Y175609D01*
X380779Y175572D01*
X380882Y175532D01*
X380983Y175487D01*
X381083Y175440D01*
X381182Y175388D01*
X381278Y175333D01*
X381372Y175275D01*
X381464Y175214D01*
X381554Y175149D01*
X381642Y175081D01*
X381727Y175010D01*
X381809Y174936D01*
X381889Y174859D01*
X381966Y174779D01*
X382040Y174697D01*
X382111Y174612D01*
X382179Y174524D01*
X382244Y174434D01*
X382305Y174342D01*
X382363Y174248D01*
X382418Y174152D01*
X382470Y174053D01*
X382517Y173953D01*
X382562Y173852D01*
X382602Y173749D01*
X382639Y173644D01*
X382672Y173538D01*
X382702Y173432D01*
X382727Y173324D01*
X382749Y173215D01*
X382766Y173106D01*
X382780Y172996D01*
X382790Y172885D01*
X382796Y172775D01*
X382798Y172664D01*
X382799Y172664D02*
X382799Y169559D01*
X382797Y169420D01*
X382791Y169280D01*
X382781Y169142D01*
X382768Y169003D01*
X382750Y168865D01*
X382729Y168727D01*
X382704Y168590D01*
X382674Y168454D01*
X382642Y168318D01*
X382605Y168184D01*
X382564Y168051D01*
X382520Y167918D01*
X382472Y167788D01*
X382421Y167658D01*
X382366Y167530D01*
X382307Y167404D01*
X382245Y167279D01*
X382179Y167156D01*
X382110Y167035D01*
X382038Y166916D01*
X381962Y166799D01*
X381883Y166685D01*
X381801Y166572D01*
X381715Y166462D01*
X381627Y166354D01*
X381536Y166249D01*
X381441Y166147D01*
X381344Y166047D01*
X381244Y165950D01*
X381142Y165855D01*
X381037Y165764D01*
X380929Y165676D01*
X380819Y165590D01*
X380706Y165508D01*
X380592Y165429D01*
X380475Y165353D01*
X380356Y165281D01*
X380235Y165212D01*
X380112Y165146D01*
X379987Y165084D01*
X379861Y165025D01*
X379733Y164970D01*
X379603Y164919D01*
X379472Y164871D01*
X379340Y164827D01*
X379207Y164786D01*
X379073Y164749D01*
X378937Y164717D01*
X378801Y164687D01*
X378664Y164662D01*
X378526Y164641D01*
X378388Y164623D01*
X378249Y164610D01*
X378110Y164600D01*
X377971Y164594D01*
X377832Y164592D01*
D15*
X675640Y22860D03*
D10*
X667512Y28702D02*
X667512Y39878D01*
X670616Y39878D01*
X670727Y39876D01*
X670837Y39870D01*
X670948Y39860D01*
X671058Y39846D01*
X671167Y39829D01*
X671276Y39807D01*
X671384Y39782D01*
X671490Y39752D01*
X671596Y39719D01*
X671701Y39682D01*
X671804Y39642D01*
X671905Y39597D01*
X672005Y39550D01*
X672104Y39498D01*
X672200Y39443D01*
X672294Y39385D01*
X672386Y39324D01*
X672476Y39259D01*
X672564Y39191D01*
X672649Y39120D01*
X672731Y39046D01*
X672811Y38969D01*
X672888Y38889D01*
X672962Y38807D01*
X673033Y38722D01*
X673101Y38634D01*
X673166Y38544D01*
X673227Y38452D01*
X673285Y38358D01*
X673340Y38262D01*
X673392Y38163D01*
X673439Y38063D01*
X673484Y37962D01*
X673524Y37859D01*
X673561Y37754D01*
X673594Y37648D01*
X673624Y37542D01*
X673649Y37434D01*
X673671Y37325D01*
X673688Y37216D01*
X673702Y37106D01*
X673712Y36995D01*
X673718Y36885D01*
X673720Y36774D01*
X673718Y36663D01*
X673712Y36553D01*
X673702Y36442D01*
X673688Y36332D01*
X673671Y36223D01*
X673649Y36114D01*
X673624Y36006D01*
X673594Y35900D01*
X673561Y35794D01*
X673524Y35689D01*
X673484Y35586D01*
X673439Y35485D01*
X673392Y35385D01*
X673340Y35286D01*
X673285Y35190D01*
X673227Y35096D01*
X673166Y35004D01*
X673101Y34914D01*
X673033Y34826D01*
X672962Y34741D01*
X672888Y34659D01*
X672811Y34579D01*
X672731Y34502D01*
X672649Y34428D01*
X672564Y34357D01*
X672476Y34289D01*
X672386Y34224D01*
X672294Y34163D01*
X672200Y34105D01*
X672104Y34050D01*
X672005Y33998D01*
X671905Y33951D01*
X671804Y33906D01*
X671701Y33866D01*
X671596Y33829D01*
X671490Y33796D01*
X671384Y33766D01*
X671276Y33741D01*
X671167Y33719D01*
X671058Y33702D01*
X670948Y33688D01*
X670837Y33678D01*
X670727Y33672D01*
X670616Y33670D01*
X670616Y33669D02*
X667512Y33669D01*
X671237Y33669D02*
X673721Y28702D01*
X678850Y31186D02*
X681334Y39878D01*
X678850Y31186D02*
X685059Y31186D01*
X683196Y33669D02*
X683196Y28702D01*
M02*
