G04 EAGLE Gerber RS-274X export*
G75*
%MOMM*%
%FSLAX34Y34*%
%LPD*%
%INSoldermask Bottom*%
%IPPOS*%
%AMOC8*
5,1,8,0,0,1.08239X$1,22.5*%
G01*
%ADD10C,2.152400*%
%ADD11C,1.930400*%
%ADD12C,1.272400*%
%ADD13R,0.952400X0.952400*%
%ADD14R,0.762000X0.660400*%
%ADD15R,1.803400X1.803400*%
%ADD16C,1.803400*%
%ADD17R,1.717037X1.717037*%
%ADD18C,1.717037*%
%ADD19R,1.676400X1.676400*%
%ADD20P,1.814519X8X22.500000*%
%ADD21C,4.597400*%
%ADD22C,0.609600*%
%ADD23C,1.168400*%


D10*
X599440Y419100D03*
X162560Y419100D03*
X599440Y190500D03*
X162560Y190500D03*
D11*
X340360Y190500D03*
X365760Y190500D03*
X391160Y190500D03*
X416560Y190500D03*
D12*
X622300Y108700D03*
X622300Y43700D03*
D13*
X635000Y139700D03*
X609600Y139700D03*
X609600Y114300D03*
X635000Y114300D03*
X698500Y139700D03*
X673100Y139700D03*
X673100Y114300D03*
X698500Y114300D03*
X609600Y88900D03*
X584200Y88900D03*
X584200Y63500D03*
X609600Y63500D03*
X673100Y88900D03*
X647700Y88900D03*
X647700Y63500D03*
X673100Y63500D03*
D14*
X665988Y50800D03*
X654812Y50800D03*
X596138Y50800D03*
X584962Y50800D03*
X629412Y152400D03*
X640588Y152400D03*
X680212Y152400D03*
X691388Y152400D03*
D15*
X177800Y50800D03*
D16*
X203200Y50800D03*
X228600Y50800D03*
D17*
X622300Y190500D03*
D18*
X622300Y215900D03*
X622300Y241300D03*
X622300Y266700D03*
X622300Y292100D03*
X622300Y317500D03*
X622300Y342900D03*
X622300Y368300D03*
X622300Y393700D03*
X698500Y393700D03*
X698500Y368300D03*
X698500Y342900D03*
X698500Y317500D03*
X698500Y292100D03*
X698500Y266700D03*
X698500Y241300D03*
X698500Y215900D03*
X698500Y190500D03*
D19*
X97200Y396500D03*
D20*
X97200Y371100D03*
X122600Y396500D03*
X122600Y371100D03*
X148000Y396500D03*
X148000Y371100D03*
X173400Y396500D03*
X173400Y371100D03*
X198800Y396500D03*
X198800Y371100D03*
X224200Y396500D03*
X224200Y371100D03*
X249600Y396500D03*
X249600Y371100D03*
X275000Y396500D03*
X275000Y371100D03*
X300400Y396500D03*
X300400Y371100D03*
X325800Y396500D03*
X325800Y371100D03*
X351200Y396500D03*
X351200Y371100D03*
X376600Y396500D03*
X376600Y371100D03*
X402000Y396500D03*
X402000Y371100D03*
X427400Y396500D03*
X427400Y371100D03*
X452800Y396500D03*
X452800Y371100D03*
X478200Y396500D03*
X478200Y371100D03*
X503600Y396500D03*
X503600Y371100D03*
X529000Y396500D03*
X529000Y371100D03*
D19*
X97200Y142500D03*
D20*
X97200Y117100D03*
X122600Y142500D03*
X122600Y117100D03*
X148000Y142500D03*
X148000Y117100D03*
X173400Y142500D03*
X173400Y117100D03*
X198800Y142500D03*
X198800Y117100D03*
X224200Y142500D03*
X224200Y117100D03*
X249600Y142500D03*
X249600Y117100D03*
X275000Y142500D03*
X275000Y117100D03*
X300400Y142500D03*
X300400Y117100D03*
X325800Y142500D03*
X325800Y117100D03*
X351200Y142500D03*
X351200Y117100D03*
X376600Y142500D03*
X376600Y117100D03*
X402000Y142500D03*
X402000Y117100D03*
X427400Y142500D03*
X427400Y117100D03*
X452800Y142500D03*
X452800Y117100D03*
X478200Y142500D03*
X478200Y117100D03*
X503600Y142500D03*
X503600Y117100D03*
X529000Y142500D03*
X529000Y117100D03*
D21*
X38100Y38100D03*
X723900Y38100D03*
X723900Y469900D03*
X38100Y469900D03*
D22*
X93980Y50800D02*
X93982Y50987D01*
X93989Y51174D01*
X94001Y51361D01*
X94017Y51547D01*
X94037Y51733D01*
X94062Y51918D01*
X94092Y52103D01*
X94126Y52287D01*
X94165Y52470D01*
X94208Y52652D01*
X94256Y52832D01*
X94308Y53012D01*
X94365Y53190D01*
X94425Y53367D01*
X94491Y53542D01*
X94560Y53716D01*
X94634Y53888D01*
X94712Y54058D01*
X94794Y54226D01*
X94880Y54392D01*
X94970Y54556D01*
X95064Y54717D01*
X95162Y54877D01*
X95264Y55033D01*
X95370Y55188D01*
X95480Y55339D01*
X95593Y55488D01*
X95710Y55634D01*
X95830Y55777D01*
X95954Y55917D01*
X96081Y56054D01*
X96212Y56188D01*
X96346Y56319D01*
X96483Y56446D01*
X96623Y56570D01*
X96766Y56690D01*
X96912Y56807D01*
X97061Y56920D01*
X97212Y57030D01*
X97367Y57136D01*
X97523Y57238D01*
X97683Y57336D01*
X97844Y57430D01*
X98008Y57520D01*
X98174Y57606D01*
X98342Y57688D01*
X98512Y57766D01*
X98684Y57840D01*
X98858Y57909D01*
X99033Y57975D01*
X99210Y58035D01*
X99388Y58092D01*
X99568Y58144D01*
X99748Y58192D01*
X99930Y58235D01*
X100113Y58274D01*
X100297Y58308D01*
X100482Y58338D01*
X100667Y58363D01*
X100853Y58383D01*
X101039Y58399D01*
X101226Y58411D01*
X101413Y58418D01*
X101600Y58420D01*
X101787Y58418D01*
X101974Y58411D01*
X102161Y58399D01*
X102347Y58383D01*
X102533Y58363D01*
X102718Y58338D01*
X102903Y58308D01*
X103087Y58274D01*
X103270Y58235D01*
X103452Y58192D01*
X103632Y58144D01*
X103812Y58092D01*
X103990Y58035D01*
X104167Y57975D01*
X104342Y57909D01*
X104516Y57840D01*
X104688Y57766D01*
X104858Y57688D01*
X105026Y57606D01*
X105192Y57520D01*
X105356Y57430D01*
X105517Y57336D01*
X105677Y57238D01*
X105833Y57136D01*
X105988Y57030D01*
X106139Y56920D01*
X106288Y56807D01*
X106434Y56690D01*
X106577Y56570D01*
X106717Y56446D01*
X106854Y56319D01*
X106988Y56188D01*
X107119Y56054D01*
X107246Y55917D01*
X107370Y55777D01*
X107490Y55634D01*
X107607Y55488D01*
X107720Y55339D01*
X107830Y55188D01*
X107936Y55033D01*
X108038Y54877D01*
X108136Y54717D01*
X108230Y54556D01*
X108320Y54392D01*
X108406Y54226D01*
X108488Y54058D01*
X108566Y53888D01*
X108640Y53716D01*
X108709Y53542D01*
X108775Y53367D01*
X108835Y53190D01*
X108892Y53012D01*
X108944Y52832D01*
X108992Y52652D01*
X109035Y52470D01*
X109074Y52287D01*
X109108Y52103D01*
X109138Y51918D01*
X109163Y51733D01*
X109183Y51547D01*
X109199Y51361D01*
X109211Y51174D01*
X109218Y50987D01*
X109220Y50800D01*
X109218Y50613D01*
X109211Y50426D01*
X109199Y50239D01*
X109183Y50053D01*
X109163Y49867D01*
X109138Y49682D01*
X109108Y49497D01*
X109074Y49313D01*
X109035Y49130D01*
X108992Y48948D01*
X108944Y48768D01*
X108892Y48588D01*
X108835Y48410D01*
X108775Y48233D01*
X108709Y48058D01*
X108640Y47884D01*
X108566Y47712D01*
X108488Y47542D01*
X108406Y47374D01*
X108320Y47208D01*
X108230Y47044D01*
X108136Y46883D01*
X108038Y46723D01*
X107936Y46567D01*
X107830Y46412D01*
X107720Y46261D01*
X107607Y46112D01*
X107490Y45966D01*
X107370Y45823D01*
X107246Y45683D01*
X107119Y45546D01*
X106988Y45412D01*
X106854Y45281D01*
X106717Y45154D01*
X106577Y45030D01*
X106434Y44910D01*
X106288Y44793D01*
X106139Y44680D01*
X105988Y44570D01*
X105833Y44464D01*
X105677Y44362D01*
X105517Y44264D01*
X105356Y44170D01*
X105192Y44080D01*
X105026Y43994D01*
X104858Y43912D01*
X104688Y43834D01*
X104516Y43760D01*
X104342Y43691D01*
X104167Y43625D01*
X103990Y43565D01*
X103812Y43508D01*
X103632Y43456D01*
X103452Y43408D01*
X103270Y43365D01*
X103087Y43326D01*
X102903Y43292D01*
X102718Y43262D01*
X102533Y43237D01*
X102347Y43217D01*
X102161Y43201D01*
X101974Y43189D01*
X101787Y43182D01*
X101600Y43180D01*
X101413Y43182D01*
X101226Y43189D01*
X101039Y43201D01*
X100853Y43217D01*
X100667Y43237D01*
X100482Y43262D01*
X100297Y43292D01*
X100113Y43326D01*
X99930Y43365D01*
X99748Y43408D01*
X99568Y43456D01*
X99388Y43508D01*
X99210Y43565D01*
X99033Y43625D01*
X98858Y43691D01*
X98684Y43760D01*
X98512Y43834D01*
X98342Y43912D01*
X98174Y43994D01*
X98008Y44080D01*
X97844Y44170D01*
X97683Y44264D01*
X97523Y44362D01*
X97367Y44464D01*
X97212Y44570D01*
X97061Y44680D01*
X96912Y44793D01*
X96766Y44910D01*
X96623Y45030D01*
X96483Y45154D01*
X96346Y45281D01*
X96212Y45412D01*
X96081Y45546D01*
X95954Y45683D01*
X95830Y45823D01*
X95710Y45966D01*
X95593Y46112D01*
X95480Y46261D01*
X95370Y46412D01*
X95264Y46567D01*
X95162Y46723D01*
X95064Y46883D01*
X94970Y47044D01*
X94880Y47208D01*
X94794Y47374D01*
X94712Y47542D01*
X94634Y47712D01*
X94560Y47884D01*
X94491Y48058D01*
X94425Y48233D01*
X94365Y48410D01*
X94308Y48588D01*
X94256Y48768D01*
X94208Y48948D01*
X94165Y49130D01*
X94126Y49313D01*
X94092Y49497D01*
X94062Y49682D01*
X94037Y49867D01*
X94017Y50053D01*
X94001Y50239D01*
X93989Y50426D01*
X93982Y50613D01*
X93980Y50800D01*
D23*
X101600Y50800D03*
D22*
X424180Y50800D02*
X424182Y50987D01*
X424189Y51174D01*
X424201Y51361D01*
X424217Y51547D01*
X424237Y51733D01*
X424262Y51918D01*
X424292Y52103D01*
X424326Y52287D01*
X424365Y52470D01*
X424408Y52652D01*
X424456Y52832D01*
X424508Y53012D01*
X424565Y53190D01*
X424625Y53367D01*
X424691Y53542D01*
X424760Y53716D01*
X424834Y53888D01*
X424912Y54058D01*
X424994Y54226D01*
X425080Y54392D01*
X425170Y54556D01*
X425264Y54717D01*
X425362Y54877D01*
X425464Y55033D01*
X425570Y55188D01*
X425680Y55339D01*
X425793Y55488D01*
X425910Y55634D01*
X426030Y55777D01*
X426154Y55917D01*
X426281Y56054D01*
X426412Y56188D01*
X426546Y56319D01*
X426683Y56446D01*
X426823Y56570D01*
X426966Y56690D01*
X427112Y56807D01*
X427261Y56920D01*
X427412Y57030D01*
X427567Y57136D01*
X427723Y57238D01*
X427883Y57336D01*
X428044Y57430D01*
X428208Y57520D01*
X428374Y57606D01*
X428542Y57688D01*
X428712Y57766D01*
X428884Y57840D01*
X429058Y57909D01*
X429233Y57975D01*
X429410Y58035D01*
X429588Y58092D01*
X429768Y58144D01*
X429948Y58192D01*
X430130Y58235D01*
X430313Y58274D01*
X430497Y58308D01*
X430682Y58338D01*
X430867Y58363D01*
X431053Y58383D01*
X431239Y58399D01*
X431426Y58411D01*
X431613Y58418D01*
X431800Y58420D01*
X431987Y58418D01*
X432174Y58411D01*
X432361Y58399D01*
X432547Y58383D01*
X432733Y58363D01*
X432918Y58338D01*
X433103Y58308D01*
X433287Y58274D01*
X433470Y58235D01*
X433652Y58192D01*
X433832Y58144D01*
X434012Y58092D01*
X434190Y58035D01*
X434367Y57975D01*
X434542Y57909D01*
X434716Y57840D01*
X434888Y57766D01*
X435058Y57688D01*
X435226Y57606D01*
X435392Y57520D01*
X435556Y57430D01*
X435717Y57336D01*
X435877Y57238D01*
X436033Y57136D01*
X436188Y57030D01*
X436339Y56920D01*
X436488Y56807D01*
X436634Y56690D01*
X436777Y56570D01*
X436917Y56446D01*
X437054Y56319D01*
X437188Y56188D01*
X437319Y56054D01*
X437446Y55917D01*
X437570Y55777D01*
X437690Y55634D01*
X437807Y55488D01*
X437920Y55339D01*
X438030Y55188D01*
X438136Y55033D01*
X438238Y54877D01*
X438336Y54717D01*
X438430Y54556D01*
X438520Y54392D01*
X438606Y54226D01*
X438688Y54058D01*
X438766Y53888D01*
X438840Y53716D01*
X438909Y53542D01*
X438975Y53367D01*
X439035Y53190D01*
X439092Y53012D01*
X439144Y52832D01*
X439192Y52652D01*
X439235Y52470D01*
X439274Y52287D01*
X439308Y52103D01*
X439338Y51918D01*
X439363Y51733D01*
X439383Y51547D01*
X439399Y51361D01*
X439411Y51174D01*
X439418Y50987D01*
X439420Y50800D01*
X439418Y50613D01*
X439411Y50426D01*
X439399Y50239D01*
X439383Y50053D01*
X439363Y49867D01*
X439338Y49682D01*
X439308Y49497D01*
X439274Y49313D01*
X439235Y49130D01*
X439192Y48948D01*
X439144Y48768D01*
X439092Y48588D01*
X439035Y48410D01*
X438975Y48233D01*
X438909Y48058D01*
X438840Y47884D01*
X438766Y47712D01*
X438688Y47542D01*
X438606Y47374D01*
X438520Y47208D01*
X438430Y47044D01*
X438336Y46883D01*
X438238Y46723D01*
X438136Y46567D01*
X438030Y46412D01*
X437920Y46261D01*
X437807Y46112D01*
X437690Y45966D01*
X437570Y45823D01*
X437446Y45683D01*
X437319Y45546D01*
X437188Y45412D01*
X437054Y45281D01*
X436917Y45154D01*
X436777Y45030D01*
X436634Y44910D01*
X436488Y44793D01*
X436339Y44680D01*
X436188Y44570D01*
X436033Y44464D01*
X435877Y44362D01*
X435717Y44264D01*
X435556Y44170D01*
X435392Y44080D01*
X435226Y43994D01*
X435058Y43912D01*
X434888Y43834D01*
X434716Y43760D01*
X434542Y43691D01*
X434367Y43625D01*
X434190Y43565D01*
X434012Y43508D01*
X433832Y43456D01*
X433652Y43408D01*
X433470Y43365D01*
X433287Y43326D01*
X433103Y43292D01*
X432918Y43262D01*
X432733Y43237D01*
X432547Y43217D01*
X432361Y43201D01*
X432174Y43189D01*
X431987Y43182D01*
X431800Y43180D01*
X431613Y43182D01*
X431426Y43189D01*
X431239Y43201D01*
X431053Y43217D01*
X430867Y43237D01*
X430682Y43262D01*
X430497Y43292D01*
X430313Y43326D01*
X430130Y43365D01*
X429948Y43408D01*
X429768Y43456D01*
X429588Y43508D01*
X429410Y43565D01*
X429233Y43625D01*
X429058Y43691D01*
X428884Y43760D01*
X428712Y43834D01*
X428542Y43912D01*
X428374Y43994D01*
X428208Y44080D01*
X428044Y44170D01*
X427883Y44264D01*
X427723Y44362D01*
X427567Y44464D01*
X427412Y44570D01*
X427261Y44680D01*
X427112Y44793D01*
X426966Y44910D01*
X426823Y45030D01*
X426683Y45154D01*
X426546Y45281D01*
X426412Y45412D01*
X426281Y45546D01*
X426154Y45683D01*
X426030Y45823D01*
X425910Y45966D01*
X425793Y46112D01*
X425680Y46261D01*
X425570Y46412D01*
X425464Y46567D01*
X425362Y46723D01*
X425264Y46883D01*
X425170Y47044D01*
X425080Y47208D01*
X424994Y47374D01*
X424912Y47542D01*
X424834Y47712D01*
X424760Y47884D01*
X424691Y48058D01*
X424625Y48233D01*
X424565Y48410D01*
X424508Y48588D01*
X424456Y48768D01*
X424408Y48948D01*
X424365Y49130D01*
X424326Y49313D01*
X424292Y49497D01*
X424262Y49682D01*
X424237Y49867D01*
X424217Y50053D01*
X424201Y50239D01*
X424189Y50426D01*
X424182Y50613D01*
X424180Y50800D01*
D23*
X431800Y50800D03*
D22*
X424180Y482600D02*
X424182Y482787D01*
X424189Y482974D01*
X424201Y483161D01*
X424217Y483347D01*
X424237Y483533D01*
X424262Y483718D01*
X424292Y483903D01*
X424326Y484087D01*
X424365Y484270D01*
X424408Y484452D01*
X424456Y484632D01*
X424508Y484812D01*
X424565Y484990D01*
X424625Y485167D01*
X424691Y485342D01*
X424760Y485516D01*
X424834Y485688D01*
X424912Y485858D01*
X424994Y486026D01*
X425080Y486192D01*
X425170Y486356D01*
X425264Y486517D01*
X425362Y486677D01*
X425464Y486833D01*
X425570Y486988D01*
X425680Y487139D01*
X425793Y487288D01*
X425910Y487434D01*
X426030Y487577D01*
X426154Y487717D01*
X426281Y487854D01*
X426412Y487988D01*
X426546Y488119D01*
X426683Y488246D01*
X426823Y488370D01*
X426966Y488490D01*
X427112Y488607D01*
X427261Y488720D01*
X427412Y488830D01*
X427567Y488936D01*
X427723Y489038D01*
X427883Y489136D01*
X428044Y489230D01*
X428208Y489320D01*
X428374Y489406D01*
X428542Y489488D01*
X428712Y489566D01*
X428884Y489640D01*
X429058Y489709D01*
X429233Y489775D01*
X429410Y489835D01*
X429588Y489892D01*
X429768Y489944D01*
X429948Y489992D01*
X430130Y490035D01*
X430313Y490074D01*
X430497Y490108D01*
X430682Y490138D01*
X430867Y490163D01*
X431053Y490183D01*
X431239Y490199D01*
X431426Y490211D01*
X431613Y490218D01*
X431800Y490220D01*
X431987Y490218D01*
X432174Y490211D01*
X432361Y490199D01*
X432547Y490183D01*
X432733Y490163D01*
X432918Y490138D01*
X433103Y490108D01*
X433287Y490074D01*
X433470Y490035D01*
X433652Y489992D01*
X433832Y489944D01*
X434012Y489892D01*
X434190Y489835D01*
X434367Y489775D01*
X434542Y489709D01*
X434716Y489640D01*
X434888Y489566D01*
X435058Y489488D01*
X435226Y489406D01*
X435392Y489320D01*
X435556Y489230D01*
X435717Y489136D01*
X435877Y489038D01*
X436033Y488936D01*
X436188Y488830D01*
X436339Y488720D01*
X436488Y488607D01*
X436634Y488490D01*
X436777Y488370D01*
X436917Y488246D01*
X437054Y488119D01*
X437188Y487988D01*
X437319Y487854D01*
X437446Y487717D01*
X437570Y487577D01*
X437690Y487434D01*
X437807Y487288D01*
X437920Y487139D01*
X438030Y486988D01*
X438136Y486833D01*
X438238Y486677D01*
X438336Y486517D01*
X438430Y486356D01*
X438520Y486192D01*
X438606Y486026D01*
X438688Y485858D01*
X438766Y485688D01*
X438840Y485516D01*
X438909Y485342D01*
X438975Y485167D01*
X439035Y484990D01*
X439092Y484812D01*
X439144Y484632D01*
X439192Y484452D01*
X439235Y484270D01*
X439274Y484087D01*
X439308Y483903D01*
X439338Y483718D01*
X439363Y483533D01*
X439383Y483347D01*
X439399Y483161D01*
X439411Y482974D01*
X439418Y482787D01*
X439420Y482600D01*
X439418Y482413D01*
X439411Y482226D01*
X439399Y482039D01*
X439383Y481853D01*
X439363Y481667D01*
X439338Y481482D01*
X439308Y481297D01*
X439274Y481113D01*
X439235Y480930D01*
X439192Y480748D01*
X439144Y480568D01*
X439092Y480388D01*
X439035Y480210D01*
X438975Y480033D01*
X438909Y479858D01*
X438840Y479684D01*
X438766Y479512D01*
X438688Y479342D01*
X438606Y479174D01*
X438520Y479008D01*
X438430Y478844D01*
X438336Y478683D01*
X438238Y478523D01*
X438136Y478367D01*
X438030Y478212D01*
X437920Y478061D01*
X437807Y477912D01*
X437690Y477766D01*
X437570Y477623D01*
X437446Y477483D01*
X437319Y477346D01*
X437188Y477212D01*
X437054Y477081D01*
X436917Y476954D01*
X436777Y476830D01*
X436634Y476710D01*
X436488Y476593D01*
X436339Y476480D01*
X436188Y476370D01*
X436033Y476264D01*
X435877Y476162D01*
X435717Y476064D01*
X435556Y475970D01*
X435392Y475880D01*
X435226Y475794D01*
X435058Y475712D01*
X434888Y475634D01*
X434716Y475560D01*
X434542Y475491D01*
X434367Y475425D01*
X434190Y475365D01*
X434012Y475308D01*
X433832Y475256D01*
X433652Y475208D01*
X433470Y475165D01*
X433287Y475126D01*
X433103Y475092D01*
X432918Y475062D01*
X432733Y475037D01*
X432547Y475017D01*
X432361Y475001D01*
X432174Y474989D01*
X431987Y474982D01*
X431800Y474980D01*
X431613Y474982D01*
X431426Y474989D01*
X431239Y475001D01*
X431053Y475017D01*
X430867Y475037D01*
X430682Y475062D01*
X430497Y475092D01*
X430313Y475126D01*
X430130Y475165D01*
X429948Y475208D01*
X429768Y475256D01*
X429588Y475308D01*
X429410Y475365D01*
X429233Y475425D01*
X429058Y475491D01*
X428884Y475560D01*
X428712Y475634D01*
X428542Y475712D01*
X428374Y475794D01*
X428208Y475880D01*
X428044Y475970D01*
X427883Y476064D01*
X427723Y476162D01*
X427567Y476264D01*
X427412Y476370D01*
X427261Y476480D01*
X427112Y476593D01*
X426966Y476710D01*
X426823Y476830D01*
X426683Y476954D01*
X426546Y477081D01*
X426412Y477212D01*
X426281Y477346D01*
X426154Y477483D01*
X426030Y477623D01*
X425910Y477766D01*
X425793Y477912D01*
X425680Y478061D01*
X425570Y478212D01*
X425464Y478367D01*
X425362Y478523D01*
X425264Y478683D01*
X425170Y478844D01*
X425080Y479008D01*
X424994Y479174D01*
X424912Y479342D01*
X424834Y479512D01*
X424760Y479684D01*
X424691Y479858D01*
X424625Y480033D01*
X424565Y480210D01*
X424508Y480388D01*
X424456Y480568D01*
X424408Y480748D01*
X424365Y480930D01*
X424326Y481113D01*
X424292Y481297D01*
X424262Y481482D01*
X424237Y481667D01*
X424217Y481853D01*
X424201Y482039D01*
X424189Y482226D01*
X424182Y482413D01*
X424180Y482600D01*
D23*
X431800Y482600D03*
M02*
